<svg width="173" height="186" viewBox="0 0 173 186" fill="none" xmlns="http://www.w3.org/2000/svg">
<path fill-rule="evenodd" clip-rule="evenodd" d="M24 26C14.0589 26 6 34.0589 6 44V182C6 184.209 7.79086 186 10 186H148C157.941 186 166 177.941 166 168V44C166 34.0589 157.941 26 148 26H24ZM82.5448 148.077C84.0883 150.723 87.9115 150.723 89.455 148.077L96.4909 136.015C98.0464 133.349 96.1229 130 93.0358 130H78.9641C75.8769 130 73.9534 133.349 75.5089 136.015L82.5448 148.077ZM115.5 132.402C114.672 130.967 115.163 129.132 116.598 128.304L133.919 118.304C135.353 117.475 137.188 117.967 138.017 119.402C138.845 120.837 138.353 122.672 136.919 123.5L119.598 133.5C118.163 134.328 116.328 133.837 115.5 132.402ZM54.9185 155.696C56.3534 154.868 56.845 153.033 56.0166 151.598C55.1882 150.163 53.3534 149.672 51.9185 150.5L34.598 160.5C33.1631 161.328 32.6715 163.163 33.4999 164.598C34.3284 166.033 36.1631 166.525 37.598 165.696L54.9185 155.696ZM114.5 149.402C115.328 147.967 117.163 147.475 118.598 148.304L135.919 158.304C137.353 159.132 137.845 160.967 137.017 162.402C136.188 163.837 134.353 164.328 132.919 163.5L115.598 153.5C114.163 152.672 113.672 150.837 114.5 149.402ZM52.9185 135.696C54.3534 136.525 56.1882 136.033 57.0166 134.598C57.845 133.163 57.3534 131.328 55.9185 130.5L38.598 120.5C37.1631 119.672 35.3284 120.163 34.4999 121.598C33.6715 123.033 34.1631 124.868 35.598 125.696L52.9185 135.696ZM45 73C43.8954 73 43 73.8954 43 75V82V82C43 82.5002 43.0333 83.0025 43.0111 83.5022C43.0037 83.6672 43 83.8332 43 84C43 90.0751 47.9249 95 54 95C60.0751 95 65 90.0751 65 84V75C65 73.8954 64.1046 73 63 73H54H45ZM107 75C107 73.8954 107.895 73 109 73H118H127C128.105 73 129 73.8954 129 75V84C129 90.0751 124.075 95 118 95C111.925 95 107 90.0751 107 84C107 83.8332 107.004 83.6672 107.011 83.5022C107.033 83.0025 107 82.5002 107 82V82V75Z" fill="#FBB03B"/>
<path d="M24.4378 10.5C27.1321 5.83334 33.8679 5.83333 36.5622 10.5L50.8516 35.25C53.5459 39.9167 50.178 45.75 44.7894 45.75H16.2106C10.822 45.75 7.4541 39.9167 10.1484 35.25L24.4378 10.5Z" fill="#FBB03B"/>
<path d="M136.438 10.5C139.132 5.83334 145.868 5.83333 148.562 10.5L162.852 35.25C165.546 39.9167 162.178 45.75 156.789 45.75H128.211C122.822 45.75 119.454 39.9167 122.148 35.25L136.438 10.5Z" fill="#FBB03B"/>
</svg>
