<svg width="166" height="153" viewBox="0 0 166 153" fill="none" xmlns="http://www.w3.org/2000/svg">
<path fill-rule="evenodd" clip-rule="evenodd" d="M82.9167 152.152L70.8938 141.207C28.1917 102.485 0 76.8638 0 45.6042C0 19.9829 20.0658 0 45.6042 0C60.0317 0 73.8788 6.71625 82.9167 17.2467C91.9546 6.71625 105.802 0 120.229 0C145.768 0 165.833 19.9829 165.833 45.6042C165.833 76.8638 137.642 102.485 94.9396 141.207L82.9167 152.152ZM69 65.5C69 71.299 64.299 76 58.5 76C52.701 76 48 71.299 48 65.5C48 59.701 52.701 55 58.5 55C64.299 55 69 59.701 69 65.5ZM108.5 76C114.299 76 119 71.299 119 65.5C119 59.701 114.299 55 108.5 55C102.701 55 98 59.701 98 65.5C98 71.299 102.701 76 108.5 76Z" fill="#FBB03B"/>
</svg>
