<svg width="160" height="160" viewBox="0 0 160 160" fill="none" xmlns="http://www.w3.org/2000/svg">
<path d="M128 128V152C128 154.122 127.157 156.157 125.657 157.657C124.157 159.157 122.122 160 120 160H40C37.8783 160 35.8434 159.157 34.3431 157.657C32.8429 156.157 32 154.122 32 152V128H8C5.87827 128 3.84344 127.157 2.34315 125.657C0.842854 124.157 0 122.122 0 120V80C0 35.816 35.816 0 80 0C124.184 0 160 35.816 160 80V120C160 122.122 159.157 124.157 157.657 125.657C156.157 127.157 154.122 128 152 128H128ZM44 96C45.5759 96 47.1363 95.6896 48.5922 95.0866C50.0481 94.4835 51.371 93.5996 52.4853 92.4853C53.5996 91.371 54.4835 90.0481 55.0866 88.5922C55.6896 87.1363 56 85.5759 56 84C56 82.4241 55.6896 80.8637 55.0866 79.4078C54.4835 77.9519 53.5996 76.629 52.4853 75.5147C51.371 74.4004 50.0481 73.5165 48.5922 72.9134C47.1363 72.3104 45.5759 72 44 72C40.8174 72 37.7652 73.2643 35.5147 75.5147C33.2643 77.7652 32 80.8174 32 84C32 87.1826 33.2643 90.2348 35.5147 92.4853C37.7652 94.7357 40.8174 96 44 96V96ZM116 96C117.576 96 119.136 95.6896 120.592 95.0866C122.048 94.4835 123.371 93.5996 124.485 92.4853C125.6 91.371 126.483 90.0481 127.087 88.5922C127.69 87.1363 128 85.5759 128 84C128 82.4241 127.69 80.8637 127.087 79.4078C126.483 77.9519 125.6 76.629 124.485 75.5147C123.371 74.4004 122.048 73.5165 120.592 72.9134C119.136 72.3104 117.576 72 116 72C112.817 72 109.765 73.2643 107.515 75.5147C105.264 77.7652 104 80.8174 104 84C104 87.1826 105.264 90.2348 107.515 92.4853C109.765 94.7357 112.817 96 116 96V96Z" fill="#4F4F4F"/>
</svg>
