<svg width="71" height="160" viewBox="0 0 71 160" fill="none" xmlns="http://www.w3.org/2000/svg">
<path d="M46.0487 1.44933L0.31669 85.4277C0.0961505 85.8324 -0.0125389 86.2853 0.00115029 86.7425C0.0148395 87.1997 0.150442 87.6457 0.394826 88.0374C0.63921 88.4291 0.984097 88.7532 1.39609 88.9783C1.80809 89.2034 2.27323 89.3218 2.74649 89.3222H23.9111C24.3123 89.3218 24.7087 89.4064 25.0725 89.5698C25.4363 89.7333 25.7586 89.9718 26.0169 90.2685C26.2752 90.5652 26.4631 90.913 26.5675 91.2873C26.6719 91.6617 26.6903 92.0536 26.6213 92.4356L14.9835 156.888C14.8997 157.354 14.946 157.833 15.1177 158.276C15.2893 158.718 15.5801 159.109 15.9599 159.407C16.3397 159.704 16.7949 159.899 17.2785 159.97C17.762 160.041 18.2564 159.986 18.7107 159.811C19.3069 159.58 19.8009 159.155 20.107 158.61L70.1324 69.6054C70.4531 69.0353 70.5469 68.3715 70.396 67.7392C70.2451 67.1069 69.86 66.5498 69.3133 66.1731L68.2138 65.3921C67.7322 65.0625 67.1547 64.8895 66.5646 64.898L43.8828 65.3496C43.4778 65.3556 43.0765 65.275 42.7075 65.1136C42.3385 64.9522 42.011 64.714 41.7483 64.416C41.4857 64.118 41.2944 63.7676 41.1883 63.3898C41.0821 63.0121 41.0636 62.6163 41.1341 62.2308L51.8264 3.66488C51.9095 3.21417 51.8706 2.75035 51.7136 2.31841C51.5566 1.88648 51.2868 1.50108 50.9303 1.19962L50.3201 0.66831C50.006 0.399316 49.6324 0.203403 49.2278 0.0955845C48.8233 -0.0122335 48.3985 -0.0290945 47.9862 0.0463015C47.5739 0.121697 47.1849 0.287347 46.849 0.530547C46.5132 0.773746 46.2394 1.08804 46.0487 1.44933V1.44933Z" fill="#4F4F4F"/>
</svg>
