<svg xmlns="http://www.w3.org/2000/svg" id="screenshot-cecb00c8-e6c7-8042-8001-e0554a46bb12" width="105.468" height="1892.988" fill="none" style="-webkit-print-color-adjust:exact" version="1.1">
  <g id="shape-cecb00c8-e6c7-8042-8001-e0554a46bb12" style="fill:#000">
    <g id="shape-cecb00c8-e6c7-8042-8001-e0554a48036c">
      <circle id="fills-cecb00c8-e6c7-8042-8001-e0554a48036c" cx="52.734" cy="1846.494" r="46.494" style="fill:#fbb03b"/>
    </g>
    <g id="shape-cecb00c8-e6c7-8042-8001-e0568ca17794">
      <g id="shape-cecb00c8-e6c7-8042-8001-e0568ca17795">
        <path id="fills-cecb00c8-e6c7-8042-8001-e0568ca17795" fill="none" stroke-linecap="round" stroke-linejoin="round" d="m77.734 1670-50 50" style="fill:none"/>
        <path id="strokes-cecb00c8-e6c7-8042-8001-e0568ca17795" stroke-linecap="round" stroke-linejoin="round" d="m77.734 1670-50 50" class="stroke-shape" style="fill:none;stroke-width:41;stroke:#fbb03b"/>
      </g>
      <g id="shape-cecb00c8-e6c7-8042-8001-e0568ca17796">
        <path id="fills-cecb00c8-e6c7-8042-8001-e0568ca17796" fill="none" stroke-linecap="round" stroke-linejoin="round" d="m77.734 1720-50-50" style="fill:none"/>
        <path id="strokes-cecb00c8-e6c7-8042-8001-e0568ca17796" stroke-linecap="round" stroke-linejoin="round" d="m77.734 1720-50-50" class="stroke-shape" style="fill:none;stroke-width:41;stroke:#fbb03b"/>
      </g>
    </g>
    <g id="shape-cecb00c8-e6c7-8042-8001-e0567f9fe93c">
      <path id="fills-cecb00c8-e6c7-8042-8001-e0567f9fe93c" d="M90.993 1544.41c2.322 1.4 2.322 4.78 0 6.179l-72.826 43.892c-2.391 1.441-5.433-.288-5.433-3.09v-87.783c0-2.8 3.042-4.53 5.433-3.089l72.826 43.891Z" style="fill:#fbb03b"/>
    </g>
    <g id="shape-cecb00c8-e6c7-8042-8001-e0567b140126">
      <path id="fills-cecb00c8-e6c7-8042-8001-e0567b140126" fill-rule="evenodd" d="m52.734 1438.427-6.987-6.361c-24.818-22.505-41.202-37.395-41.202-55.562 0-14.891 11.662-26.504 26.504-26.504 8.385 0 16.433 3.903 21.685 10.023 5.253-6.12 13.3-10.023 21.685-10.023 14.842 0 26.504 11.613 26.504 26.504 0 18.167-16.384 33.057-41.201 55.562l-6.988 6.361Zm-8.088-50.36a6.102 6.102 0 1 1-12.204 0 6.102 6.102 0 0 1 12.204 0Zm22.957 6.102a6.102 6.102 0 1 0 0-12.204 6.102 6.102 0 0 0 0 12.204Z" clip-rule="evenodd" style="fill:#fbb03b"/>
    </g>
    <g id="shape-cecb00c8-e6c7-8042-8001-e05675c7d74c">
      <g id="shape-cecb00c8-e6c7-8042-8001-e05675c7d74d">
        <path id="fills-cecb00c8-e6c7-8042-8001-e05675c7d74d" d="M17.109 1203.216c2.5-4.288 8.751-4.288 11.251 0l2.994 5.135c2.501 4.289-.625 9.649-5.625 9.649H19.74c-5.001 0-8.126-5.36-5.626-9.649l2.995-5.135Z" style="fill:#fbb03b"/>
      </g>
      <g id="shape-cecb00c8-e6c7-8042-8001-e05675c7d74e">
        <path id="fills-cecb00c8-e6c7-8042-8001-e05675c7d74e" d="M78.109 1203.216c2.5-4.288 8.751-4.288 11.251 0l2.994 5.135c2.501 4.289-.625 9.649-5.625 9.649H80.74c-5.001 0-8.126-5.36-5.626-9.649l2.995-5.135Z" style="fill:#fbb03b"/>
      </g>
      <g id="shape-cecb00c8-e6c7-8042-8001-e05675c7d74f">
        <path id="fills-cecb00c8-e6c7-8042-8001-e05675c7d74f" fill-rule="evenodd" d="M26.075 1208c-9.301 0-16.841 7.54-16.841 16.841v66.417a3.743 3.743 0 0 0 3.743 3.742h66.416c9.301 0 16.841-7.54 16.841-16.841v-53.318c0-9.301-7.54-16.841-16.841-16.841H26.075Zm23.426 64.058c1.445 2.476 5.022 2.476 6.466 0l1.096-1.881c1.456-2.494-.344-5.627-3.232-5.627h-2.194c-2.888 0-4.688 3.133-3.232 5.627l1.096 1.881Zm18.686-7.22a2.807 2.807 0 0 1 1.027-3.834l7.382-4.263a2.808 2.808 0 0 1 2.807 4.863l-7.382 4.261a2.806 2.806 0 0 1-3.834-1.027Zm-32.196 16.308a2.806 2.806 0 1 0-2.807-4.862l-7.382 4.263a2.807 2.807 0 1 0 2.807 4.861l7.382-4.262Zm32.828-7.064a2.806 2.806 0 0 1 3.834-1.028l7.382 4.262a2.807 2.807 0 0 1-2.807 4.862l-7.382-4.262a2.807 2.807 0 0 1-1.027-3.834Zm-36.267-4.987a2.807 2.807 0 1 0 2.807-4.861l-7.382-4.262a2.807 2.807 0 0 0-2.806 4.861l7.381 4.262Zm-1.328-35.539a1.87 1.87 0 0 0-1.871 1.871v1.455c0 .777.048 1.567.008 2.342a5.981 5.981 0 1 0 11.95.091c-.007-.186.004-.375.004-.562v-3.326a1.87 1.87 0 0 0-1.871-1.871h-8.22Zm32.929 1.871a1.87 1.87 0 0 1 1.871-1.871h8.22a1.87 1.87 0 0 1 1.871 1.871v3.326c0 .187-.011.376-.004.562a5.981 5.981 0 1 1-11.95-.091c.04-.775-.008-1.565-.008-2.342v-1.455Z" clip-rule="evenodd" style="fill:#fbb03b"/>
      </g>
    </g>
    <g id="shape-cecb00c8-e6c7-8042-8001-e0554a4aeab2" clip-path="url(#01eb2006-bdb3-80d7-8001-e05f4ced6213-clip0_330_90)" style="fill:#000">
      <defs>
        <clipPath id="01eb2006-bdb3-80d7-8001-e05f4ced6213-clip0_330_90" class="svg-def" transform="translate(-4.859 -50.74)">
          <path fill="#fff" d="M11.1 1100.74h92.987v92.987H11.1z"/>
        </clipPath>
      </defs>
      <g id="shape-cecb00c8-e6c7-8042-8001-e0554a4b502b">
        <path id="fills-cecb00c8-e6c7-8042-8001-e0554a4b502b" d="M85.61 1066.94a46.111 46.111 0 0 0-28.297-13.39 1.795 1.795 0 0 1-.889-.37 1.716 1.716 0 0 1-.539-.8 3.316 3.316 0 0 0-1.178-1.72 3.335 3.335 0 0 0-1.973-.66c-.712 0-1.404.24-1.973.66a3.316 3.316 0 0 0-1.178 1.72c-.098.31-.286.59-.539.8-.254.2-.563.33-.889.37a46.47 46.47 0 0 0-29.846 15.01 46.51 46.51 0 0 0-12.069 31.16 3.423 3.423 0 0 0 1.503 2.88c.639.41 1.401.6 2.16.52a3.375 3.375 0 0 0 2.006-.95 10.755 10.755 0 0 1 7.606-3.16c2.852 0 5.589 1.13 7.61 3.14.306.31.669.56 1.071.73.401.17.832.26 1.268.26.436.01.868-.08 1.272-.24.403-.17.771-.41 1.08-.72a13.053 13.053 0 0 1 8.231-3.75c3.104-.22 6.185.68 8.683 2.54.212.15.384.36.503.6.118.24.18.5.18.76v30.6c0 1.79-1.37 3.32-3.153 3.41-.449.03-.899-.04-1.321-.2-.423-.15-.809-.4-1.135-.71a3.34 3.34 0 0 1-.764-1.09 3.356 3.356 0 0 1-.269-1.31c0-.44-.088-.88-.258-1.29-.171-.4-.421-.77-.736-1.08a3.27 3.27 0 0 0-2.387-.95c-1.868.03-3.3 1.68-3.259 3.55a9.963 9.963 0 0 0 2.954 6.84 9.977 9.977 0 0 0 6.878 2.89c5.58.07 10.092-4.55 10.092-10.13v-30.53c0-.26.062-.52.18-.76.119-.24.291-.45.503-.6a12.964 12.964 0 0 1 16.895 1.2 3.33 3.33 0 0 0 4.695 0 10.778 10.778 0 0 1 7.616-3.16c2.856 0 5.595 1.14 7.615 3.16a3.33 3.33 0 0 0 1.942.94c.735.09 1.479-.06 2.114-.44.501-.31.913-.75 1.196-1.27.282-.51.426-1.1.417-1.68a46.206 46.206 0 0 0-13.618-32.78Z" style="fill:#fbb03b"/>
      </g>
    </g>
    <g id="shape-cecb00c8-e6c7-8042-8001-e0554a47ea14">
      <path id="fills-cecb00c8-e6c7-8042-8001-e0554a47ea14" d="M90.993 944.41c2.322 1.4 2.322 4.78 0 6.179l-72.826 43.892c-2.391 1.441-5.433-.288-5.433-3.09v-87.783c0-2.8 3.042-4.53 5.433-3.089l72.826 43.891Z" style="fill:#fbb03b"/>
    </g>
    <g id="shape-cecb00c8-e6c7-8042-8001-e0554a4aeab1">
      <path id="fills-cecb00c8-e6c7-8042-8001-e0554a4aeab1" fill-rule="evenodd" d="m52.734 838.427-6.987-6.361c-24.818-22.505-41.202-37.395-41.202-55.562C4.545 761.613 16.207 750 31.049 750c8.385 0 16.433 3.903 21.685 10.023 5.253-6.12 13.3-10.023 21.685-10.023 14.842 0 26.504 11.613 26.504 26.504 0 18.167-16.384 33.057-41.201 55.562l-6.988 6.361Zm-8.088-50.36a6.102 6.102 0 1 1-12.204 0 6.102 6.102 0 0 1 12.204 0Zm22.957 6.102a6.102 6.102 0 1 0 0-12.204 6.102 6.102 0 0 0 0 12.204Z" clip-rule="evenodd" style="fill:#fbb03b"/>
    </g>
    <g id="shape-cecb00c8-e6c7-8042-8001-e055d85aedd9">
      <g id="shape-cecb00c8-e6c7-8042-8001-e0554a4a4555">
        <path id="fills-cecb00c8-e6c7-8042-8001-e0554a4a4555" d="M17.109 603.216c2.5-4.288 8.751-4.288 11.251 0l2.994 5.135c2.501 4.289-.625 9.649-5.625 9.649H19.74c-5.001 0-8.126-5.36-5.626-9.649l2.995-5.135Z" style="fill:#fbb03b"/>
      </g>
      <g id="shape-cecb00c8-e6c7-8042-8001-e0554a4ab72e">
        <path id="fills-cecb00c8-e6c7-8042-8001-e0554a4ab72e" d="M78.109 603.216c2.5-4.288 8.751-4.288 11.251 0l2.994 5.135c2.501 4.289-.625 9.649-5.625 9.649H80.74c-5.001 0-8.126-5.36-5.626-9.649l2.995-5.135Z" style="fill:#fbb03b"/>
      </g>
      <g id="shape-cecb00c8-e6c7-8042-8001-e0554a4a4554">
        <path id="fills-cecb00c8-e6c7-8042-8001-e0554a4a4554" fill-rule="evenodd" d="M26.075 608c-9.301 0-16.841 7.54-16.841 16.841v66.417A3.743 3.743 0 0 0 12.977 695h66.416c9.301 0 16.841-7.54 16.841-16.841v-53.318c0-9.301-7.54-16.841-16.841-16.841H26.075Zm23.426 64.058c1.445 2.476 5.022 2.476 6.466 0l1.096-1.881c1.456-2.494-.344-5.627-3.232-5.627h-2.194c-2.888 0-4.688 3.133-3.232 5.627l1.096 1.881Zm18.686-7.22a2.807 2.807 0 0 1 1.027-3.834l7.382-4.263a2.808 2.808 0 0 1 2.807 4.863l-7.382 4.261a2.806 2.806 0 0 1-3.834-1.027Zm-32.196 16.308a2.806 2.806 0 1 0-2.807-4.862l-7.382 4.263a2.807 2.807 0 1 0 2.807 4.861l7.382-4.262Zm32.828-7.064a2.806 2.806 0 0 1 3.834-1.028l7.382 4.262a2.807 2.807 0 0 1-2.807 4.862l-7.382-4.262a2.807 2.807 0 0 1-1.027-3.834Zm-36.267-4.987a2.807 2.807 0 1 0 2.807-4.861l-7.382-4.262a2.807 2.807 0 0 0-2.806 4.861l7.381 4.262Zm-1.328-35.539a1.87 1.87 0 0 0-1.871 1.871v1.455c0 .777.048 1.567.008 2.342a5.981 5.981 0 1 0 11.95.091c-.007-.186.004-.375.004-.562v-3.326a1.87 1.87 0 0 0-1.871-1.871h-8.22Zm32.929 1.871a1.87 1.87 0 0 1 1.871-1.871h8.22a1.87 1.87 0 0 1 1.871 1.871v3.326c0 .187-.011.376-.004.562a5.981 5.981 0 1 1-11.95-.091c.04-.775-.008-1.565-.008-2.342v-1.455Z" clip-rule="evenodd" style="fill:#fbb03b"/>
      </g>
    </g>
    <g id="shape-cecb00c8-e6c7-8042-8001-e0554a49a0ca">
      <path id="fills-cecb00c8-e6c7-8042-8001-e0554a49a0ca" fill-rule="evenodd" d="M49.304 451.942c1.554-2.589 5.307-2.589 6.86 0l48.729 81.213c1.599 2.666-.321 6.058-3.43 6.058H4.006c-3.109 0-5.029-3.392-3.43-6.058l48.728-81.213Zm12.147 40.777a8.718 8.718 0 1 1-17.435 0 8.718 8.718 0 0 1 17.435 0Zm-22.084 21.76a2 2 0 0 1 2-2H63.52a2 2 0 0 1 2 2v8.205c0 .258-.049.504-.138.731.091.414.138.838.138 1.269 0 4.815-5.855 8.718-13.077 8.718-7.222 0-13.076-3.903-13.076-8.718 0-.431.047-.855.137-1.27a2.007 2.007 0 0 1-.137-.73v-8.205Z" clip-rule="evenodd" style="fill:#fbb03b"/>
    </g>
    <g id="shape-cecb00c8-e6c7-8042-8001-e055877aa3c7">
      <g id="shape-cecb00c8-e6c7-8042-8001-e0554a492a2b">
        <path id="fills-cecb00c8-e6c7-8042-8001-e0554a492a2b" fill="none" stroke-linecap="round" stroke-linejoin="round" d="m77.734 320-50 50" style="fill:none"/>
        <path id="strokes-cecb00c8-e6c7-8042-8001-e0554a492a2b" stroke-linecap="round" stroke-linejoin="round" d="m77.734 320-50 50" class="stroke-shape" style="fill:none;stroke-width:41;stroke:#fbb03b"/>
      </g>
      <g id="shape-cecb00c8-e6c7-8042-8001-e0554a497e94">
        <path id="fills-cecb00c8-e6c7-8042-8001-e0554a497e94" fill="none" stroke-linecap="round" stroke-linejoin="round" d="m77.734 370-50-50" style="fill:none"/>
        <path id="strokes-cecb00c8-e6c7-8042-8001-e0554a497e94" stroke-linecap="round" stroke-linejoin="round" d="m77.734 370-50-50" class="stroke-shape" style="fill:none;stroke-width:41;stroke:#fbb03b"/>
      </g>
    </g>
    <g id="shape-cecb00c8-e6c7-8042-8001-e0554a48e83e">
      <path id="fills-cecb00c8-e6c7-8042-8001-e0554a48e83e" d="m59.02 150.843-26.578 48.806a1.502 1.502 0 0 0 .045 1.516c.142.228.343.416.582.547.239.131.51.2.785.2h12.3c.233 0 .464.049.675.144.212.095.399.234.549.406.15.172.259.375.32.592.061.218.071.445.031.667l-6.763 37.459a1.49 1.49 0 0 0 .078.806c.099.257.268.484.489.657a1.634 1.634 0 0 0 1.599.235c.346-.134.633-.381.811-.698l29.074-51.727c.186-.331.241-.717.153-1.084a1.547 1.547 0 0 0-.629-.911l-.639-.454a1.661 1.661 0 0 0-.959-.287l-13.182.263a1.668 1.668 0 0 1-.683-.137 1.597 1.597 0 0 1-.557-.406 1.492 1.492 0 0 1-.357-1.27l6.214-34.037a1.488 1.488 0 0 0-.066-.782 1.55 1.55 0 0 0-.455-.651l-.355-.308a1.646 1.646 0 0 0-2.017-.08 1.558 1.558 0 0 0-.465.534Z" style="fill:#fbb03b"/>
    </g>
    <g id="shape-cecb00c8-e6c7-8042-8001-e0554a47ea15">
      <circle id="fills-cecb00c8-e6c7-8042-8001-e0554a47ea15" cx="52.734" cy="46.494" r="46.494" style="fill:#fbb03b"/>
    </g>
  </g>
</svg>
