<svg width="186" height="157" viewBox="0 0 186 157" fill="none" xmlns="http://www.w3.org/2000/svg">
<path fill-rule="evenodd" clip-rule="evenodd" d="M89.5114 1.94202C91.0651 -0.647335 94.8178 -0.647343 96.3714 1.94201L185.307 150.167C186.906 152.833 184.986 156.225 181.877 156.225H4.00618C0.896997 156.225 -1.02345 152.833 0.576207 150.167L89.5114 1.94202ZM107.941 76.2254C107.941 84.5097 101.225 91.2254 92.9408 91.2254C84.6565 91.2254 77.9408 84.5097 77.9408 76.2254C77.9408 67.9411 84.6565 61.2254 92.9408 61.2254C101.225 61.2254 107.941 67.9411 107.941 76.2254ZM69.9408 112.226C69.9408 111.121 70.8362 110.226 71.9408 110.226H112.941C114.045 110.226 114.941 111.121 114.941 112.226V129.226C114.941 129.439 114.907 129.644 114.846 129.837C114.909 130.294 114.941 130.757 114.941 131.226C114.941 139.51 104.867 146.226 92.4408 146.226C80.0144 146.226 69.9408 139.51 69.9408 131.226C69.9408 130.757 69.973 130.294 70.0359 129.837C69.9742 129.644 69.9408 129.439 69.9408 129.226V112.226Z" fill="#FBB03B"/>
</svg>
