<svg width="32" height="32" viewBox="0 0 32 32" fill="none" xmlns="http://www.w3.org/2000/svg">
<path d="M11.6854 3.42916C12.0738 2.78182 13.012 2.78182 13.4004 3.42915L19.1771 13.0569C19.577 13.7235 19.0969 14.5714 18.3196 14.5714H6.76624C5.98894 14.5714 5.50883 13.7235 5.90875 13.0569L11.6854 3.42916Z" fill="#82DBC5"/>
<path d="M15.6857 10.5429C15.6857 9.99059 16.1334 9.54288 16.6857 9.54288H26C26.5522 9.54288 27 9.99059 27 10.5429V19.8572C27 20.4094 26.5522 20.8572 26 20.8572H16.6857C16.1334 20.8572 15.6857 20.4094 15.6857 19.8572V10.5429Z" fill="#4F4F4F"/>
<circle cx="16" cy="22" r="6" fill="#EFAC35"/>
</svg>
