<svg xmlns="http://www.w3.org/2000/svg" viewBox="0 0 33 34" class="mr-1 sm:w-8 w-7"><g fill="none"><path fill="#FFF" d="M16.556,33.9840112 C9.666,33.993 3.984,28.592 3.641,21.711 L3.641,21.686 C2.38330604,21.5276246 1.35108978,20.6148613 1.04,19.386 C0.679,17.972 0.19,15.86 0.132,13.83 C0.0943730103,12.6557373 0.771608539,11.5756395 1.845,11.098 C2.899,10.625 4.402,10.238 6.297,9.945 C7.357,7.495 8.608,5.365 9.931,3.76 C11.992,1.265 14.221,0 16.556,0 C18.891,0 21.118,1.265 23.176,3.761 C24.493,5.366 25.749,7.493 26.807,9.938 C28.689,10.222 30.19,10.611 31.273,11.093 C32.3458049,11.568777 33.0234964,12.6469944 32.987,13.82 C32.929,15.861 32.441,17.974 32.08,19.385 C31.7694332,20.6162666 30.7350536,21.5307296 29.475,21.688 L29.475,21.711 C29.1224003,28.5910063 23.4390344,33.9872358 16.55,33.983 L16.555,33.9840112 L16.556,33.9840112 Z"></path><path fill="#FCFBFA" d="M16.548,2.15 C22.531,2.15 27.382,15.01 27.382,20.994 C27.382,26.978 22.532,31.829 16.547,31.829 C10.564,31.829 5.713,26.979 5.713,20.994 C5.714,15.01 10.565,2.15 16.548,2.15 Z"></path><path fill="#252526" d="M30.286,12.529 L25.866,14.088 C25.866,14.088 26.55,16.168 26.556,16.183 C26.563,16.199 30.96,15.616 30.96,15.616 L30.286,12.529 Z M2.81,12.529 L7.23,14.088 C7.23,14.088 6.547,16.168 6.54,16.183 C6.534,16.199 2.138,15.616 2.138,15.616 L2.811,12.529 L2.81,12.529 Z"></path><path fill="#E0E0E0" d="M12,12.16 C12.6891044,12.1438469 13.2841428,12.6393563 13.393,13.32 C13.533,14.072 13.626,14.833 13.67,15.598 C13.674206,15.8121531 13.6547548,16.026116 13.612,16.236 C13.5608848,15.7224979 13.4881536,15.2113778 13.394,14.704 C13.2851428,14.0233563 12.6901044,13.5278469 12.001,13.544 C10.341,13.561 8.681,13.687 7.037,13.922 C7.193,13.438 7.36,12.952 7.539,12.472 C9.0184704,12.2793603 10.5081178,12.1751751 12,12.16 L12,12.16 Z M27.362,20.513 C23.46,20.312 20.127,19.063 19.375,18.617 C18.788,18.337 18.04,17.742 17.825,16.255 C17.681,17.893 17.99,19.385 19.528,20.122 C19.641,20.19 22.585,21.647 27.336,21.897 C27.3743575,21.4367026 27.3830422,20.9744133 27.362,20.513 L27.362,20.513 Z M5.746,20.513 C9.648,20.312 12.981,19.063 13.733,18.617 C14.32,18.337 15.068,17.742 15.283,16.255 C15.427,17.893 15.118,19.385 13.58,20.122 C13.467,20.19 10.523,21.647 5.772,21.897 C5.73364246,21.4367026 5.72495783,20.9744133 5.746,20.513 Z M21.085,12.16 C20.3958956,12.1438469 19.8008572,12.6393563 19.692,13.32 C19.552,14.072 19.46,14.833 19.416,15.598 C19.411294,15.8121706 19.4307502,16.026189 19.474,16.236 C19.529,15.685 19.605,15.16 19.691,14.704 C19.800666,14.023817 20.3952023,13.5287257 21.084,13.544 C22.745,13.561 24.404,13.687 26.048,13.922 C25.8916915,13.4349199 25.7243148,12.9514614 25.546,12.472 C24.0668607,12.2794 22.5775483,12.1752149 21.086,12.16 L21.085,12.16 Z"></path><path fill="#56555C" d="M7.071,10.988 C8.135,8.408 9.411,6.175 10.761,4.531 C12.6,2.301 14.546,1.171 16.545,1.171 C18.545,1.171 20.491,2.301 22.329,4.529 C23.684,6.171 24.965,8.404 26.019,10.987 L26.071,11.119 L25.939,11.1 C25.563,11.05 25.258,11.014 24.885,10.968 L24.838,10.968 L24.82,10.926 C23.623,8.132 21.58,4.483 18.941,2.959 C18.2180927,2.51884066 17.3912212,2.2786476 16.545,2.263 C15.6991196,2.27882404 14.8726156,2.51901057 14.15,2.959 C11.517,4.481 9.48,8.113 8.273,10.922 L8.255,10.964 L8.209,10.964 C7.833,11.004 7.527,11.041 7.154,11.096 L7.023,11.115 L7.071,10.988 L7.071,10.988 Z M27.486,19.164 C27.192,19.156 26.896,19.144 26.604,19.127 L26.514,19.127 L26.502,19.036 C26.238,16.982 25.648,14.576 24.828,12.265 L24.775,12.092 L24.953,12.116 C25.288,12.161 25.612,12.211 25.928,12.264 L25.993,12.274 L26.014,12.336 C26.804,14.644 27.364,17.025 27.604,19.041 L27.619,19.173 L27.486,19.163 L27.486,19.164 Z"></path><path fill="#252526" d="M26.52,13.96 C26.360779,13.4156783 26.1897385,12.8748837 26.007,12.338 L25.987,12.276 L25.922,12.265 C25.611,12.212 25.282,12.162 24.947,12.117 L24.775,12.092 L24.835,12.262 C25.016,12.774 25.186,13.29 25.345,13.808 C25.907,13.873 26.225,13.918 26.52,13.96 L26.52,13.96 Z"></path><path fill="#56555C" d="M5.572,18.995 C5.812,16.979 6.377,14.598 7.162,12.29 L7.183,12.228 L7.248,12.216 C7.559,12.164 7.888,12.113 8.223,12.069 L8.401,12.045 L8.341,12.214 C7.523,14.525 6.929,16.929 6.668,18.984 L6.656,19.076 L6.566,19.076 C6.273,19.093 5.976,19.105 5.684,19.112 L5.552,19.112 L5.572,18.995 L5.572,18.995 Z"></path><path fill="#252526" d="M7.248,12.216 L7.183,12.226 L7.163,12.289 C6.98025357,12.8268881 6.80921322,13.3686826 6.65,13.914 C7.2,13.844 7.359,13.852 7.819,13.803 C7.981,13.276 8.155,12.739 8.346,12.213 L8.406,12.045 L8.227,12.069 C7.89999558,12.1134214 7.57363016,12.1624262 7.248,12.216 L7.248,12.216 Z"></path><path fill="#56555C" d="M16.548,32.802 C11.6950457,32.802368 7.33549873,29.8349252 5.556,25.32 C4.95803562,23.7900989 4.68162524,22.1534226 4.744,20.512 L4.744,20.438 L4.818,20.438 C5.203,20.428 5.466,20.418 5.74,20.404 L5.826,20.404 L5.826,20.489 C5.61387559,24.9551461 8.19420614,29.0844695 12.3013673,30.8515816 C16.4085284,32.6186937 21.1810255,31.6529351 24.278,28.428 C25.2593494,27.4101114 26.0276881,26.2066075 26.538,24.888 C27.082,23.488 27.325,21.99 27.254,20.491 L27.254,20.405 L27.34,20.405 C27.723,20.425 27.987,20.433 28.262,20.439 L28.336,20.439 L28.336,20.513 C28.4039497,22.1520989 28.1340233,23.7876557 27.543,25.318 C25.7675295,29.8366926 21.405984,32.8070829 16.551,32.8040024 L16.548,32.8040024 L16.548,32.802 Z"></path><path fill="#252526" d="M5.863,21.898 C5.825,21.428 5.815,20.955 5.834,20.483 L5.834,20.397 L5.748,20.397 C5.472,20.412 5.208,20.422 4.826,20.432 L4.752,20.432 L4.752,20.505 C4.736,20.979 4.746,21.453 4.784,21.925 L4.819,21.925 C5.175,21.925 5.523,21.909 5.854,21.893 L5.863,21.898 L5.863,21.898 Z M28.345,20.437 L28.271,20.437 C27.992,20.437 27.728,20.422 27.349,20.403 L27.263,20.403 L27.263,20.488 C27.283,20.956 27.273,21.424 27.236,21.89 L28.316,21.937 C28.354,21.464 28.364,20.991 28.348,20.517 L28.345,20.437 L28.345,20.437 Z"></path><path fill="#252526" d="M28.954,20.678 C26.6952475,20.6864276 24.445226,20.3972736 22.262,19.818 C21.322,19.571 20.407,19.238 19.528,18.827 L19.507,18.811 C17.662,17.929 17.594,16.161 17.766,14.549 C17.809,14.142 17.66,13.603 17.231,13.317 C16.8217025,13.0439161 16.2882975,13.0439161 15.879,13.317 C15.449,13.601 15.3,14.139 15.343,14.545 C15.515,16.158 15.443,17.926 13.603,18.808 L13.582,18.818 C12.7024943,19.2342431 11.7870861,19.5699486 10.847,19.821 C8.66377172,20.4002622 6.41375178,20.689416 4.155,20.681 L4.145,20.681 C3.20778056,20.6696199 2.39589547,20.0281608 2.168,19.119 C1.818,17.766 1.351,15.739 1.297,13.837 C1.27273427,13.0757044 1.7114252,12.3753797 2.407,12.065 C4.947,10.938 10.089,10.514 12.282,10.543 C13.047,10.537 13.782,10.841 14.32,11.385 C15.0216745,11.0561128 15.785163,10.8798969 16.56,10.868 C17.3346989,10.8792095 18.0981933,11.054745 18.8,11.383 C19.3336751,10.84257 20.0624847,10.5398004 20.822,10.543 C22.14,10.523 27.806,10.768 30.705,12.058 C31.3996549,12.3656831 31.838584,13.0636199 31.815,13.823 C31.761,15.728 31.288,17.766 30.949,19.116 C30.7211045,20.0251608 29.9092194,20.6666199 28.972,20.678 L28.954,20.678 L28.954,20.678 Z M21.098,12.244 C20.4473812,12.2295607 19.8855629,12.6966761 19.781,13.339 C19.641,14.089 19.549,14.846 19.504,15.607 C19.494,16.477 19.806,17.072 20.426,17.377 C22.75,18.413 25.45,18.925 28.681,18.941 C28.9286853,18.9397268 29.1447252,18.7724701 29.208,18.533 C29.515,17.333 29.929,15.548 29.977,13.907 C29.9821038,13.74977 29.891037,13.6052509 29.747,13.542 C27.543,12.551 22.82,12.212 21.098,12.239 L21.098,12.244 L21.098,12.244 Z M3.348,13.539 C3.20435474,13.6025589 3.11372656,13.7470099 3.119,13.904 C3.167,15.541 3.581,17.331 3.888,18.53 C3.95,18.77 4.167,18.938 4.415,18.939 C7.649,18.923 10.345,18.411 12.676,17.373 C13.298,17.07 13.609,16.473 13.599,15.6 C13.5541546,14.8398962 13.4613028,14.0833876 13.321,13.335 C13.2163861,12.692292 12.6539949,12.2250549 12.003,12.24 C11,12.224 5.845,12.427 3.349,13.54 L3.348,13.539 Z"></path></g></svg>