<svg width="107" height="1293" viewBox="0 0 107 1293" fill="none" xmlns="http://www.w3.org/2000/svg">
<path d="M59.7937 1050.84L33.1837 1099.66C33.0559 1099.89 32.9927 1100.16 33.0007 1100.42C33.0086 1100.69 33.0873 1100.95 33.2287 1101.17C33.3707 1101.4 33.5707 1101.59 33.8107 1101.72C34.0507 1101.85 34.3217 1101.92 34.5967 1101.92H46.9127C47.1457 1101.92 47.3767 1101.97 47.5877 1102.06C47.7997 1102.16 47.9877 1102.3 48.1377 1102.47C48.4427 1102.81 48.5727 1103.28 48.4887 1103.73L41.7177 1141.19C41.6687 1141.46 41.6957 1141.74 41.7957 1141.99C41.8947 1142.25 42.0647 1142.48 42.2857 1142.65C42.7407 1143.01 43.3477 1143.1 43.8867 1142.89C44.2327 1142.75 44.5207 1142.5 44.6987 1142.19L73.8087 1090.46C74.1907 1089.77 73.9837 1088.91 73.3317 1088.47L72.6917 1088.01C72.4075 1087.82 72.0734 1087.72 71.7317 1087.72L58.5337 1087.99C58.2987 1087.99 58.0637 1087.94 57.8497 1087.85C57.6335 1087.76 57.4421 1087.62 57.2917 1087.44C57.1386 1087.27 57.0267 1087.07 56.9648 1086.85C56.9029 1086.63 56.8926 1086.39 56.9347 1086.17L63.1567 1052.13C63.2047 1051.87 63.1817 1051.6 63.0897 1051.34C62.9967 1051.09 62.8397 1050.87 62.6347 1050.69L62.2787 1050.39C62.0915 1050.24 61.8762 1050.12 61.6447 1050.05C61.4084 1049.99 61.1622 1049.98 60.9217 1050.02C60.6817 1050.07 60.4547 1050.16 60.2597 1050.31C60.0657 1050.45 59.9062 1050.63 59.7937 1050.84Z" fill="#4F4F4F"/>
<path d="M5.77381 941.685L15.5578 942.167C16.1351 936.903 17.7905 931.815 20.4208 927.219C23.0441 922.636 26.5886 918.647 30.8308 915.502L25.4858 907.224C24.1968 904.913 24.8648 901.977 27.2518 900.63C29.6368 899.33 32.4528 900.1 33.7898 902.41L38.2278 911.17C43.048 909.079 48.2462 908 53.5003 908C58.7544 908 63.9526 909.079 68.7728 911.17L73.2118 902.41C74.5468 900.1 77.3628 899.33 79.7498 900.63C82.1358 901.977 82.8038 904.913 81.5158 907.224L76.1708 915.502C80.4129 918.646 83.9572 922.636 86.5798 927.219C89.2105 931.815 90.8659 936.903 91.4428 942.167L101.226 941.685C102.492 941.685 103.706 942.192 104.602 943.095C105.497 944.001 106 945.224 106 946.499C106 947.773 105.497 948.996 104.602 949.902C104.16 950.348 103.634 950.703 103.055 950.945C102.475 951.187 101.854 951.312 101.226 951.312L91.4428 950.83C90.8664 956.094 89.211 961.183 86.5798 965.778C83.9561 970.361 80.4121 974.352 76.1708 977.499L81.5158 985.769C82.8038 988.08 82.1358 991.02 79.7498 992.37C77.3628 993.67 74.5468 992.9 73.2118 990.59L68.7728 981.829C63.9522 983.919 58.754 984.998 53.4998 984.999C48.2459 984.998 43.0481 983.919 38.2278 981.829L33.7898 990.59C32.4528 992.9 29.6368 993.67 27.2518 992.37C24.8648 991.02 24.1968 988.08 25.4858 985.769L30.8308 977.499C26.589 974.352 23.0446 970.362 20.4208 965.778C17.7901 961.182 16.1347 956.094 15.5578 950.83L5.77381 951.312C5.146 951.312 4.5245 951.187 3.94521 950.945C3.36593 950.703 2.84034 950.348 2.39881 949.902C1.50264 948.996 1 947.773 1 946.499C1 945.224 1.50264 944.001 2.39881 943.095C2.84034 942.649 3.36593 942.294 3.94521 942.052C4.5245 941.81 5.146 941.685 5.77381 941.685ZM39.5158 943.37C40.1378 940.434 41.7118 937.835 43.9558 935.861L36.0328 923.636C30.0331 928.291 26.107 935.121 25.1038 942.648L39.5158 943.37ZM53.4998 932.059C55.0278 932.059 56.4598 932.3 57.7958 932.733L64.3818 919.786C60.9342 918.349 57.235 917.613 53.4998 917.62C49.6338 917.62 45.9588 918.39 42.6188 919.786L49.2048 932.733C50.5921 932.284 52.0416 932.056 53.4998 932.059ZM67.4838 943.37L81.8968 942.648C80.894 935.121 76.9678 928.291 70.9678 923.636L63.0458 935.861C65.2888 937.835 66.8638 940.434 67.4838 943.37ZM67.4838 949.627C66.8638 952.563 65.2888 955.162 63.0458 957.136L70.9678 969.361C76.9678 964.706 80.894 957.876 81.8968 950.349L67.4838 949.627ZM53.4998 960.938C52.0265 960.937 50.5621 960.71 49.1578 960.264L42.6188 973.208C46.0652 974.648 49.7645 975.386 53.4998 975.378C57.3658 975.378 61.0408 974.608 64.3818 973.208L57.8428 960.264C56.4382 960.71 54.9735 960.937 53.4998 960.938ZM39.5158 949.627L25.1038 950.349C26.1538 958.05 30.1618 964.836 36.0328 969.361L43.9558 957.136C41.7118 955.162 40.1378 952.563 39.5158 949.627Z" fill="#4F4F4F"/>
<path d="M86.379 766.938C78.7959 759.31 68.7863 754.571 58.08 753.54C57.7542 753.505 57.4455 753.377 57.1917 753.169C56.9379 752.962 56.75 752.685 56.651 752.373C56.4535 751.69 56.0395 751.09 55.4711 750.662C54.9028 750.235 54.211 750.004 53.5 750.004C52.7889 750.004 52.0971 750.235 51.5288 750.662C50.9605 751.09 50.5464 751.69 50.349 752.373C50.2506 752.686 50.0629 752.963 49.809 753.17C49.5551 753.378 49.2461 753.506 48.92 753.54C25.166 755.891 7.04898 775.848 6.99998 799.72C6.99057 800.287 7.12325 800.848 7.38594 801.351C7.64864 801.854 8.03299 802.283 8.50398 802.599C9.14204 803.017 9.90476 803.203 10.6636 803.124C11.4225 803.046 12.131 802.708 12.67 802.168C16.871 797.966 23.68 797.96 27.888 802.155C28.1936 802.466 28.5576 802.713 28.9591 802.883C29.3606 803.053 29.7916 803.142 30.2275 803.145C30.6635 803.148 31.0956 803.064 31.4993 802.9C31.903 802.735 32.2702 802.493 32.58 802.186C34.7859 799.99 37.7071 798.659 40.8118 798.435C43.9165 798.212 46.9982 799.111 49.496 800.968C49.925 801.291 50.178 801.798 50.179 802.336V832.939C50.179 834.725 48.808 836.261 47.025 836.353C46.5754 836.376 46.1259 836.307 45.704 836.15C45.2813 835.994 44.8948 835.754 44.5683 835.443C44.2418 835.133 43.982 834.759 43.805 834.345C43.6277 833.931 43.5361 833.485 43.536 833.035C43.5356 832.594 43.4475 832.157 43.2767 831.75C43.1058 831.344 42.8557 830.975 42.5409 830.666C42.2261 830.357 41.8529 830.113 41.4431 829.95C41.0333 829.787 40.5951 829.706 40.154 829.714C38.286 829.747 36.854 831.397 36.895 833.263C36.957 835.842 38.0159 838.298 39.8493 840.113C41.6827 841.929 44.1481 842.963 46.728 843C52.309 843.07 56.821 838.447 56.821 832.867V802.336C56.821 801.798 57.074 801.291 57.505 800.968C59.9993 799.114 63.0757 798.215 66.176 798.435C69.2762 798.655 72.1948 799.98 74.402 802.168C75.025 802.79 75.8692 803.139 76.7495 803.139C77.6297 803.139 78.474 802.79 79.097 802.168C83.305 797.964 90.122 797.964 94.33 802.168C94.8536 802.692 95.5372 803.025 96.272 803.116C97.0068 803.206 97.7509 803.049 98.386 802.668C98.887 802.358 99.299 801.923 99.5819 801.406C99.8648 800.889 100.009 800.307 100 799.718C100.003 793.626 98.8005 787.594 96.4628 781.968C94.1252 776.342 90.6982 771.234 86.379 766.938Z" fill="#4F4F4F"/>
<path fill-rule="evenodd" clip-rule="evenodd" d="M53.5 693C79.181 693 100 672.181 100 646.5C100 620.819 79.181 600 53.5 600C27.819 600 7 620.819 7 646.5C7 672.181 27.819 693 53.5 693ZM62.118 668.656C62.118 669.717 61.6966 670.734 60.9464 671.484C60.1963 672.235 59.1789 672.656 58.118 672.656H48.883C47.8221 672.656 46.8047 672.235 46.0546 671.484C45.3044 670.734 44.883 669.717 44.883 668.656V662.471H44.918C45.1143 660.331 46.1033 658.341 47.691 656.892C49.2788 655.443 51.3506 654.64 53.5 654.64C55.6494 654.64 57.7212 655.443 59.309 656.892C60.8967 658.341 61.8857 660.331 62.082 662.471H62.118V668.656ZM65.124 641.999C65.124 641.408 65.2404 640.823 65.4666 640.277C65.6928 639.731 66.0244 639.235 66.4424 638.817C66.8603 638.399 67.3565 638.067 67.9026 637.841C68.4487 637.615 69.034 637.499 69.625 637.499H79.224C80.4176 637.499 81.5623 637.973 82.4063 638.817C83.2503 639.661 83.7245 640.806 83.7245 642C83.7245 643.193 83.2503 644.338 82.4063 645.182C81.5623 646.026 80.4176 646.5 79.224 646.5H69.625C69.0339 646.5 68.4485 646.384 67.9024 646.158C67.3562 645.932 66.86 645.6 66.442 645.182C66.024 644.764 65.6925 644.268 65.4664 643.722C65.2402 643.175 65.1239 642.59 65.124 641.999ZM32.865 650.569C35.1004 650.569 37.2442 649.681 38.8248 648.1C40.4055 646.52 41.2935 644.376 41.2935 642.141C41.2935 639.905 40.4055 637.761 38.8248 636.181C37.2442 634.6 35.1004 633.712 32.865 633.712C30.6296 633.712 28.4858 634.6 26.9052 636.181C25.3245 637.761 24.4365 639.905 24.4365 642.141C24.4365 644.376 25.3245 646.52 26.9052 648.1C28.4858 649.681 30.6296 650.569 32.865 650.569Z" fill="#4F4F4F"/>
<path d="M86.5 450L20.5 516" stroke="#4F4F4F" stroke-width="41" stroke-linecap="round" stroke-linejoin="round"/>
<path d="M86.5 517L20.5 451" stroke="#4F4F4F" stroke-width="41" stroke-linecap="round" stroke-linejoin="round"/>
<path d="M81.4 374.401V388.35C81.3997 389.583 80.9097 390.766 80.0378 391.638C79.1658 392.51 77.9832 393 76.75 393H30.25C29.0168 393 27.8342 392.51 26.9622 391.638C26.0903 390.766 25.6003 389.583 25.6 388.35V374.401H11.65C10.4167 374.401 9.23391 373.911 8.36189 373.038C7.48988 372.166 7 370.983 7 369.75V346.5C7 320.819 27.818 300 53.5 300C79.182 300 100 320.819 100 346.5V369.75C99.9997 370.983 99.5098 372.166 98.6378 373.038C97.7659 373.91 96.5833 374.4 95.35 374.401H81.4ZM32.575 355.8C33.491 355.8 34.3982 355.62 35.2445 355.27C36.0908 354.919 36.8596 354.405 37.507 353.757C38.1549 353.11 38.6688 352.341 39.0195 351.495C39.3701 350.648 39.5506 349.741 39.5506 348.826C39.5506 347.91 39.3701 347.003 39.0195 346.156C38.6688 345.31 38.1549 344.541 37.507 343.894C36.8595 343.246 36.0907 342.732 35.2444 342.381C34.3981 342.031 33.4911 341.85 32.575 341.85C30.7456 341.881 29.0015 342.629 27.7188 343.934C26.436 345.239 25.7171 346.995 25.7171 348.825C25.7171 350.655 26.436 352.411 27.7188 353.716C29.0015 355.021 30.7456 355.769 32.575 355.8ZM74.425 355.8C75.8044 355.799 77.1526 355.39 78.2996 354.624C79.4466 353.858 80.341 352.769 80.87 351.495C81.3967 350.22 81.534 348.818 81.2648 347.465C80.9955 346.113 80.3317 344.87 79.357 343.894C78.546 343.083 77.5474 342.484 76.4497 342.151C75.352 341.818 74.1891 341.76 73.0639 341.984C71.9388 342.208 70.8862 342.705 69.9994 343.433C69.1125 344.161 68.4189 345.096 67.9799 346.156C67.5408 347.215 67.37 348.367 67.4825 349.509C67.5949 350.65 67.9872 351.747 68.6246 352.701C69.262 353.654 70.1248 354.436 71.1366 354.977C72.1483 355.517 73.2778 355.8 74.425 355.8Z" fill="#4F4F4F"/>
<path d="M50.0849 151.938C51.6319 149.354 55.3679 149.354 56.9149 151.938L78.5589 188.086L105.426 232.956C107.019 235.616 105.107 239 102.011 239H4.98888C1.89288 239 -0.0191185 235.616 1.57388 232.956L50.0849 151.938Z" fill="#4F4F4F"/>
<path fill-rule="evenodd" clip-rule="evenodd" d="M11.001 1199C10.4755 1199 9.95521 1199.1 9.46973 1199.3C8.98425 1199.51 8.54313 1199.8 8.17157 1200.17C7.80002 1200.54 7.50531 1200.98 7.30429 1201.47C7.10327 1201.96 6.99987 1202.48 7 1203V1288C6.99987 1288.52 7.10327 1289.04 7.30429 1289.53C7.50531 1290.02 7.80002 1290.46 8.17157 1290.83C8.54313 1291.2 8.98425 1291.49 9.46973 1291.7C9.95521 1291.9 10.4755 1292 11.001 1292H95.999C96.5245 1292 97.0448 1291.9 97.5303 1291.7C98.0158 1291.49 98.4569 1291.2 98.8284 1290.83C99.2 1290.46 99.4947 1290.02 99.6957 1289.53C99.8967 1289.04 100 1288.52 100 1288V1203C100 1202.48 99.8967 1201.96 99.6957 1201.47C99.4947 1200.98 99.2 1200.54 98.8284 1200.17C98.4569 1199.8 98.0158 1199.51 97.5303 1199.3C97.0448 1199.1 96.5245 1199 95.999 1199H11.001ZM25.531 1270.63C24.47 1270.63 23.4525 1271.05 22.7022 1271.8C21.952 1272.55 21.5305 1273.57 21.5305 1274.63C21.5305 1275.69 21.952 1276.71 22.7022 1277.46C23.4525 1278.21 24.47 1278.63 25.531 1278.63H82.05C83.111 1278.63 84.1285 1278.21 84.8788 1277.46C85.629 1276.71 86.0505 1275.69 86.0505 1274.63C86.0505 1273.57 85.629 1272.55 84.8788 1271.8C84.1285 1271.05 83.111 1270.63 82.05 1270.63H25.531ZM41.293 1245.5C41.293 1250.96 36.87 1255.38 31.412 1255.38C25.955 1255.38 21.531 1250.96 21.531 1245.5C21.531 1240.04 25.955 1235.62 31.412 1235.62C32.7096 1235.62 33.9946 1235.87 35.1935 1236.37C36.3923 1236.87 37.4817 1237.6 38.3992 1238.51C39.3168 1239.43 40.0446 1240.52 40.5411 1241.72C41.0376 1242.92 41.2931 1244.2 41.293 1245.5ZM76.169 1255.38C81.626 1255.38 86.05 1250.96 86.05 1245.5C86.05 1240.04 81.626 1235.62 76.169 1235.62C74.8714 1235.62 73.5864 1235.87 72.3876 1236.37C71.1887 1236.87 70.0993 1237.6 69.1818 1238.51C68.2642 1239.43 67.5364 1240.52 67.0399 1241.72C66.5434 1242.92 66.2879 1244.2 66.288 1245.5C66.288 1250.96 70.711 1255.38 76.169 1255.38Z" fill="#4F4F4F"/>
<rect x="7" y="1" width="92.9879" height="92.9879" rx="4" fill="#4F4F4F"/>
</svg>
