<svg width="106" height="1893" viewBox="0 0 106 1893" fill="none" xmlns="http://www.w3.org/2000/svg">
<g clip-path="url(#clip0_752_226)">
<path d="M78 1670L28 1720" stroke="#FF7BAC" stroke-width="41" stroke-linecap="round" stroke-linejoin="round"/>
<path d="M78 1720L28 1670" stroke="#FF7BAC" stroke-width="41" stroke-linecap="round" stroke-linejoin="round"/>
<path d="M91.259 1547.41C93.581 1548.81 93.581 1552.19 91.259 1553.59L18.433 1597.48C16.042 1598.92 13 1597.19 13 1594.39V1506.61C13 1503.81 16.042 1502.08 18.433 1503.52L91.259 1547.41Z" fill="#FF7BAC"/>
<path fill-rule="evenodd" clip-rule="evenodd" d="M52.7339 1438.43L45.7469 1432.07C20.9289 1409.56 4.54492 1394.67 4.54492 1376.5C4.54492 1361.61 16.2069 1350 31.0489 1350C39.4339 1350 47.4819 1353.9 52.7339 1360.02C57.9869 1353.9 66.0339 1350 74.4189 1350C89.2609 1350 100.923 1361.61 100.923 1376.5C100.923 1394.67 84.5389 1409.56 59.7219 1432.07L52.7339 1438.43ZM44.6459 1388.07C44.6459 1389.69 44.003 1391.24 42.8587 1392.38C41.7143 1393.53 40.1623 1394.17 38.5439 1394.17C36.9256 1394.17 35.3735 1393.53 34.2292 1392.38C33.0848 1391.24 32.4419 1389.69 32.4419 1388.07C32.4419 1386.45 33.0848 1384.9 34.2292 1383.75C35.3735 1382.61 36.9256 1381.96 38.5439 1381.96C40.1623 1381.96 41.7143 1382.61 42.8587 1383.75C44.003 1384.9 44.6459 1386.45 44.6459 1388.07ZM67.6029 1394.17C69.2213 1394.17 70.7733 1393.53 71.9177 1392.38C73.062 1391.24 73.7049 1389.69 73.7049 1388.07C73.7049 1386.45 73.062 1384.9 71.9177 1383.75C70.7733 1382.61 69.2213 1381.96 67.6029 1381.96C65.9846 1381.96 64.4325 1382.61 63.2882 1383.75C62.1438 1384.9 61.5009 1386.45 61.5009 1388.07C61.5009 1389.69 62.1438 1391.24 63.2882 1392.38C64.4325 1393.53 65.9846 1394.17 67.6029 1394.17Z" fill="#FF7BAC"/>
<path d="M17.1088 1203.22C19.6088 1198.93 25.8598 1198.93 28.3598 1203.22L31.3538 1208.35C33.8548 1212.64 30.7288 1218 25.7288 1218H19.7398C14.7388 1218 11.6138 1212.64 14.1138 1208.35L17.1088 1203.22Z" fill="#FF7BAC"/>
<path d="M78.1088 1203.22C80.6088 1198.93 86.8598 1198.93 89.3598 1203.22L92.3538 1208.35C94.8548 1212.64 91.7288 1218 86.7288 1218H80.7398C75.7388 1218 72.6138 1212.64 75.1138 1208.35L78.1088 1203.22Z" fill="#FF7BAC"/>
<path fill-rule="evenodd" clip-rule="evenodd" d="M26.0749 1208C16.7739 1208 9.23389 1215.54 9.23389 1224.84V1291.26C9.23415 1292.25 9.62862 1293.2 10.3305 1293.9C11.0325 1294.61 11.9844 1295 12.9769 1295H79.3929C88.6939 1295 96.2339 1287.46 96.2339 1278.16V1224.84C96.2339 1215.54 88.6939 1208 79.3929 1208H26.0749ZM49.5009 1272.06C50.9459 1274.53 54.5229 1274.53 55.9669 1272.06L57.0629 1270.18C58.5189 1267.68 56.7189 1264.55 53.8309 1264.55H51.6369C48.7489 1264.55 46.9489 1267.68 48.4049 1270.18L49.5009 1272.06ZM68.1869 1264.84C67.8148 1264.19 67.7139 1263.43 67.9065 1262.71C68.0991 1261.99 68.5693 1261.38 69.2139 1261L76.5959 1256.74C77.2397 1256.39 77.9974 1256.3 78.7059 1256.49C79.4144 1256.69 80.0173 1257.16 80.385 1257.8C80.7527 1258.43 80.8558 1259.19 80.6721 1259.9C80.4885 1260.61 80.0327 1261.22 79.4029 1261.6L72.0209 1265.86C71.7017 1266.05 71.3494 1266.17 70.9839 1266.22C70.6185 1266.27 70.2472 1266.24 69.8911 1266.15C69.5351 1266.05 69.2013 1265.89 68.9089 1265.66C68.6165 1265.44 68.3711 1265.16 68.1869 1264.84ZM35.9909 1281.15C36.3101 1280.96 36.5899 1280.72 36.8144 1280.42C37.0388 1280.13 37.2034 1279.8 37.2988 1279.44C37.3942 1279.09 37.4185 1278.71 37.3704 1278.35C37.3223 1277.98 37.2027 1277.63 37.0184 1277.31C36.8341 1276.99 36.5887 1276.71 36.2962 1276.49C36.0038 1276.26 35.67 1276.1 35.3139 1276C34.5948 1275.81 33.8286 1275.91 33.1839 1276.28L25.8019 1280.55C25.4763 1280.73 25.19 1280.97 24.9597 1281.26C24.7293 1281.56 24.5596 1281.89 24.4603 1282.25C24.3609 1282.61 24.3341 1282.99 24.3812 1283.36C24.4283 1283.73 24.5486 1284.08 24.7348 1284.4C24.9211 1284.73 25.1697 1285.01 25.4661 1285.23C25.7626 1285.46 26.101 1285.62 26.4615 1285.72C26.8221 1285.81 27.1977 1285.83 27.5663 1285.78C27.935 1285.73 28.2894 1285.6 28.6089 1285.41L35.9909 1281.15ZM68.8189 1274.08C69.0031 1273.76 69.2483 1273.48 69.5407 1273.26C69.8331 1273.03 70.1668 1272.87 70.5229 1272.77C70.8789 1272.68 71.2503 1272.65 71.6158 1272.7C71.9813 1272.75 72.3337 1272.87 72.6529 1273.05L80.0349 1277.32C80.3541 1277.5 80.6339 1277.75 80.8584 1278.04C81.0828 1278.33 81.2474 1278.66 81.3428 1279.02C81.4382 1279.38 81.4625 1279.75 81.4144 1280.11C81.3663 1280.48 81.2467 1280.83 81.0624 1281.15C80.8781 1281.47 80.6327 1281.75 80.3402 1281.97C80.0478 1282.2 79.714 1282.36 79.3579 1282.46C78.6388 1282.65 77.8726 1282.55 77.2279 1282.18L69.8459 1277.92C69.2014 1277.54 68.7311 1276.93 68.5385 1276.21C68.3459 1275.49 68.4468 1274.73 68.8189 1274.08ZM32.5519 1269.09C32.8714 1269.29 33.2258 1269.41 33.5944 1269.47C33.9631 1269.52 34.3387 1269.5 34.6992 1269.4C35.0598 1269.31 35.3982 1269.15 35.6946 1268.92C35.9911 1268.7 36.2397 1268.41 36.426 1268.09C36.6122 1267.77 36.7324 1267.41 36.7796 1267.04C36.8267 1266.67 36.7998 1266.3 36.7005 1265.94C36.6012 1265.58 36.4314 1265.24 36.2011 1264.95C35.9707 1264.66 35.6845 1264.41 35.3589 1264.23L27.9769 1259.97C27.3334 1259.62 26.577 1259.53 25.8699 1259.73C25.1628 1259.93 24.5612 1260.39 24.1942 1261.03C23.8271 1261.66 23.7238 1262.42 23.9064 1263.13C24.089 1263.84 24.5429 1264.45 25.1709 1264.83L32.5519 1269.09ZM31.2239 1233.56C30.9781 1233.56 30.7348 1233.6 30.5077 1233.7C30.2807 1233.79 30.0744 1233.93 29.9006 1234.1C29.7268 1234.28 29.589 1234.48 29.495 1234.71C29.4011 1234.94 29.3528 1235.18 29.3529 1235.43V1236.88C29.3529 1237.66 29.4009 1238.45 29.3609 1239.22C29.3191 1240.03 29.4411 1240.84 29.7196 1241.6C29.998 1242.35 30.4271 1243.05 30.981 1243.64C31.5349 1244.22 32.2021 1244.69 32.9424 1245.02C33.6827 1245.34 34.4807 1245.51 35.2883 1245.51C36.096 1245.52 36.8965 1245.36 37.6416 1245.05C38.3867 1244.74 39.061 1244.28 39.6238 1243.7C40.1866 1243.12 40.6262 1242.43 40.9161 1241.68C41.2061 1240.93 41.3404 1240.12 41.3109 1239.31C41.3039 1239.13 41.3149 1238.94 41.3149 1238.75V1235.43C41.315 1235.18 41.2667 1234.94 41.1727 1234.71C41.0788 1234.48 40.9409 1234.28 40.7672 1234.1C40.5934 1233.93 40.3871 1233.79 40.16 1233.7C39.933 1233.6 39.6896 1233.56 39.4439 1233.56H31.2239ZM64.1529 1235.43C64.1528 1235.18 64.2011 1234.94 64.295 1234.71C64.389 1234.48 64.5268 1234.28 64.7006 1234.1C64.8744 1233.93 65.0807 1233.79 65.3077 1233.7C65.5348 1233.6 65.7781 1233.56 66.0239 1233.56H74.2439C74.4896 1233.56 74.733 1233.6 74.96 1233.7C75.1871 1233.79 75.3934 1233.93 75.5672 1234.1C75.7409 1234.28 75.8788 1234.48 75.9727 1234.71C76.0667 1234.94 76.115 1235.18 76.1149 1235.43V1238.75C76.1149 1238.94 76.1039 1239.13 76.1109 1239.31C76.1404 1240.12 76.0061 1240.93 75.7161 1241.68C75.4262 1242.43 74.9866 1243.12 74.4238 1243.7C73.861 1244.28 73.1867 1244.74 72.4416 1245.05C71.6965 1245.36 70.896 1245.52 70.0883 1245.51C69.2807 1245.51 68.4827 1245.34 67.7424 1245.02C67.0021 1244.69 66.3349 1244.22 65.781 1243.64C65.2271 1243.05 64.798 1242.35 64.5196 1241.6C64.2411 1240.84 64.1191 1240.03 64.1609 1239.22C64.2009 1238.45 64.1529 1237.66 64.1529 1236.88V1235.43Z" fill="#FF7BAC"/>
<mask id="mask0_752_226" style="mask-type:luminance" maskUnits="userSpaceOnUse" x="6" y="1050" width="94" height="93">
<path d="M6.24072 1050H99.2277V1142.99H6.24072V1050Z" fill="white"/>
</mask>
<g mask="url(#mask0_752_226)">
<path d="M85.6096 1066.94C78.0273 1059.31 68.0178 1054.58 57.3126 1053.55C56.9881 1053.51 56.6807 1053.38 56.4236 1053.18C56.1711 1052.97 55.984 1052.69 55.8846 1052.38C55.687 1051.69 55.2739 1051.09 54.7066 1050.66C54.1361 1050.24 53.4448 1050 52.7336 1050C52.0216 1050 51.3296 1050.24 50.7606 1050.66C50.1932 1051.09 49.7801 1051.69 49.5826 1052.38C49.4846 1052.69 49.2966 1052.97 49.0436 1053.18C48.7896 1053.38 48.4806 1053.51 48.1546 1053.55C36.6892 1054.68 26.0526 1060.03 18.3086 1068.56C10.5644 1077.09 6.26362 1088.2 6.23957 1099.72C6.23195 1100.29 6.3653 1100.85 6.62765 1101.35C6.88999 1101.85 7.2731 1102.28 7.74257 1102.6C8.38157 1103.01 9.14357 1103.2 9.90257 1103.12C10.6592 1103.04 11.3661 1102.7 11.9086 1102.17C12.9066 1101.17 14.092 1100.38 15.3971 1099.83C16.7022 1099.29 18.1013 1099.01 19.5146 1099.01C22.3666 1099.01 25.1036 1100.14 27.1246 1102.15C27.4306 1102.46 27.7936 1102.71 28.1956 1102.88C28.5966 1103.05 29.0276 1103.14 29.4636 1103.14C29.8996 1103.15 30.3316 1103.06 30.7356 1102.9C31.1386 1102.73 31.5066 1102.49 31.8156 1102.18C34.0246 1099.99 36.9437 1098.66 40.0466 1098.43C43.1506 1098.21 46.2316 1099.11 48.7296 1100.97C48.9416 1101.12 49.1136 1101.33 49.2326 1101.57C49.3506 1101.81 49.4126 1102.07 49.4126 1102.33V1132.93C49.4126 1134.72 48.0426 1136.25 46.2596 1136.34C45.8106 1136.37 45.3606 1136.3 44.9386 1136.14C44.5156 1135.99 44.1296 1135.74 43.8036 1135.43C43.4783 1135.12 43.2185 1134.75 43.0396 1134.34C42.8629 1133.93 42.7714 1133.48 42.7706 1133.03C42.7706 1132.59 42.6826 1132.15 42.5126 1131.74C42.3416 1131.34 42.0916 1130.97 41.7766 1130.66C41.4634 1130.35 41.0905 1130.1 40.6803 1129.94C40.27 1129.78 39.831 1129.7 39.3896 1129.71C37.5216 1129.74 36.0896 1131.39 36.1306 1133.26C36.1936 1135.84 37.2523 1138.29 39.0846 1140.1C40.9172 1141.92 43.3824 1142.95 45.9626 1142.99C51.5426 1143.06 56.0546 1138.44 56.0546 1132.86V1102.33C56.0546 1102.07 56.1166 1101.81 56.2346 1101.57C56.3536 1101.33 56.5256 1101.12 56.7376 1100.97C59.2296 1099.11 62.3068 1098.21 65.4081 1098.43C68.5095 1098.65 71.4283 1099.98 73.6326 1102.17C74.2565 1102.79 75.1004 1103.14 75.9801 1103.14C76.8597 1103.14 77.7037 1102.79 78.3276 1102.17C80.347 1100.15 83.0864 1099.01 85.9436 1099.01C88.7996 1099.01 91.5386 1100.15 93.5586 1102.17C94.0836 1102.69 94.7669 1103.02 95.5006 1103.11C96.2356 1103.2 96.9796 1103.05 97.6146 1102.67C98.1156 1102.36 98.5276 1101.92 98.8106 1101.4C99.0926 1100.89 99.2366 1100.3 99.2276 1099.72C99.2306 1093.63 98.029 1087.6 95.6919 1081.97C93.3548 1076.34 89.9283 1071.24 85.6096 1066.94Z" fill="#FF7BAC"/>
</g>
<path d="M90.9929 944.41C93.3149 945.81 93.3149 949.19 90.9929 950.589L18.1669 994.481C15.7759 995.922 12.7339 994.193 12.7339 991.391V903.608C12.7339 900.808 15.7759 899.078 18.1669 900.519L90.9929 944.41Z" fill="#FF7BAC"/>
<path fill-rule="evenodd" clip-rule="evenodd" d="M52.7339 838.427L45.7469 832.066C20.9289 809.561 4.54492 794.671 4.54492 776.504C4.54492 761.613 16.2069 750 31.0489 750C39.4339 750 47.4819 753.903 52.7339 760.023C57.9869 753.903 66.0339 750 74.4189 750C89.2609 750 100.923 761.613 100.923 776.504C100.923 794.671 84.5389 809.561 59.7219 832.066L52.7339 838.427ZM44.6459 788.067C44.6459 789.685 44.003 791.237 42.8587 792.382C41.7143 793.526 40.1623 794.169 38.5439 794.169C36.9256 794.169 35.3735 793.526 34.2292 792.382C33.0848 791.237 32.4419 789.685 32.4419 788.067C32.4419 786.449 33.0848 784.897 34.2292 783.752C35.3735 782.608 36.9256 781.965 38.5439 781.965C40.1623 781.965 41.7143 782.608 42.8587 783.752C44.003 784.897 44.6459 786.449 44.6459 788.067ZM67.6029 794.169C69.2213 794.169 70.7733 793.526 71.9177 792.382C73.062 791.237 73.7049 789.685 73.7049 788.067C73.7049 786.449 73.062 784.897 71.9177 783.752C70.7733 782.608 69.2213 781.965 67.6029 781.965C65.9846 781.965 64.4325 782.608 63.2882 783.752C62.1438 784.897 61.5009 786.449 61.5009 788.067C61.5009 789.685 62.1438 791.237 63.2882 792.382C64.4325 793.526 65.9846 794.169 67.6029 794.169Z" fill="#FF7BAC"/>
<path d="M17.1088 603.216C19.6088 598.928 25.8598 598.928 28.3598 603.216L31.3538 608.351C33.8548 612.64 30.7288 618 25.7288 618H19.7398C14.7388 618 11.6138 612.64 14.1138 608.351L17.1088 603.216Z" fill="#FF7BAC"/>
<path d="M78.1088 603.216C80.6088 598.928 86.8598 598.928 89.3598 603.216L92.3538 608.351C94.8548 612.64 91.7288 618 86.7288 618H80.7398C75.7388 618 72.6138 612.64 75.1138 608.351L78.1088 603.216Z" fill="#FF7BAC"/>
<path fill-rule="evenodd" clip-rule="evenodd" d="M26.0749 608C16.7739 608 9.23389 615.54 9.23389 624.841V691.258C9.23415 692.251 9.62862 693.202 10.3305 693.904C11.0325 694.606 11.9844 695 12.9769 695H79.3929C88.6939 695 96.2339 687.46 96.2339 678.159V624.841C96.2339 615.54 88.6939 608 79.3929 608H26.0749ZM49.5009 672.058C50.9459 674.534 54.5229 674.534 55.9669 672.058L57.0629 670.177C58.5189 667.683 56.7189 664.55 53.8309 664.55H51.6369C48.7489 664.55 46.9489 667.683 48.4049 670.177L49.5009 672.058ZM68.1869 664.838C67.8148 664.193 67.7139 663.427 67.9065 662.708C68.0991 661.989 68.5693 661.376 69.2139 661.004L76.5959 656.741C77.2397 656.386 77.9974 656.297 78.7059 656.494C79.4144 656.691 80.0173 657.159 80.385 657.795C80.7527 658.432 80.8558 659.188 80.6721 659.9C80.4885 660.613 80.0327 661.224 79.4029 661.604L72.0209 665.865C71.7017 666.049 71.3494 666.169 70.9839 666.217C70.6185 666.265 70.2472 666.241 69.8911 666.146C69.5351 666.05 69.2013 665.886 68.9089 665.661C68.6165 665.437 68.3711 665.157 68.1869 664.838ZM35.9909 681.146C36.3101 680.962 36.5899 680.716 36.8144 680.424C37.0388 680.131 37.2034 679.798 37.2988 679.442C37.3942 679.085 37.4185 678.714 37.3704 678.349C37.3223 677.983 37.2027 677.631 37.0184 677.312C36.8341 676.992 36.5887 676.712 36.2962 676.488C36.0038 676.264 35.67 676.099 35.3139 676.004C34.9579 675.908 34.5865 675.884 34.221 675.932C33.8555 675.98 33.5031 676.1 33.1839 676.284L25.8019 680.547C25.4763 680.728 25.19 680.972 24.9597 681.265C24.7293 681.557 24.5596 681.893 24.4603 682.252C24.3609 682.611 24.3341 682.986 24.3812 683.356C24.4283 683.725 24.5486 684.082 24.7348 684.404C24.9211 684.727 25.1697 685.009 25.4661 685.234C25.7626 685.46 26.101 685.624 26.4615 685.718C26.8221 685.811 27.1977 685.832 27.5663 685.779C27.935 685.726 28.2894 685.6 28.6089 685.408L35.9909 681.146ZM68.8189 674.082C69.0031 673.763 69.2483 673.483 69.5407 673.258C69.8331 673.034 70.1668 672.869 70.5229 672.774C70.8789 672.678 71.2503 672.654 71.6158 672.702C71.9813 672.75 72.3337 672.87 72.6529 673.054L80.0349 677.316C80.6796 677.688 81.1501 678.301 81.3428 679.02C81.5355 679.74 81.4346 680.506 81.0624 681.151C80.6902 681.795 80.077 682.266 79.3579 682.458C78.6388 682.651 77.8726 682.55 77.2279 682.178L69.8459 677.916C69.2014 677.544 68.7311 676.931 68.5385 676.212C68.3459 675.493 68.4468 674.727 68.8189 674.082ZM32.5519 669.095C32.8714 669.286 33.2258 669.413 33.5944 669.466C33.9631 669.519 34.3387 669.498 34.6992 669.405C35.0598 669.311 35.3982 669.147 35.6946 668.922C35.9911 668.696 36.2397 668.414 36.426 668.091C36.6122 667.769 36.7324 667.412 36.7796 667.043C36.8267 666.673 36.7998 666.298 36.7005 665.939C36.6012 665.58 36.4314 665.244 36.2011 664.952C35.9707 664.659 35.6845 664.415 35.3589 664.234L27.9769 659.972C27.3334 659.618 26.577 659.531 25.8699 659.729C25.1628 659.926 24.5612 660.393 24.1942 661.029C23.8271 661.665 23.7238 662.419 23.9064 663.13C24.089 663.841 24.5429 664.453 25.1709 664.833L32.5519 669.095ZM31.2239 633.556C30.9781 633.556 30.7348 633.604 30.5077 633.698C30.2807 633.792 30.0744 633.93 29.9006 634.104C29.7268 634.277 29.589 634.484 29.495 634.711C29.4011 634.938 29.3528 635.181 29.3529 635.427V636.882C29.3529 637.659 29.4009 638.449 29.3609 639.224C29.3191 640.031 29.4411 640.837 29.7196 641.595C29.998 642.354 30.4271 643.047 30.981 643.635C31.5349 644.223 32.2021 644.693 32.9424 645.016C33.6827 645.338 34.4807 645.508 35.2883 645.514C36.096 645.52 36.8965 645.363 37.6416 645.051C38.3867 644.74 39.061 644.28 39.6238 643.701C40.1866 643.122 40.6262 642.434 40.9161 641.681C41.2061 640.927 41.3404 640.122 41.3109 639.315C41.3039 639.129 41.3149 638.94 41.3149 638.753V635.427C41.315 635.181 41.2667 634.938 41.1727 634.711C41.0788 634.484 40.9409 634.277 40.7672 634.104C40.5934 633.93 40.3871 633.792 40.16 633.698C39.933 633.604 39.6896 633.556 39.4439 633.556H31.2239ZM64.1529 635.427C64.1528 635.181 64.2011 634.938 64.295 634.711C64.389 634.484 64.5268 634.277 64.7006 634.104C64.8744 633.93 65.0807 633.792 65.3077 633.698C65.5348 633.604 65.7781 633.556 66.0239 633.556H74.2439C74.4896 633.556 74.733 633.604 74.96 633.698C75.1871 633.792 75.3934 633.93 75.5672 634.104C75.7409 634.277 75.8788 634.484 75.9727 634.711C76.0667 634.938 76.115 635.181 76.1149 635.427V638.753C76.1149 638.94 76.1039 639.129 76.1109 639.315C76.1404 640.122 76.0061 640.927 75.7161 641.681C75.4262 642.434 74.9866 643.122 74.4238 643.701C73.861 644.28 73.1867 644.74 72.4416 645.051C71.6965 645.363 70.896 645.52 70.0883 645.514C69.2807 645.508 68.4827 645.338 67.7424 645.016C67.0021 644.693 66.3349 644.223 65.781 643.635C65.2271 643.047 64.798 642.354 64.5196 641.595C64.2411 640.837 64.1191 640.031 64.1609 639.224C64.2009 638.449 64.1529 637.659 64.1529 636.882V635.427Z" fill="#FF7BAC"/>
<path fill-rule="evenodd" clip-rule="evenodd" d="M49.3039 451.942C50.8579 449.353 54.6109 449.353 56.1639 451.942L104.893 533.155C106.492 535.821 104.572 539.213 101.463 539.213H4.0059C0.8969 539.213 -1.0231 535.821 0.5759 533.155L49.3039 451.942ZM61.4509 492.719C61.4632 493.872 61.2469 495.015 60.8143 496.084C60.3818 497.152 59.7416 498.124 58.9309 498.944C58.1202 499.763 57.155 500.414 56.0912 500.858C55.0274 501.302 53.8861 501.53 52.7334 501.53C51.5807 501.53 50.4394 501.302 49.3756 500.858C48.3118 500.414 47.3466 499.763 46.5359 498.944C45.7252 498.124 45.085 497.152 44.6525 496.084C44.2199 495.015 44.0036 493.872 44.0159 492.719C44.0405 490.423 44.9698 488.23 46.6019 486.615C48.2341 485 50.4374 484.094 52.7334 484.094C55.0294 484.094 57.2327 485 58.8649 486.615C60.497 488.23 61.4263 490.423 61.4509 492.719ZM39.3669 514.479C39.3669 513.949 39.5776 513.44 39.9527 513.065C40.3278 512.69 40.8365 512.479 41.3669 512.479H63.5199C63.7825 512.479 64.0426 512.531 64.2853 512.631C64.5279 512.732 64.7484 512.879 64.9341 513.065C65.1198 513.25 65.2672 513.471 65.3677 513.714C65.4682 513.956 65.5199 514.216 65.5199 514.479V522.684C65.5199 522.942 65.4709 523.188 65.3819 523.415C65.4729 523.829 65.5199 524.253 65.5199 524.684C65.5199 529.499 59.6649 533.402 52.4429 533.402C45.2209 533.402 39.3669 529.499 39.3669 524.684C39.3669 524.253 39.4139 523.829 39.5039 523.414C39.4132 523.181 39.3668 522.934 39.3669 522.684V514.479Z" fill="#FF7BAC"/>
<path d="M77.7339 320L27.7339 370" stroke="#FF7BAC" stroke-width="41" stroke-linecap="round" stroke-linejoin="round"/>
<path d="M77.7339 370L27.7339 320" stroke="#FF7BAC" stroke-width="41" stroke-linecap="round" stroke-linejoin="round"/>
<path d="M59.0199 150.843L32.4419 199.649C32.3142 199.883 32.2511 200.147 32.259 200.413C32.2669 200.679 32.3455 200.939 32.4869 201.165C32.6289 201.393 32.8299 201.581 33.0689 201.712C33.3079 201.843 33.5789 201.912 33.8539 201.912H46.1539C46.3869 201.912 46.6179 201.961 46.8289 202.056C47.0409 202.151 47.2279 202.29 47.3779 202.462C47.5279 202.634 47.6369 202.837 47.6979 203.054C47.7589 203.272 47.7689 203.499 47.7289 203.721L40.9659 241.18C40.917 241.451 40.944 241.73 41.0439 241.986C41.1429 242.243 41.3119 242.47 41.5329 242.643C41.7561 242.817 42.0209 242.931 42.3013 242.972C42.5816 243.013 42.8678 242.981 43.1319 242.878C43.4779 242.744 43.7649 242.497 43.9429 242.18L73.0169 190.453C73.2029 190.122 73.2579 189.736 73.1699 189.369C73.0797 188.998 72.8557 188.674 72.5409 188.458L71.9019 188.004C71.6193 187.812 71.2844 187.712 70.9429 187.717L57.7609 187.98C57.5261 187.983 57.2934 187.936 57.0779 187.843C56.8649 187.75 56.6748 187.611 56.5209 187.437C56.368 187.267 56.2563 187.064 56.1944 186.844C56.1325 186.623 56.122 186.392 56.1639 186.167L62.3779 152.13C62.4262 151.868 62.4034 151.598 62.3119 151.348C62.2193 151.095 62.0625 150.871 61.8569 150.697L61.5019 150.389C61.2223 150.154 60.8723 150.018 60.5071 150.003C60.1419 149.989 59.7822 150.096 59.4849 150.309C59.2909 150.449 59.1318 150.632 59.0199 150.843Z" fill="#FF7BAC"/>
<path d="M81.8 76.8V91.2C81.8 92.473 81.2943 93.6939 80.3941 94.5941C79.4939 95.4943 78.273 96 77 96H29C27.727 96 26.5061 95.4943 25.6059 94.5941C24.7057 93.6939 24.2 92.473 24.2 91.2V76.8H9.8C8.52696 76.8 7.30606 76.2943 6.40589 75.3941C5.50571 74.4939 5 73.273 5 72V48C5 21.4896 26.4896 0 53 0C79.5104 0 101 21.4896 101 48V72C101 73.273 100.494 74.4939 99.5941 75.3941C98.6939 76.2943 97.473 76.8 96.2 76.8H81.8ZM31.4 57.6C32.3455 57.6 33.2818 57.4138 34.1553 57.0519C35.0289 56.6901 35.8226 56.1598 36.4912 55.4912C37.1598 54.8226 37.6901 54.0289 38.0519 53.1553C38.4138 52.2818 38.6 51.3455 38.6 50.4C38.6 49.4545 38.4138 48.5182 38.0519 47.6447C37.6901 46.7711 37.1598 45.9774 36.4912 45.3088C35.8226 44.6403 35.0289 44.1099 34.1553 43.7481C33.2818 43.3862 32.3455 43.2 31.4 43.2C29.4904 43.2 27.6591 43.9586 26.3088 45.3088C24.9586 46.6591 24.2 48.4904 24.2 50.4C24.2 52.3096 24.9586 54.1409 26.3088 55.4912C27.6591 56.8414 29.4904 57.6 31.4 57.6V57.6ZM74.6 57.6C75.5455 57.6 76.4818 57.4138 77.3553 57.0519C78.2289 56.6901 79.0226 56.1598 79.6912 55.4912C80.3598 54.8226 80.8901 54.0289 81.2519 53.1553C81.6138 52.2818 81.8 51.3455 81.8 50.4C81.8 49.4545 81.6138 48.5182 81.2519 47.6447C80.8901 46.7711 80.3598 45.9774 79.6912 45.3088C79.0226 44.6403 78.2289 44.1099 77.3553 43.7481C76.4818 43.3862 75.5455 43.2 74.6 43.2C72.6904 43.2 70.8591 43.9586 69.5088 45.3088C68.1586 46.6591 67.4 48.4904 67.4 50.4C67.4 52.3096 68.1586 54.1409 69.5088 55.4912C70.8591 56.8414 72.6904 57.6 74.6 57.6V57.6Z" fill="#FF7BAC"/>
<path d="M87.8489 1810L18 1879.45M88 1880L18.1511 1810.55" stroke="#FF7BAC" stroke-width="18" stroke-linecap="round" stroke-linejoin="round"/>
</g>
<defs>
<clipPath id="clip0_752_226">
<rect width="105.468" height="1892.99" fill="white"/>
</clipPath>
</defs>
</svg>
