<svg width="160" height="160" viewBox="0 0 160 160" fill="none" xmlns="http://www.w3.org/2000/svg">
<path fill-rule="evenodd" clip-rule="evenodd" d="M4 0C1.79086 0 0 1.79086 0 4V156C0 158.209 1.79086 160 4 160H156C158.209 160 160 158.209 160 156V4C160 1.79086 158.209 0 156 0H4ZM29 129C26.7909 129 25 130.791 25 133C25 135.209 26.7909 137 29 137H132C134.209 137 136 135.209 136 133C136 130.791 134.209 129 132 129H29ZM59 80C59 89.3888 51.3888 97 42 97C32.6112 97 25 89.3888 25 80C25 70.6112 32.6112 63 42 63C51.3888 63 59 70.6112 59 80ZM119 97C128.389 97 136 89.3888 136 80C136 70.6112 128.389 63 119 63C109.611 63 102 70.6112 102 80C102 89.3888 109.611 97 119 97Z" fill="#4F4F4F"/>
</svg>
