<svg width="160" height="160" viewBox="0 0 160 160" fill="none" xmlns="http://www.w3.org/2000/svg">
<path fill-rule="evenodd" clip-rule="evenodd" d="M80 160C124.183 160 160 124.183 160 80C160 35.8172 124.183 0 80 0C35.8172 0 0 35.8172 0 80C0 124.183 35.8172 160 80 160ZM94.8262 121C94.8262 123.209 93.0353 125 90.8262 125H69.174C66.9649 125 65.174 123.209 65.174 121V108.826V107.478H65.2344C65.9154 99.9217 72.2662 94 80.0001 94C87.734 94 94.0848 99.9217 94.7657 107.478H94.8262V108.826V121ZM100 75.5C100 73.0147 102.015 71 104.5 71H127.5C129.985 71 132 73.0147 132 75.5C132 77.9853 129.985 80 127.5 80H104.5C102.015 80 100 77.9853 100 75.5ZM44.5 87C52.5081 87 59 80.5081 59 72.5C59 64.4919 52.5081 58 44.5 58C36.4919 58 30 64.4919 30 72.5C30 80.5081 36.4919 87 44.5 87Z" fill="#4F4F4F"/>
</svg>
