<svg width="115" height="1346" viewBox="0 0 115 1346" fill="none" xmlns="http://www.w3.org/2000/svg">
<path d="M57.6744 1088.22L31.0962 1137.03C30.968 1137.26 30.9048 1137.52 30.9128 1137.79C30.9207 1138.06 30.9995 1138.31 31.1416 1138.54C31.2836 1138.77 31.484 1138.96 31.7235 1139.09C31.9629 1139.22 32.2333 1139.29 32.5083 1139.29H44.8086C45.0418 1139.29 45.2722 1139.34 45.4836 1139.43C45.695 1139.53 45.8824 1139.67 46.0325 1139.84C46.1826 1140.01 46.2918 1140.21 46.3525 1140.43C46.4131 1140.65 46.4238 1140.88 46.3837 1141.1L39.6201 1178.56C39.5714 1178.83 39.5984 1179.11 39.6981 1179.36C39.7979 1179.62 39.9668 1179.85 40.1876 1180.02C40.4083 1180.19 40.6729 1180.31 40.9539 1180.35C41.2349 1180.39 41.5223 1180.36 41.7863 1180.26C42.1328 1180.12 42.4199 1179.87 42.5978 1179.56L71.6712 1127.83C71.8577 1127.5 71.9122 1127.11 71.8245 1126.75C71.7368 1126.38 71.5129 1126.05 71.1952 1125.84L70.5562 1125.38C70.2763 1125.19 69.9407 1125.09 69.5978 1125.09L56.4156 1125.36C56.1803 1125.36 55.947 1125.31 55.7326 1125.22C55.5182 1125.13 55.3278 1124.99 55.1752 1124.81C55.0225 1124.64 54.9114 1124.44 54.8497 1124.22C54.788 1124 54.7772 1123.77 54.8182 1123.54L61.0323 1089.51C61.0806 1089.25 61.058 1088.98 60.9667 1088.72C60.8755 1088.47 60.7187 1088.25 60.5115 1088.07L60.1569 1087.77C59.9743 1087.61 59.7572 1087.5 59.5221 1087.43C59.2869 1087.37 59.0401 1087.36 58.8005 1087.4C58.5608 1087.45 58.3347 1087.54 58.1396 1087.69C57.9444 1087.83 57.7853 1088.01 57.6744 1088.22V1088.22Z" fill="#4F4F4F"/>
<rect x="9.40869" y="1253.01" width="92.9879" height="92.9879" rx="4" fill="#4F4F4F"/>
<path d="M52.473 146.361C54.0266 143.771 57.7793 143.771 59.3329 146.361L108.061 227.574C109.661 230.24 107.74 233.632 104.631 233.632H7.17499C4.06581 233.632 2.14536 230.24 3.74502 227.574L52.473 146.361Z" fill="#4F4F4F"/>
<path d="M89.1387 477.144L22.776 543.507" stroke="#4F4F4F" stroke-width="41" stroke-linecap="round" stroke-linejoin="round"/>
<path d="M89.2822 544.033L22.9195 477.67" stroke="#4F4F4F" stroke-width="41" stroke-linecap="round" stroke-linejoin="round"/>
<path fill-rule="evenodd" clip-rule="evenodd" d="M13.4087 0C11.1996 0 9.40869 1.79086 9.40869 4V88.9879C9.40869 91.197 11.1996 92.9879 13.4087 92.9879H98.3966C100.606 92.9879 102.397 91.197 102.397 88.9879V4C102.397 1.79086 100.606 0 98.3966 0H13.4087ZM27.9381 71.6209C25.7289 71.6209 23.9381 73.4118 23.9381 75.6209C23.9381 77.83 25.7289 79.6209 27.9381 79.6209H84.4484C86.6576 79.6209 88.4484 77.83 88.4484 75.6209C88.4484 73.4118 86.6576 71.6209 84.4484 71.6209H27.9381ZM43.698 46.494C43.698 51.9505 39.2746 56.3739 33.818 56.3739C28.3615 56.3739 23.9381 51.9505 23.9381 46.494C23.9381 41.0374 28.3615 36.614 33.818 36.614C39.2746 36.614 43.698 41.0374 43.698 46.494ZM78.5685 56.3739C84.025 56.3739 88.4484 51.9505 88.4484 46.494C88.4484 41.0374 84.025 36.614 78.5685 36.614C73.1119 36.614 68.6885 41.0374 68.6885 46.494C68.6885 51.9505 73.1119 56.3739 78.5685 56.3739Z" fill="#4F4F4F"/>
<path fill-rule="evenodd" clip-rule="evenodd" d="M55.9026 718.913C81.5805 718.913 102.397 698.097 102.397 672.419C102.397 646.741 81.5805 625.925 55.9026 625.925C30.2247 625.925 9.40869 646.741 9.40869 672.419C9.40869 698.097 30.2247 718.913 55.9026 718.913ZM64.5192 694.572C64.5192 696.781 62.7284 698.572 60.5192 698.572H51.2862C49.077 698.572 47.2862 696.781 47.2862 694.572V689.172V688.388H47.3213C47.717 683.997 51.408 680.555 55.9027 680.555C60.3974 680.555 64.0884 683.997 64.4841 688.388H64.5192V689.172V694.572ZM67.5261 667.919C67.5261 665.433 69.5409 663.419 72.0261 663.419H81.6237C84.109 663.419 86.1237 665.433 86.1237 667.919C86.1237 670.404 84.109 672.419 81.6237 672.419H72.0261C69.5409 672.419 67.5261 670.404 67.5261 667.919ZM35.271 676.487C39.9251 676.487 43.698 672.714 43.698 668.06C43.698 663.406 39.9251 659.633 35.271 659.633C30.6168 659.633 26.8439 663.406 26.8439 668.06C26.8439 672.714 30.6168 676.487 35.271 676.487Z" fill="#4F4F4F"/>
<path d="M84.9611 381.832V395.78C84.9611 397.013 84.4713 398.195 83.5994 399.067C82.7274 399.939 81.5448 400.429 80.3117 400.429H33.8178C32.5847 400.429 31.4021 399.939 30.5302 399.067C29.6582 398.195 29.1684 397.013 29.1684 395.78V381.832H15.2202C13.9871 381.832 12.8045 381.342 11.9326 380.47C11.0606 379.598 10.5708 378.415 10.5708 377.182V353.935C10.5708 328.257 31.3861 307.441 57.0648 307.441C82.7434 307.441 103.559 328.257 103.559 353.935V377.182C103.559 378.415 103.069 379.598 102.197 380.47C101.325 381.342 100.142 381.832 98.9093 381.832H84.9611ZM36.1425 363.234C37.0583 363.234 37.9652 363.054 38.8113 362.703C39.6575 362.353 40.4263 361.839 41.0739 361.191C41.7215 360.544 42.2352 359.775 42.5857 358.929C42.9362 358.083 43.1166 357.176 43.1166 356.26C43.1166 355.344 42.9362 354.437 42.5857 353.591C42.2352 352.745 41.7215 351.976 41.0739 351.329C40.4263 350.681 39.6575 350.167 38.8113 349.817C37.9652 349.466 37.0583 349.286 36.1425 349.286C34.2928 349.286 32.5189 350.021 31.211 351.329C29.9032 352.636 29.1684 354.41 29.1684 356.26C29.1684 358.11 29.9032 359.883 31.211 361.191C32.5189 362.499 34.2928 363.234 36.1425 363.234V363.234ZM77.987 363.234C78.9029 363.234 79.8098 363.054 80.6559 362.703C81.502 362.353 82.2709 361.839 82.9185 361.191C83.5661 360.544 84.0798 359.775 84.4303 358.929C84.7807 358.083 84.9611 357.176 84.9611 356.26C84.9611 355.344 84.7807 354.437 84.4303 353.591C84.0798 352.745 83.5661 351.976 82.9185 351.329C82.2709 350.681 81.502 350.167 80.6559 349.817C79.8098 349.466 78.9029 349.286 77.987 349.286C76.1374 349.286 74.3635 350.021 73.0556 351.329C71.7477 352.636 71.0129 354.41 71.0129 356.26C71.0129 358.11 71.7477 359.883 73.0556 361.191C74.3635 362.499 76.1374 363.234 77.987 363.234V363.234Z" fill="#4F4F4F"/>
<g clip-path="url(#clip0_330_105)">
<path d="M92.8465 800.361C85.2641 792.734 75.2552 787.995 64.5498 786.965C64.2239 786.931 63.9151 786.802 63.6613 786.595C63.4076 786.388 63.22 786.111 63.1218 785.798C62.9258 785.114 62.5123 784.512 61.9439 784.083C61.3754 783.655 60.6829 783.423 59.971 783.423C59.2591 783.423 58.5666 783.655 57.9981 784.083C57.4297 784.512 57.0162 785.114 56.8202 785.798C56.722 786.111 56.5344 786.388 56.2807 786.595C56.0269 786.802 55.7181 786.931 55.3922 786.965C43.9266 788.099 33.2906 793.451 25.5464 801.982C17.8021 810.513 13.5012 821.615 13.4775 833.137C13.4685 833.704 13.6012 834.264 13.8637 834.767C14.1261 835.269 14.5099 835.699 14.9802 836.015C15.6186 836.433 16.3811 836.618 17.1397 836.539C17.8983 836.46 18.6067 836.123 19.146 835.584C21.1635 833.567 23.8988 832.433 26.7515 832.431C29.6042 832.428 32.3414 833.558 34.3622 835.571C34.6676 835.882 35.0314 836.13 35.4328 836.3C35.8342 836.47 36.2653 836.559 36.7012 836.562C37.1371 836.565 37.5692 836.482 37.9729 836.317C38.3765 836.152 38.7436 835.909 39.0531 835.602C41.259 833.407 44.1797 832.076 47.2839 831.853C50.3881 831.629 53.4694 832.527 55.9672 834.384C56.1793 834.543 56.3514 834.75 56.4699 834.987C56.5885 835.225 56.6501 835.487 56.65 835.752V866.35C56.65 868.135 55.2801 869.671 53.4972 869.763C53.0475 869.786 52.5978 869.717 52.1756 869.56C51.7533 869.404 51.3673 869.163 51.041 868.853C50.7146 868.543 50.4548 868.169 50.2772 867.756C50.0996 867.342 50.0081 866.896 50.0081 866.446C50.0082 866.005 49.9203 865.568 49.7497 865.161C49.579 864.754 49.329 864.385 49.0142 864.076C48.6994 863.767 48.3262 863.524 47.9163 863.36C47.5064 863.197 47.0681 863.117 46.6269 863.125C44.7589 863.158 43.3267 864.808 43.3682 866.674C43.4303 869.253 44.489 871.708 46.3223 873.523C48.1556 875.338 50.6208 876.373 53.2004 876.409C58.7796 876.479 63.292 871.857 63.292 866.278V835.752C63.2919 835.487 63.3535 835.225 63.4721 834.987C63.5906 834.75 63.7627 834.543 63.9748 834.384C66.469 832.53 69.5451 831.632 72.6449 831.852C75.7448 832.072 78.6631 833.396 80.8702 835.584C81.493 836.206 82.3374 836.556 83.2178 836.556C84.0982 836.556 84.9425 836.206 85.5653 835.584C87.5856 833.565 90.3247 832.431 93.1807 832.431C96.0366 832.431 98.7757 833.565 100.796 835.584C101.32 836.107 102.003 836.441 102.738 836.532C103.473 836.622 104.217 836.465 104.852 836.084C105.353 835.774 105.765 835.339 106.048 834.822C106.33 834.305 106.474 833.724 106.465 833.135C106.468 827.044 105.266 821.012 102.929 815.388C100.592 809.763 97.1651 804.656 92.8465 800.361V800.361Z" fill="#4F4F4F"/>
</g>
<path d="M14.2035 971.56L24.0329 972.042C24.6138 966.774 26.2774 961.685 28.9185 957.095C31.5595 952.506 35.1205 948.517 39.3764 945.38L34.0062 937.102C32.7116 934.792 33.3828 931.856 35.7803 930.509C38.1777 929.209 41.0066 929.979 42.3492 932.289L46.8084 941.048C51.6553 938.957 56.8759 937.878 62.1518 937.878C67.4277 937.878 72.6483 938.957 77.4953 941.048L81.9545 932.289C83.297 929.979 86.126 929.209 88.5234 930.509C90.9208 931.856 91.5921 934.792 90.2975 937.102L84.9273 945.38C89.1831 948.517 92.7442 952.506 95.3852 957.095C98.0262 961.685 99.6898 966.774 100.271 972.042L110.1 971.56C111.372 971.56 112.591 972.067 113.491 972.97C114.39 973.873 114.895 975.097 114.895 976.373C114.895 977.649 114.39 978.874 113.491 979.776C112.591 980.679 111.372 981.186 110.1 981.186L100.271 980.704C99.6898 985.972 98.0262 991.062 95.3852 995.651C92.7442 1000.24 89.1831 1004.23 84.9273 1007.37L90.2975 1015.64C91.5921 1017.95 90.9208 1020.89 88.5234 1022.24C86.126 1023.54 83.297 1022.77 81.9545 1020.46L77.4953 1011.7C72.6483 1013.79 67.4277 1014.87 62.1518 1014.87C56.8759 1014.87 51.6553 1013.79 46.8084 1011.7L42.3492 1020.46C41.0066 1022.77 38.1777 1023.54 35.7803 1022.24C33.3828 1020.89 32.7116 1017.95 34.0062 1015.64L39.3764 1007.37C35.1205 1004.23 31.5595 1000.24 28.9185 995.651C26.2774 991.062 24.6138 985.972 24.0329 980.704L14.2035 981.186C12.9319 981.186 11.7123 980.679 10.8131 979.776C9.91386 978.874 9.40869 977.649 9.40869 976.373C9.40869 975.097 9.91386 973.873 10.8131 972.97C11.7123 972.067 12.9319 971.56 14.2035 971.56M48.103 973.245C48.7263 970.309 50.3086 967.71 52.5622 965.737L44.6028 953.513C38.587 958.147 34.6402 964.98 33.6226 972.523L48.103 973.245ZM62.1518 961.935C63.6862 961.935 65.1246 962.176 66.4672 962.609L73.084 949.663C69.7277 948.267 66.0356 947.497 62.1518 947.497C58.268 947.497 54.576 948.267 51.2196 949.663L57.8365 962.609C59.179 962.176 60.6175 961.935 62.1518 961.935M76.2007 973.245L90.6811 972.523C89.6635 964.98 85.7167 958.147 79.7009 953.513L71.7415 965.737C73.9951 967.71 75.5774 970.309 76.2007 973.245M76.2007 979.501C75.5774 982.437 73.9951 985.036 71.7415 987.009L79.7009 999.233C85.7167 994.599 89.6635 987.766 90.6811 980.223L76.2007 979.501ZM62.1518 990.811C60.6175 990.811 59.179 990.57 57.7885 990.137L51.2196 1003.08C54.576 1004.48 58.268 1005.25 62.1518 1005.25C66.0356 1005.25 69.7277 1004.48 73.084 1003.08L66.5151 990.137C65.1246 990.57 63.6862 990.811 62.1518 990.811M48.103 979.501L33.6226 980.223C34.6775 987.923 38.7051 994.709 44.6028 999.233L52.5622 987.009C50.3086 985.036 48.7263 982.437 48.103 979.501V979.501Z" fill="#4F4F4F"/>
<defs>
<clipPath id="clip0_330_105">
<rect width="92.9879" height="92.9865" fill="white" transform="translate(13.4771 783.423)"/>
</clipPath>
</defs>
</svg>
