<svg width="114" height="1346" viewBox="0 0 114 1346" fill="none" xmlns="http://www.w3.org/2000/svg">
<path d="M108.251 982.242C110.84 983.796 110.84 987.549 108.251 989.102L27.0374 1037.83C24.3713 1039.43 20.9794 1037.51 20.9794 1034.4L20.9794 936.944C20.9794 933.835 24.3713 931.915 27.0374 933.514L108.251 982.242Z" fill="#FBB03B"/>
<circle cx="54.1063" cy="46.494" r="46.494" fill="#FBB03B"/>
<circle cx="54.1063" cy="1299.51" r="46.494" fill="#FBB03B"/>
<path d="M56.4591 141.487L29.8808 190.293C29.7527 190.528 29.6895 190.791 29.6974 191.057C29.7054 191.322 29.7842 191.582 29.9262 191.809C30.0683 192.037 30.2687 192.225 30.5082 192.356C30.7476 192.487 31.0179 192.556 31.293 192.556H43.5933C43.8265 192.556 44.0568 192.605 44.2683 192.7C44.4797 192.795 44.667 192.934 44.8171 193.106C44.9672 193.278 45.0765 193.481 45.1371 193.698C45.1978 193.916 45.2085 194.143 45.1684 194.365L38.4048 231.824C38.3561 232.094 38.383 232.373 38.4828 232.63C38.5825 232.887 38.7515 233.114 38.9723 233.287C39.193 233.46 39.4575 233.573 39.7386 233.615C40.0196 233.656 40.3069 233.624 40.5709 233.522C40.9175 233.388 41.2046 233.141 41.3824 232.824L70.4559 181.097C70.6423 180.766 70.6968 180.38 70.6091 180.013C70.5214 179.645 70.2976 179.321 69.9799 179.102L69.3409 178.648C69.061 178.457 68.7253 178.356 68.3824 178.361L55.2003 178.624C54.965 178.627 54.7317 178.58 54.5173 178.487C54.3028 178.393 54.1125 178.254 53.9598 178.081C53.8072 177.908 53.6961 177.704 53.6343 177.485C53.5726 177.265 53.5619 177.035 53.6029 176.811L59.8169 142.774C59.8652 142.512 59.8427 142.243 59.7514 141.992C59.6602 141.741 59.5034 141.517 59.2962 141.341L58.9415 141.033C58.759 140.876 58.5419 140.762 58.3067 140.7C58.0716 140.637 57.8248 140.627 57.5851 140.671C57.3455 140.715 57.1194 140.811 56.9242 140.953C56.729 141.094 56.5699 141.277 56.4591 141.487V141.487Z" fill="#FBB03B"/>
<path d="M87.3423 319.646L20.9796 386.009" stroke="#FBB03B" stroke-width="41" stroke-linecap="round" stroke-linejoin="round"/>
<path d="M87.4858 386.534L21.1231 320.172" stroke="#FBB03B" stroke-width="41" stroke-linecap="round" stroke-linejoin="round"/>
<path fill-rule="evenodd" clip-rule="evenodd" d="M51.2236 456.839C52.7772 454.25 56.53 454.25 58.0836 456.839L106.812 538.052C108.411 540.718 106.491 544.11 103.382 544.11H5.92561C2.81643 544.11 0.895979 540.718 2.49564 538.052L51.2236 456.839ZM63.3708 497.616C63.3708 502.431 59.4678 506.334 54.6532 506.334C49.8386 506.334 45.9356 502.431 45.9356 497.616C45.9356 492.802 49.8386 488.899 54.6532 488.899C59.4678 488.899 63.3708 492.802 63.3708 497.616ZM41.2863 519.376C41.2863 518.272 42.1817 517.376 43.2863 517.376H65.4392C66.5437 517.376 67.4392 518.272 67.4392 519.376V527.581C67.4392 527.839 67.3903 528.085 67.3015 528.312C67.3921 528.726 67.4391 529.15 67.4391 529.581C67.4391 534.396 61.5846 538.299 54.3626 538.299C47.1407 538.299 41.2862 534.396 41.2862 529.581C41.2862 529.15 41.3332 528.726 41.4239 528.311C41.3351 528.085 41.2863 527.839 41.2863 527.581V519.376Z" fill="#FBB03B"/>
<path fill-rule="evenodd" clip-rule="evenodd" d="M25.0308 625.925C15.0896 625.925 7.03076 633.984 7.03076 643.925V714.913C7.03076 717.122 8.82163 718.913 11.0308 718.913H82.0187C91.9598 718.913 100.019 710.854 100.019 700.913V643.925C100.019 633.984 91.9598 625.925 82.0186 625.925H25.0308ZM50.0695 694.392C51.6131 697.038 55.4363 697.038 56.9798 694.392L58.1521 692.382C59.7076 689.716 57.7841 686.367 54.697 686.367H52.3524C49.2652 686.367 47.3417 689.716 48.8973 692.382L50.0695 694.392ZM70.0411 686.675C69.2127 685.24 69.7043 683.405 71.1392 682.577L79.0292 678.021C80.464 677.193 82.2988 677.685 83.1272 679.119C83.9557 680.554 83.464 682.389 82.0292 683.218L74.1392 687.773C72.7043 688.601 70.8695 688.11 70.0411 686.675ZM35.6293 704.105C37.0642 703.277 37.5558 701.442 36.7274 700.007C35.8989 698.572 34.0642 698.081 32.6293 698.909L24.7393 703.465C23.3045 704.293 22.8128 706.128 23.6413 707.563C24.4697 708.997 26.3045 709.489 27.7393 708.661L35.6293 704.105ZM70.7164 696.555C71.5449 695.12 73.3796 694.628 74.8145 695.457L82.7045 700.012C84.1393 700.84 84.631 702.675 83.8025 704.11C82.9741 705.545 81.1393 706.036 79.7045 705.208L71.8145 700.653C70.3796 699.824 69.888 697.99 70.7164 696.555ZM31.954 691.225C33.3889 692.054 35.2236 691.562 36.0521 690.127C36.8805 688.692 36.3889 686.858 34.954 686.029L27.064 681.474C25.6292 680.646 23.7944 681.137 22.966 682.572C22.1375 684.007 22.6292 685.842 24.064 686.67L31.954 691.225ZM30.5342 653.24C29.4296 653.24 28.5342 654.135 28.5342 655.24V656.795V656.795C28.5342 657.625 28.5856 658.47 28.5428 659.298C28.5371 659.409 28.5342 659.521 28.5342 659.633C28.5342 663.164 31.3964 666.026 34.9271 666.026C38.4578 666.026 41.3201 663.164 41.3201 659.633C41.3201 659.553 41.3186 659.474 41.3157 659.395C41.3084 659.196 41.3201 658.995 41.3201 658.795V658.795V655.24C41.3201 654.135 40.4246 653.24 39.32 653.24H34.9271H30.5342ZM65.7294 655.24C65.7294 654.135 66.6248 653.24 67.7294 653.24H72.1223H76.5152C77.6198 653.24 78.5152 654.135 78.5152 655.24V658.795V658.795C78.5152 658.995 78.5036 659.196 78.5109 659.395C78.5138 659.474 78.5152 659.553 78.5152 659.633C78.5152 663.164 75.653 666.026 72.1223 666.026C68.5916 666.026 65.7294 663.164 65.7294 659.633C65.7294 659.521 65.7323 659.409 65.738 659.298C65.7807 658.47 65.7294 657.625 65.7294 656.795V656.795V655.24Z" fill="#FBB03B"/>
<path d="M15.2076 621.314C17.9019 616.648 24.6376 616.648 27.3319 621.314L30.5586 626.903C33.2529 631.57 29.885 637.403 24.4964 637.403H18.0431C12.6545 637.403 9.28663 631.57 11.9809 626.903L15.2076 621.314Z" fill="#FBB03B"/>
<path d="M80.2989 621.314C82.9932 616.648 89.7289 616.648 92.4232 621.314L95.6499 626.903C98.3442 631.57 94.9763 637.403 89.5877 637.403H83.1344C77.7458 637.403 74.3779 631.57 77.0722 626.903L80.2989 621.314Z" fill="#FBB03B"/>
<path fill-rule="evenodd" clip-rule="evenodd" d="M48.8272 874.175L41.8398 867.814C17.0225 845.309 0.638184 830.419 0.638184 812.252C0.638184 797.361 12.2999 785.748 27.1422 785.748C35.5271 785.748 43.5746 789.651 48.8272 795.771C54.0798 789.651 62.1274 785.748 70.5123 785.748C85.3545 785.748 97.0163 797.361 97.0163 812.252C97.0163 830.419 80.632 845.309 55.8146 867.814L48.8272 874.175ZM40.7392 823.815C40.7392 827.185 38.0071 829.917 34.6369 829.917C31.2667 829.917 28.5346 827.185 28.5346 823.815C28.5346 820.445 31.2667 817.712 34.6369 817.712C38.0071 817.712 40.7392 820.445 40.7392 823.815ZM63.6956 829.917C67.0658 829.917 69.7979 827.185 69.7979 823.815C69.7979 820.445 67.0658 817.712 63.6956 817.712C60.3254 817.712 57.5933 820.445 57.5933 823.815C57.5933 827.185 60.3254 829.917 63.6956 829.917Z" fill="#FBB03B"/>
<g clip-path="url(#clip0_330_90)">
<path d="M90.4686 1117.68C82.8862 1110.05 72.8772 1105.32 62.1719 1104.29C61.846 1104.25 61.5371 1104.12 61.2834 1103.92C61.0297 1103.71 60.8421 1103.43 60.7438 1103.12C60.5479 1102.44 60.1344 1101.83 59.566 1101.4C58.9975 1100.98 58.305 1100.74 57.5931 1100.74C56.8812 1100.74 56.1886 1100.98 55.6202 1101.4C55.0517 1101.83 54.6383 1102.44 54.4423 1103.12C54.344 1103.43 54.1565 1103.71 53.9027 1103.92C53.649 1104.12 53.3402 1104.25 53.0143 1104.29C41.5486 1105.42 30.9127 1110.77 23.1684 1119.3C15.4242 1127.83 11.1233 1138.94 11.0995 1150.46C11.0906 1151.02 11.2233 1151.59 11.4857 1152.09C11.7482 1152.59 12.1319 1153.02 12.6023 1153.34C13.2406 1153.75 14.0032 1153.94 14.7618 1153.86C15.5204 1153.78 16.2288 1153.44 16.768 1152.91C18.7856 1150.89 21.5208 1149.75 24.3736 1149.75C27.2263 1149.75 29.9634 1150.88 31.9843 1152.89C32.2897 1153.2 32.6535 1153.45 33.0549 1153.62C33.4563 1153.79 33.8873 1153.88 34.3232 1153.88C34.7591 1153.89 35.1913 1153.8 35.5949 1153.64C35.9985 1153.47 36.3656 1153.23 36.6751 1152.92C38.881 1150.73 41.8018 1149.4 44.906 1149.17C48.0101 1148.95 51.0914 1149.85 53.5892 1151.71C53.8014 1151.86 53.9735 1152.07 54.092 1152.31C54.2105 1152.55 54.2722 1152.81 54.2721 1153.07V1183.67C54.2721 1185.46 52.9022 1186.99 51.1193 1187.08C50.6696 1187.11 50.2199 1187.04 49.7977 1186.88C49.3754 1186.73 48.9894 1186.48 48.663 1186.17C48.3367 1185.86 48.0768 1185.49 47.8993 1185.08C47.7217 1184.66 47.6302 1184.22 47.6302 1183.77C47.6302 1183.33 47.5424 1182.89 47.3717 1182.48C47.2011 1182.08 46.9511 1181.71 46.6363 1181.4C46.3215 1181.09 45.9483 1180.84 45.5384 1180.68C45.1285 1180.52 44.6902 1180.44 44.249 1180.45C42.381 1180.48 40.9488 1182.13 40.9903 1184C41.0523 1186.57 42.1111 1189.03 43.9444 1190.84C45.7777 1192.66 48.2429 1193.69 50.8225 1193.73C56.4017 1193.8 60.914 1189.18 60.914 1183.6V1153.07C60.914 1152.81 60.9756 1152.55 61.0941 1152.31C61.2126 1152.07 61.3848 1151.86 61.5969 1151.71C64.0911 1149.85 67.1671 1148.95 70.267 1149.17C73.3669 1149.39 76.2852 1150.72 78.4923 1152.91C79.1151 1153.53 79.9594 1153.88 80.8398 1153.88C81.7202 1153.88 82.5646 1153.53 83.1873 1152.91C85.2077 1150.89 87.9468 1149.75 90.8027 1149.75C93.6587 1149.75 96.3978 1150.89 98.4181 1152.91C98.9416 1153.43 99.6251 1153.76 100.36 1153.85C101.095 1153.94 101.839 1153.79 102.474 1153.41C102.975 1153.1 103.387 1152.66 103.67 1152.14C103.952 1151.63 104.096 1151.04 104.087 1150.46C104.09 1144.36 102.888 1138.33 100.551 1132.71C98.2137 1127.08 94.7872 1121.98 90.4686 1117.68V1117.68Z" fill="#FBB03B"/>
</g>
<defs>
<clipPath id="clip0_330_90">
<rect width="92.9879" height="92.9865" fill="white" transform="translate(11.0991 1100.74)"/>
</clipPath>
</defs>
</svg>
