<svg width="160" height="160" viewBox="0 0 160 160" fill="none" xmlns="http://www.w3.org/2000/svg">
<g clip-path="url(#clip0_302_162)">
<path d="M136.567 29.1439C123.521 16.0201 106.299 7.86702 87.8785 6.09407C87.3178 6.0357 86.7864 5.81458 86.3498 5.45794C85.9132 5.1013 85.5905 4.62473 85.4214 4.08694C85.0842 2.90935 84.3728 1.87356 83.3946 1.1362C82.4165 0.398834 81.2249 0 80 0C78.7751 0 77.5835 0.398834 76.6053 1.1362C75.6272 1.87356 74.9158 2.90935 74.5786 4.08694C74.4095 4.62473 74.0868 5.1013 73.6502 5.45794C73.2136 5.81458 72.6822 6.0357 72.1215 6.09407C52.3931 8.04641 34.0923 17.2544 20.7671 31.933C7.4419 46.6116 0.0415475 65.715 0.000734796 85.5398C-0.0147149 86.5154 0.213688 87.4795 0.665222 88.3445C1.11676 89.2095 1.77713 89.9481 2.58643 90.4933C3.68482 91.2113 4.99689 91.5294 6.30218 91.3942C7.60746 91.2589 8.82642 90.6785 9.75422 89.7504C13.2257 86.2802 17.9322 84.329 22.8407 84.3249C27.7493 84.3209 32.4589 86.2645 35.9361 89.729C36.4616 90.2642 37.0876 90.6904 37.7783 90.9829C38.469 91.2754 39.2106 91.4285 39.9607 91.4335C40.7107 91.4385 41.4543 91.2952 42.1488 91.0119C42.8433 90.7286 43.4749 90.3108 44.0075 89.7826C47.8031 86.005 52.8287 83.7156 58.1699 83.3309C63.5111 82.9461 68.8129 84.4916 73.1108 87.6862C73.4758 87.9604 73.7719 88.3159 73.9759 88.7243C74.1798 89.1328 74.2859 89.5832 74.2858 90.0397V142.689C74.2858 145.761 71.9286 148.403 68.8608 148.561C68.087 148.6 67.3133 148.481 66.5868 148.212C65.8603 147.943 65.196 147.529 64.6345 146.995C64.073 146.461 63.6258 145.819 63.3203 145.107C63.0148 144.395 62.8573 143.628 62.8573 142.854C62.8574 142.094 62.7063 141.343 62.4126 140.643C62.119 139.942 61.6888 139.308 61.1472 138.776C60.6055 138.244 59.9633 137.825 59.2581 137.544C58.5528 137.263 57.7986 137.126 57.0395 137.139C53.8252 137.196 51.361 140.036 51.4324 143.246C51.5391 147.684 53.3609 151.908 56.5154 155.031C59.6698 158.154 63.9116 159.934 68.3501 159.996C77.95 160.118 85.7142 152.164 85.7142 142.564V90.0397C85.7141 89.5832 85.8202 89.1328 86.0241 88.7243C86.228 88.3159 86.5242 87.9604 86.8892 87.6862C91.1808 84.4962 96.4736 82.9504 101.807 83.3292C107.141 83.7079 112.163 85.9861 115.96 89.7504C117.032 90.8212 118.485 91.4228 120 91.4228C121.514 91.4228 122.967 90.8212 124.039 89.7504C127.515 86.2771 132.228 84.3261 137.142 84.3261C142.056 84.3261 146.769 86.2771 150.246 89.7504C151.147 90.6513 152.323 91.2253 153.587 91.3812C154.851 91.5372 156.132 91.2661 157.224 90.6111C158.086 90.0777 158.795 89.3297 159.282 88.4401C159.768 87.5505 160.015 86.5499 159.999 85.5362C160.005 75.0558 157.937 64.6779 153.916 54.9997C149.894 45.3216 143.998 36.5344 136.567 29.1439V29.1439Z" fill="#4F4F4F"/>
</g>
<defs>
<clipPath id="clip0_302_162">
<rect width="160" height="159.998" fill="white"/>
</clipPath>
</defs>
</svg>
