<svg width="182" height="160" viewBox="0 0 182 160" fill="none" xmlns="http://www.w3.org/2000/svg">
<path d="M8.25024 71.7191L25.1632 72.5472C26.1628 63.4833 29.0252 54.7262 33.5695 46.8296C38.1139 38.9331 44.2412 32.0688 51.564 26.671L42.3238 12.4278C40.0962 8.45297 41.2512 3.40162 45.3763 1.08296C49.5015 -1.15288 54.3691 0.172063 56.6792 4.1469L64.3519 19.2181C72.6918 15.6193 81.6747 13.7633 90.7527 13.7633C99.8307 13.7633 108.814 15.6193 117.153 19.2181L124.826 4.1469C127.136 0.172063 132.004 -1.15288 136.129 1.08296C140.254 3.40162 141.409 8.45297 139.182 12.4278L129.941 26.671C137.264 32.0688 143.392 38.9331 147.936 46.8296C152.48 54.7262 155.343 63.4833 156.342 72.5472L173.255 71.7191C175.443 71.7191 177.542 72.5915 179.089 74.1445C180.636 75.6975 181.505 77.8038 181.505 80C181.505 82.1962 180.636 84.3025 179.089 85.8555C177.542 87.4084 175.443 88.2809 173.255 88.2809L156.342 87.4528C155.343 96.5167 152.48 105.274 147.936 113.17C143.392 121.067 137.264 127.931 129.941 133.329L139.182 147.572C141.409 151.547 140.254 156.598 136.129 158.917C132.004 161.153 127.136 159.828 124.826 155.853L117.153 140.782C108.814 144.381 99.8307 146.237 90.7527 146.237C81.6747 146.237 72.6918 144.381 64.3519 140.782L56.6792 155.853C54.3691 159.828 49.5015 161.153 45.3763 158.917C41.2512 156.598 40.0962 151.547 42.3238 147.572L51.564 133.329C44.2412 127.931 38.1139 121.067 33.5695 113.17C29.0252 105.274 26.1628 96.5167 25.1632 87.4528L8.25024 88.2809C6.06214 88.2809 3.96366 87.4084 2.41644 85.8555C0.869219 84.3025 0 82.1962 0 80C0 77.8038 0.869219 75.6975 2.41644 74.1445C3.96366 72.5915 6.06214 71.7191 8.25024 71.7191M66.5795 74.6174C67.652 69.5661 70.3746 65.0944 74.2522 61.6992L60.5568 40.6657C50.2058 48.6395 43.4147 60.397 41.6637 73.3753L66.5795 74.6174ZM90.7527 55.1573C93.3928 55.1573 95.8678 55.5713 98.1779 56.3166L109.563 34.041C103.788 31.6395 97.4354 30.3146 90.7527 30.3146C84.07 30.3146 77.7173 31.6395 71.9421 34.041L83.3275 56.3166C85.6375 55.5713 88.1126 55.1573 90.7527 55.1573M114.926 74.6174L139.842 73.3753C138.091 60.397 131.3 48.6395 120.949 40.6657L107.253 61.6992C111.131 65.0944 113.853 69.5661 114.926 74.6174M114.926 85.3826C113.853 90.4339 111.131 94.9056 107.253 98.3008L120.949 119.334C131.3 111.36 138.091 99.603 139.842 86.6247L114.926 85.3826ZM90.7527 104.843C88.1126 104.843 85.6375 104.429 83.245 103.683L71.9421 125.959C77.7173 128.36 84.07 129.685 90.7527 129.685C97.4354 129.685 103.788 128.36 109.563 125.959L98.2604 103.683C95.8678 104.429 93.3928 104.843 90.7527 104.843M66.5795 85.3826L41.6637 86.6247C43.4788 99.8742 50.409 111.55 60.5568 119.334L74.2522 98.3008C70.3746 94.9056 67.652 90.4339 66.5795 85.3826V85.3826Z" fill="#4F4F4F"/>
</svg>
