{
  "accessors": [
    {
      "bufferView": 2,
      "componentType": 5126,
      "count": 128,
      "max": [
        0.6190527677536011,
        0.47314587235450745,
        0.41841578483581543
      ],
      "min": [
        -0.48606544733047485,
        -0.5084102153778076,
        -0.4891631305217743
      ],
      "type": "VEC3",
      "byteOffset": 0
    },
    {
      "bufferView": 2,
      "byteOffset": 1536,
      "componentType": 5126,
      "count": 128,
      "max": [
        0.9645813703536987,
        0.8355748057365417,
        1
      ],
      "min": [
        -0.91246098279953,
        -0.9160646200180054,
        -0.9586646556854248
      ],
      "type": "VEC3"
    },
    {
      "bufferView": 3,
      "componentType": 5126,
      "count": 128,
      "max": [
        0.3058219254016876,
        0.9238276481628418,
        0.9947046637535095,
        1
      ],
      "min": [
        -0.9219504594802856,
        -0.9520893692970276,
        -0.7189845442771912,
        1
      ],
      "type": "VEC4",
      "byteOffset": 0
    },
    {
      "bufferView": 3,
      "byteOffset": 2048,
      "componentType": 5126,
      "count": 128,
      "max": [
        1,
        1,
        1,
        1
      ],
      "min": [
        1,
        1,
        1,
        1
      ],
      "type": "VEC4"
    },
    {
      "bufferView": 1,
      "componentType": 5126,
      "count": 128,
      "max": [
        0.9999999403953552,
        1
      ],
      "min": [
        0,
        0
      ],
      "type": "VEC2",
      "byteOffset": 0
    },
    {
      "bufferView": 0,
      "componentType": 5125,
      "count": 162,
      "max": [
        127
      ],
      "min": [
        0
      ],
      "type": "SCALAR",
      "byteOffset": 0
    }
  ],
  "asset": {
    "extras": {
      "author": "Dzemal Semanic (https://sketchfab.com/dzemalmclaren)",
      "license": "CC-BY-4.0 (http://creativecommons.org/licenses/by/4.0/)",
      "source": "https://sketchfab.com/models/6e476441b5614231bf4e8de194c418d9",
      "title": "Stylized lowpoly rock"
    },
    "generator": "Sketchfab-3.22.13",
    "version": "2.0"
  },
  "bufferViews": [
    {
      "buffer": 0,
      "byteLength": 648,
      "byteOffset": 0,
      "name": "floatBufferViews",
      "target": 34963
    },
    {
      "buffer": 0,
      "byteLength": 1024,
      "byteOffset": 648,
      "byteStride": 8,
      "name": "floatBufferViews",
      "target": 34962
    },
    {
      "buffer": 0,
      "byteLength": 3072,
      "byteOffset": 1672,
      "byteStride": 12,
      "name": "floatBufferViews",
      "target": 34962
    },
    {
      "buffer": 0,
      "byteLength": 4096,
      "byteOffset": 4744,
      "byteStride": 16,
      "name": "floatBufferViews",
      "target": 34962
    },
    {
      "buffer": 0,
      "byteOffset": 8840,
      "byteLength": 177052
    }
  ],
  "buffers": [
    {
      "name": "scene",
      "byteLength": 185892,
      "uri": "data:application/octet-stream;base64,"
    }
  ],
  "images": [
    {
      "name": "Material_52_baseColor",
      "bufferView": 4,
      "mimeType": "image/png"
    }
  ],
  "materials": [
    {
      "doubleSided": true,
      "emissiveFactor": [
        0,
        0,
        0
      ],
      "name": "Material_52",
      "pbrMetallicRoughness": {
        "baseColorFactor": [
          1,
          1,
          1,
          1
        ],
        "baseColorTexture": {
          "index": 0,
          "texCoord": 0
        },
        "metallicFactor": 0,
        "roughnessFactor": 1
      },
      "alphaMode": "OPAQUE"
    }
  ],
  "meshes": [
    {
      "name": "node_id4_Material_52_0",
      "primitives": [
        {
          "attributes": {
            "COLOR_0": 3,
            "NORMAL": 1,
            "POSITION": 0,
            "TANGENT": 2,
            "TEXCOORD_0": 4
          },
          "indices": 5,
          "material": 0,
          "mode": 4
        }
      ]
    }
  ],
  "nodes": [
    {
      "children": [
        1
      ],
      "name": "RootNode (gltf orientation matrix)",
      "rotation": [
        -0.7071067811865475,
        0,
        0,
        0.7071067811865476
      ],
      "translation": [
        0,
        0,
        0
      ],
      "scale": [
        1,
        1,
        1
      ]
    },
    {
      "children": [
        2
      ],
      "name": "RootNode (model correction matrix)"
    },
    {
      "children": [
        3
      ],
      "matrix": [
        1,
        0,
        0,
        0,
        0,
        0,
        1,
        0,
        0,
        -1,
        0,
        0,
        0,
        0,
        0,
        1
      ],
      "name": "24ba5787667942f79bf4e3dd2652bf7c.fbx"
    },
    {
      "children": [
        4
      ],
      "name": "RootNode"
    },
    {
      "children": [
        5
      ],
      "name": "root"
    },
    {
      "children": [
        6
      ],
      "matrix": [
        0.31228864577241566,
        0.08602626727580631,
        0.07725795453487247,
        0,
        0.07228118676331412,
        -0.3189161955345877,
        0.06293948598274719,
        0,
        0.09024820942969232,
        -0.042254370643327925,
        -0.3177472853305923,
        0,
        -0.016298329457640648,
        -0.012838120572268963,
        0.24073271453380585,
        1
      ],
      "name": "node_id4"
    },
    {
      "mesh": 0,
      "name": "node_id4_Material_52_0"
    }
  ],
  "samplers": [
    {
      "magFilter": 9729,
      "minFilter": 9987,
      "wrapS": 10497,
      "wrapT": 10497
    }
  ],
  "scene": 0,
  "scenes": [
    {
      "name": "OSG_Scene",
      "nodes": [
        0
      ]
    }
  ],
  "textures": [
    {
      "sampler": 0,
      "source": 0
    }
  ]
}
