{
    "asset" : {
        "generator" : "Khronos glTF Blender I/O v1.7.33",
        "version" : "2.0"
    },
    "scene" : 0,
    "scenes" : [
        {
            "name" : "Scene",
            "nodes" : [
                0
            ]
        }
    ],
    "nodes" : [
        {
            "mesh" : 0,
            "name" : "RabbitComplete",
            "translation" : [
                3.3252875804901123,
                1.0242420434951782,
                0
            ]
        }
    ],
    "materials" : [
        {
            "doubleSided" : true,
            "name" : "White",
            "pbrMetallicRoughness" : {
                "baseColorFactor" : [
                    0.800000011920929,
                    0.800000011920929,
                    0.800000011920929,
                    1
                ],
                "metallicFactor" : 0
            }
        },
        {
            "doubleSided" : true,
            "name" : "Black",
            "pbrMetallicRoughness" : {
                "baseColorFactor" : [
                    0.010960093699395657,
                    0.010960093699395657,
                    0.015208514407277107,
                    1
                ],
                "metallicFactor" : 0,
                "roughnessFactor" : 0.5
            }
        },
        {
            "doubleSided" : true,
            "name" : "Leaf",
            "pbrMetallicRoughness" : {
                "baseColorFactor" : [
                    0.25015830993652344,
                    0.40724021196365356,
                    0,
                    1
                ],
                "metallicFactor" : 0,
                "roughnessFactor" : 0.5
            }
        },
        {
            "doubleSided" : true,
            "name" : "Material.002",
            "pbrMetallicRoughness" : {
                "baseColorTexture" : {
                    "index" : 0
                },
                "metallicFactor" : 0,
                "roughnessFactor" : 0.5
            }
        }
    ],
    "meshes" : [
        {
            "name" : "Body.001",
            "primitives" : [
                {
                    "attributes" : {
                        "POSITION" : 0,
                        "NORMAL" : 1,
                        "TEXCOORD_0" : 2
                    },
                    "indices" : 3,
                    "material" : 0
                },
                {
                    "attributes" : {
                        "POSITION" : 4,
                        "NORMAL" : 5,
                        "TEXCOORD_0" : 6
                    },
                    "indices" : 7,
                    "material" : 1
                },
                {
                    "attributes" : {
                        "POSITION" : 8,
                        "NORMAL" : 9,
                        "TEXCOORD_0" : 10
                    },
                    "indices" : 11,
                    "material" : 2
                },
                {
                    "attributes" : {
                        "POSITION" : 12,
                        "NORMAL" : 13,
                        "TEXCOORD_0" : 14
                    },
                    "indices" : 15,
                    "material" : 3
                }
            ]
        }
    ],
    "textures" : [
        {
            "sampler" : 0,
            "source" : 0
        }
    ],
    "images" : [
        {
            "bufferView" : 16,
            "mimeType" : "image/png",
            "name" : "Face_29"
        }
    ],
    "accessors" : [
        {
            "bufferView" : 0,
            "componentType" : 5126,
            "count" : 6142,
            "max" : [
                1.1674737930297852,
                1.9591972827911377,
                0.8678486347198486
            ],
            "min" : [
                -1.1674737930297852,
                -1.0182141065597534,
                -1.0022963285446167
            ],
            "type" : "VEC3"
        },
        {
            "bufferView" : 1,
            "componentType" : 5126,
            "count" : 6142,
            "type" : "VEC3"
        },
        {
            "bufferView" : 2,
            "componentType" : 5126,
            "count" : 6142,
            "type" : "VEC2"
        },
        {
            "bufferView" : 3,
            "componentType" : 5123,
            "count" : 32265,
            "type" : "SCALAR"
        },
        {
            "bufferView" : 4,
            "componentType" : 5126,
            "count" : 39,
            "max" : [
                0.2843039631843567,
                0.28664714097976685,
                0.8344581127166748
            ],
            "min" : [
                -0.28664708137512207,
                -0.03787199407815933,
                0.7908408641815186
            ],
            "type" : "VEC3"
        },
        {
            "bufferView" : 5,
            "componentType" : 5126,
            "count" : 39,
            "type" : "VEC3"
        },
        {
            "bufferView" : 6,
            "componentType" : 5126,
            "count" : 39,
            "type" : "VEC2"
        },
        {
            "bufferView" : 7,
            "componentType" : 5123,
            "count" : 111,
            "type" : "SCALAR"
        },
        {
            "bufferView" : 8,
            "componentType" : 5126,
            "count" : 231,
            "max" : [
                0.27943527698516846,
                -0.6696649789810181,
                0.6374514102935791
            ],
            "min" : [
                -0.2800818085670471,
                -0.8898525238037109,
                0.24195358157157898
            ],
            "type" : "VEC3"
        },
        {
            "bufferView" : 9,
            "componentType" : 5126,
            "count" : 231,
            "type" : "VEC3"
        },
        {
            "bufferView" : 10,
            "componentType" : 5126,
            "count" : 231,
            "type" : "VEC2"
        },
        {
            "bufferView" : 11,
            "componentType" : 5123,
            "count" : 1275,
            "type" : "SCALAR"
        },
        {
            "bufferView" : 12,
            "componentType" : 5126,
            "count" : 256,
            "max" : [
                0.7182663083076477,
                1.4141117334365845,
                0.9076206088066101
            ],
            "min" : [
                -0.7191548347473145,
                -0.6445111036300659,
                0.21036279201507568
            ],
            "type" : "VEC3"
        },
        {
            "bufferView" : 13,
            "componentType" : 5126,
            "count" : 256,
            "type" : "VEC3"
        },
        {
            "bufferView" : 14,
            "componentType" : 5126,
            "count" : 256,
            "type" : "VEC2"
        },
        {
            "bufferView" : 15,
            "componentType" : 5123,
            "count" : 384,
            "type" : "SCALAR"
        }
    ],
    "bufferViews" : [
        {
            "buffer" : 0,
            "byteLength" : 73704,
            "byteOffset" : 0
        },
        {
            "buffer" : 0,
            "byteLength" : 73704,
            "byteOffset" : 73704
        },
        {
            "buffer" : 0,
            "byteLength" : 49136,
            "byteOffset" : 147408
        },
        {
            "buffer" : 0,
            "byteLength" : 64530,
            "byteOffset" : 196544
        },
        {
            "buffer" : 0,
            "byteLength" : 468,
            "byteOffset" : 261076
        },
        {
            "buffer" : 0,
            "byteLength" : 468,
            "byteOffset" : 261544
        },
        {
            "buffer" : 0,
            "byteLength" : 312,
            "byteOffset" : 262012
        },
        {
            "buffer" : 0,
            "byteLength" : 222,
            "byteOffset" : 262324
        },
        {
            "buffer" : 0,
            "byteLength" : 2772,
            "byteOffset" : 262548
        },
        {
            "buffer" : 0,
            "byteLength" : 2772,
            "byteOffset" : 265320
        },
        {
            "buffer" : 0,
            "byteLength" : 1848,
            "byteOffset" : 268092
        },
        {
            "buffer" : 0,
            "byteLength" : 2550,
            "byteOffset" : 269940
        },
        {
            "buffer" : 0,
            "byteLength" : 3072,
            "byteOffset" : 272492
        },
        {
            "buffer" : 0,
            "byteLength" : 3072,
            "byteOffset" : 275564
        },
        {
            "buffer" : 0,
            "byteLength" : 2048,
            "byteOffset" : 278636
        },
        {
            "buffer" : 0,
            "byteLength" : 768,
            "byteOffset" : 280684
        },
        {
            "buffer" : 0,
            "byteLength" : 17861,
            "byteOffset" : 281452
        }
    ],
    "samplers" : [
        {
            "magFilter" : 9729,
            "minFilter" : 9987,
            "wrapS" : 33071,
            "wrapT" : 33071
        }
    ],
    "buffers" : [
        {
            "byteLength" : 299316,
            "uri" : "data:application/octet-stream;base64,"
        }
    ]
}
