{
  "accessors": [
    {
      "bufferView": 1,
      "componentType": 5126,
      "count": 322,
      "max": [
        3.2119300365448,
        -0.03265000134706497,
        0.07474000006914139
      ],
      "min": [
        -3.2119300365448,
        -3.1239800453186035,
        -0.6011999845504761
      ],
      "type": "VEC3",
      "byteOffset": 0
    },
    {
      "bufferView": 1,
      "byteOffset": 3864,
      "componentType": 5126,
      "count": 322,
      "max": [
        0.8605695962905884,
        0.9967503547668457,
        0.7974222898483276
      ],
      "min": [
        -0.8605695962905884,
        -1,
        -0.9980236887931824
      ],
      "type": "VEC3"
    },
    {
      "bufferView": 0,
      "componentType": 5125,
      "count": 588,
      "max": [
        321
      ],
      "min": [
        0
      ],
      "type": "SCALAR",
      "byteOffset": 0
    },
    {
      "bufferView": 1,
      "byteOffset": 7728,
      "componentType": 5126,
      "count": 1120,
      "max": [
        5.619870185852051,
        2.4354400634765625,
        1.1259900331497192
      ],
      "min": [
        -5.619870185852051,
        -6.056849956512451,
        -1.353790044784546
      ],
      "type": "VEC3"
    },
    {
      "bufferView": 1,
      "byteOffset": 21168,
      "componentType": 5126,
      "count": 1120,
      "max": [
        0.998266875743866,
        1,
        1
      ],
      "min": [
        -0.998266875743866,
        -1,
        -1
      ],
      "type": "VEC3"
    },
    {
      "bufferView": 0,
      "byteOffset": 2352,
      "componentType": 5125,
      "count": 1662,
      "max": [
        1119
      ],
      "min": [
        0
      ],
      "type": "SCALAR"
    },
    {
      "bufferView": 1,
      "byteOffset": 34608,
      "componentType": 5126,
      "count": 596,
      "max": [
        3.3487799167633057,
        2.8846099376678467,
        1.434059977531433
      ],
      "min": [
        -3.3487799167633057,
        -3.7718300819396973,
        -0.7341300249099731
      ],
      "type": "VEC3"
    },
    {
      "bufferView": 1,
      "byteOffset": 41760,
      "componentType": 5126,
      "count": 596,
      "max": [
        1,
        1,
        1
      ],
      "min": [
        -1,
        -1,
        -1
      ],
      "type": "VEC3"
    },
    {
      "bufferView": 0,
      "byteOffset": 9000,
      "componentType": 5125,
      "count": 906,
      "max": [
        595
      ],
      "min": [
        0
      ],
      "type": "SCALAR"
    },
    {
      "bufferView": 1,
      "byteOffset": 48912,
      "componentType": 5126,
      "count": 26,
      "max": [
        0.5104600191116333,
        -0.643750011920929,
        1.0521999597549438
      ],
      "min": [
        -0.5104600191116333,
        -2.9249799251556396,
        0.4099699854850769
      ],
      "type": "VEC3"
    },
    {
      "bufferView": 1,
      "byteOffset": 49224,
      "componentType": 5126,
      "count": 26,
      "max": [
        0.9305074214935303,
        -0.07923978567123413,
        0.9935243129730225
      ],
      "min": [
        -0.9305074214935303,
        -0.40771886706352234,
        0.35759902000427246
      ],
      "type": "VEC3"
    },
    {
      "bufferView": 0,
      "byteOffset": 12624,
      "componentType": 5125,
      "count": 42,
      "max": [
        25
      ],
      "min": [
        0
      ],
      "type": "SCALAR"
    },
    {
      "bufferView": 1,
      "byteOffset": 49536,
      "componentType": 5126,
      "count": 16,
      "max": [
        0.3764199912548065,
        2.456360101699829,
        1.0170400142669678
      ],
      "min": [
        -0.3764199912548065,
        2.456360101699829,
        -0.6251800060272217
      ],
      "type": "VEC3"
    },
    {
      "bufferView": 1,
      "byteOffset": 49728,
      "componentType": 5126,
      "count": 16,
      "max": [
        0,
        1,
        0
      ],
      "min": [
        0,
        1,
        0
      ],
      "type": "VEC3"
    },
    {
      "bufferView": 0,
      "byteOffset": 12792,
      "componentType": 5125,
      "count": 36,
      "max": [
        15
      ],
      "min": [
        0
      ],
      "type": "SCALAR"
    },
    {
      "bufferView": 1,
      "byteOffset": 49920,
      "componentType": 5126,
      "count": 66,
      "max": [
        5.1190900802612305,
        2.004470109939575,
        0.9264799952507019
      ],
      "min": [
        -5.1190900802612305,
        -5.340240001678467,
        -0.5521900057792664
      ],
      "type": "VEC3"
    },
    {
      "bufferView": 1,
      "byteOffset": 50712,
      "componentType": 5126,
      "count": 66,
      "max": [
        0.9949421286582947,
        0,
        0.9953750967979431
      ],
      "min": [
        -0.9949421286582947,
        -0.10339962691068649,
        -1
      ],
      "type": "VEC3"
    },
    {
      "bufferView": 0,
      "byteOffset": 12936,
      "componentType": 5125,
      "count": 78,
      "max": [
        65
      ],
      "min": [
        0
      ],
      "type": "SCALAR"
    }
  ],
  "asset": {
    "extras": {
      "author": "TheMuffinCoder (https://sketchfab.com/themuffincoder)",
      "license": "CC-BY-4.0 (http://creativecommons.org/licenses/by/4.0/)",
      "source": "https://sketchfab.com/3d-models/delta-break-renault-s-t1-dab401ce6ec649a29ee0856051a111c2",
      "title": "[Delta Break] Renault (S, T1)"
    },
    "generator": "Sketchfab-6.22.0",
    "version": "2.0"
  },
  "bufferViews": [
    {
      "buffer": 0,
      "byteLength": 13248,
      "byteOffset": 0,
      "name": "floatBufferViews",
      "target": 34963
    },
    {
      "buffer": 0,
      "byteLength": 51504,
      "byteOffset": 13248,
      "byteStride": 12,
      "name": "floatBufferViews",
      "target": 34962
    }
  ],
  "buffers": [
    {
      "name": "scene",
      "byteLength": 64752,
      "uri": "data:application/octet-stream;base64,"
    }
  ],
  "materials": [
    {
      "doubleSided": true,
      "emissiveFactor": [
        0,
        0,
        0
      ],
      "name": "S_T1_Light_Metal",
      "pbrMetallicRoughness": {
        "baseColorFactor": [
          0.06048731878399849,
          0.06922438740730286,
          0.08001280575990677,
          1
        ],
        "metallicFactor": 0,
        "roughnessFactor": 0.46
      },
      "alphaMode": "OPAQUE"
    },
    {
      "doubleSided": true,
      "emissiveFactor": [
        0,
        0,
        0
      ],
      "name": "S_T1_Medium_Metal",
      "pbrMetallicRoughness": {
        "baseColorFactor": [
          0.03152105584740638,
          0.040784314274787896,
          0.05305527150630951,
          1
        ],
        "metallicFactor": 0,
        "roughnessFactor": 0.77
      },
      "alphaMode": "OPAQUE"
    },
    {
      "doubleSided": true,
      "emissiveFactor": [
        0,
        0,
        0
      ],
      "name": "S_T1_Dark_Metal",
      "pbrMetallicRoughness": {
        "baseColorFactor": [
          0.0167560838162899,
          0.02440778911113739,
          0.03521855175495148,
          1
        ],
        "metallicFactor": 0,
        "roughnessFactor": 0.92
      },
      "alphaMode": "OPAQUE"
    },
    {
      "doubleSided": true,
      "name": "S_T1_Shield",
      "pbrMetallicRoughness": {
        "baseColorFactor": [
          0.11517650060355658,
          0.5305195176601412,
          0.6483305382728577,
          1
        ],
        "metallicFactor": 0,
        "roughnessFactor": 0.73
      },
      "emissiveFactor": [
        0,
        0,
        0
      ],
      "alphaMode": "OPAQUE"
    },
    {
      "doubleSided": true,
      "emissiveFactor": [
        0.5424604561262447,
        0.30616580065788057,
        1
      ],
      "name": "S_T1_Engine_Glow",
      "pbrMetallicRoughness": {
        "baseColorFactor": [
          0.2934275201095109,
          0.3200224652668073,
          0.8014945267390895,
          1
        ],
        "metallicFactor": 0,
        "roughnessFactor": 0.6
      },
      "alphaMode": "OPAQUE"
    },
    {
      "doubleSided": true,
      "emissiveFactor": [
        0.4,
        0.4,
        0.4
      ],
      "name": "S_T1_Blue_Glow",
      "pbrMetallicRoughness": {
        "baseColorFactor": [
          0.030248533934354793,
          0.5492193698883054,
          0.8000000715255737,
          1
        ],
        "metallicFactor": 0,
        "roughnessFactor": 0.6
      },
      "alphaMode": "OPAQUE"
    }
  ],
  "meshes": [
    {
      "name": "Renault (S, T1)_0",
      "primitives": [
        {
          "attributes": {
            "NORMAL": 1,
            "POSITION": 0
          },
          "indices": 2,
          "material": 0,
          "mode": 4
        }
      ]
    },
    {
      "name": "Renault (S, T1)_1",
      "primitives": [
        {
          "attributes": {
            "NORMAL": 4,
            "POSITION": 3
          },
          "indices": 5,
          "material": 1,
          "mode": 4
        }
      ]
    },
    {
      "name": "Renault (S, T1)_2",
      "primitives": [
        {
          "attributes": {
            "NORMAL": 7,
            "POSITION": 6
          },
          "indices": 8,
          "material": 2,
          "mode": 4
        }
      ]
    },
    {
      "name": "Renault (S, T1)_3",
      "primitives": [
        {
          "attributes": {
            "NORMAL": 10,
            "POSITION": 9
          },
          "indices": 11,
          "material": 3,
          "mode": 4
        }
      ]
    },
    {
      "name": "Renault (S, T1)_4",
      "primitives": [
        {
          "attributes": {
            "NORMAL": 13,
            "POSITION": 12
          },
          "indices": 14,
          "material": 4,
          "mode": 4
        }
      ]
    },
    {
      "name": "Renault (S, T1)_5",
      "primitives": [
        {
          "attributes": {
            "NORMAL": 16,
            "POSITION": 15
          },
          "indices": 17,
          "material": 5,
          "mode": 4
        }
      ]
    }
  ],
  "nodes": [
    {
      "children": [
        1
      ],
      "name": "RootNode (gltf orientation matrix)",
      "rotation": [
        -0.7071067811865475,
        0,
        0,
        0.7071067811865476
      ],
      "translation": [
        0,
        0,
        0
      ],
      "scale": [
        1,
        1,
        1
      ]
    },
    {
      "children": [
        2
      ],
      "name": "RootNode (model correction matrix)"
    },
    {
      "children": [
        3
      ],
      "name": "Root"
    },
    {
      "children": [
        4,
        5,
        6,
        7,
        8,
        9
      ],
      "matrix": [
        0.8922100000000001,
        0,
        0,
        0,
        0,
        1,
        0,
        0,
        0,
        0,
        1,
        0,
        0,
        0,
        0,
        1
      ],
      "name": "Renault (S, T1)"
    },
    {
      "mesh": 0,
      "name": "Renault (S, T1)_0"
    },
    {
      "mesh": 1,
      "name": "Renault (S, T1)_1"
    },
    {
      "mesh": 2,
      "name": "Renault (S, T1)_2"
    },
    {
      "mesh": 3,
      "name": "Renault (S, T1)_3"
    },
    {
      "mesh": 4,
      "name": "Renault (S, T1)_4"
    },
    {
      "mesh": 5,
      "name": "Renault (S, T1)_5"
    }
  ],
  "scene": 0,
  "scenes": [
    {
      "name": "OSG_Scene",
      "nodes": [
        0
      ]
    }
  ]
}
