{
  "accessors": [
    {
      "bufferView": 2,
      "componentType": 5126,
      "count": 106,
      "max": [
        0.9849070310592651,
        0.9119813442230225,
        2.02229642868042
      ],
      "min": [
        -0.9849070310592651,
        -0.9119818806648254,
        0.07216644287109375
      ],
      "type": "VEC3",
      "byteOffset": 0
    },
    {
      "bufferView": 2,
      "byteOffset": 1272,
      "componentType": 5126,
      "count": 106,
      "max": [
        0.8820021152496338,
        0.8853124380111694,
        1
      ],
      "min": [
        -0.8820021152496338,
        -0.8853124380111694,
        -1
      ],
      "type": "VEC3"
    },
    {
      "bufferView": 3,
      "componentType": 5126,
      "count": 106,
      "max": [
        0.9974132776260376,
        0.9995346069335938,
        0.885312557220459,
        1
      ],
      "min": [
        -0.9974132776260376,
        -0.9822173118591309,
        -0.8820021748542786,
        -1
      ],
      "type": "VEC4",
      "byteOffset": 0
    },
    {
      "bufferView": 1,
      "componentType": 5126,
      "count": 106,
      "max": [
        0.9828388094902039,
        0.9995203018188477
      ],
      "min": [
        0.0004796686989720911,
        0.0004796686989720911
      ],
      "type": "VEC2",
      "byteOffset": 0
    },
    {
      "bufferView": 0,
      "componentType": 5125,
      "count": 384,
      "max": [
        105
      ],
      "min": [
        0
      ],
      "type": "SCALAR",
      "byteOffset": 0
    },
    {
      "bufferView": 2,
      "byteOffset": 2544,
      "componentType": 5126,
      "count": 765,
      "max": [
        1.1297314167022705,
        1.0002150535583496,
        2.3176097869873047
      ],
      "min": [
        -1.1297314167022705,
        -1.0000004768371582,
        -0.4329007863998413
      ],
      "type": "VEC3"
    },
    {
      "bufferView": 2,
      "byteOffset": 11724,
      "componentType": 5126,
      "count": 765,
      "max": [
        0.9999529123306274,
        0.999954104423523,
        0.8934593796730042
      ],
      "min": [
        -0.9999529123306274,
        -0.999954104423523,
        -0.9583781361579895
      ],
      "type": "VEC3"
    },
    {
      "bufferView": 3,
      "byteOffset": 1696,
      "componentType": 5126,
      "count": 765,
      "max": [
        0.9935594201087952,
        0.9646962285041809,
        0.9977599382400513,
        1
      ],
      "min": [
        -0.9961788058280945,
        -0.980972409248352,
        -0.9999541640281677,
        -1
      ],
      "type": "VEC4"
    },
    {
      "bufferView": 1,
      "byteOffset": 848,
      "componentType": 5126,
      "count": 765,
      "max": [
        0.9937529563903809,
        0.9917095899581909
      ],
      "min": [
        0.0004796686989720911,
        0.0004796686989720911
      ],
      "type": "VEC2"
    },
    {
      "bufferView": 0,
      "byteOffset": 1536,
      "componentType": 5125,
      "count": 2430,
      "max": [
        764
      ],
      "min": [
        0
      ],
      "type": "SCALAR"
    },
    {
      "bufferView": 2,
      "byteOffset": 20904,
      "componentType": 5126,
      "count": 18,
      "max": [
        0.6111673712730408,
        0.9154749512672424,
        1.8120148181915283
      ],
      "min": [
        -0.6154758930206299,
        -0.5357598066329956,
        0.722623884677887
      ],
      "type": "VEC3"
    },
    {
      "bufferView": 2,
      "byteOffset": 21120,
      "componentType": 5126,
      "count": 18,
      "max": [
        0.998003363609314,
        0.8635308146476746,
        0.7806494235992432
      ],
      "min": [
        -0.998003363609314,
        -0.998003363609314,
        -0.9121905565261841
      ],
      "type": "VEC3"
    },
    {
      "bufferView": 3,
      "byteOffset": 13936,
      "componentType": 5126,
      "count": 18,
      "max": [
        0.9701924324035645,
        0.578350305557251,
        0.9976131319999695,
        1
      ],
      "min": [
        -0.9110620617866516,
        -0.5522042512893677,
        -0.3859858810901642,
        -1
      ],
      "type": "VEC4"
    },
    {
      "bufferView": 1,
      "byteOffset": 6968,
      "componentType": 5126,
      "count": 18,
      "max": [
        0.9580080509185791,
        0.765420138835907
      ],
      "min": [
        0.5571267604827881,
        0.0714171975851059
      ],
      "type": "VEC2"
    },
    {
      "bufferView": 0,
      "byteOffset": 11256,
      "componentType": 5125,
      "count": 30,
      "max": [
        17
      ],
      "min": [
        0
      ],
      "type": "SCALAR"
    },
    {
      "bufferView": 2,
      "byteOffset": 21336,
      "componentType": 5126,
      "count": 9,
      "max": [
        0.6192371845245361,
        -0.5987612009048462,
        0.5878090858459473
      ],
      "min": [
        0.1096443384885788,
        -0.8817806243896484,
        0.38646745681762695
      ],
      "type": "VEC3"
    },
    {
      "bufferView": 2,
      "byteOffset": 21444,
      "componentType": 5126,
      "count": 9,
      "max": [
        0.5886808633804321,
        -0.4611744284629822,
        -0.2822704017162323
      ],
      "min": [
        0.013214817270636559,
        -0.9491509795188904,
        -0.8048807382583618
      ],
      "type": "VEC3"
    },
    {
      "bufferView": 3,
      "byteOffset": 14224,
      "componentType": 5126,
      "count": 9,
      "max": [
        -0.7720167636871338,
        -0.06050420552492142,
        0.06684417277574539,
        1
      ],
      "min": [
        -0.9960315227508545,
        -0.6321471929550171,
        -0.06618232280015945,
        1
      ],
      "type": "VEC4"
    },
    {
      "bufferView": 1,
      "byteOffset": 7112,
      "componentType": 5126,
      "count": 9,
      "max": [
        0.9468704462051392,
        0.33701789379119873
      ],
      "min": [
        0.7943564057350159,
        0.2767373323440552
      ],
      "type": "VEC2"
    },
    {
      "bufferView": 0,
      "byteOffset": 11376,
      "componentType": 5125,
      "count": 24,
      "max": [
        8
      ],
      "min": [
        0
      ],
      "type": "SCALAR"
    },
    {
      "bufferView": 4,
      "componentType": 5126,
      "count": 38,
      "max": [
        1.2083333730697632
      ],
      "min": [
        0
      ],
      "type": "SCALAR",
      "byteOffset": 0
    },
    {
      "bufferView": 5,
      "componentType": 5126,
      "count": 38,
      "max": [
        0,
        146.8382568359375,
        0
      ],
      "min": [
        0,
        0,
        0
      ],
      "type": "VEC3",
      "byteOffset": 0
    },
    {
      "bufferView": 4,
      "byteOffset": 152,
      "componentType": 5126,
      "count": 38,
      "max": [
        1.2083333730697632
      ],
      "min": [
        0
      ],
      "type": "SCALAR"
    },
    {
      "bufferView": 6,
      "componentType": 5126,
      "count": 38,
      "max": [
        0.5000000596046448,
        0.7068668007850647,
        0.7068668007850647,
        0.7071067690849304
      ],
      "min": [
        -0.7071068286895752,
        -0.4999999403953552,
        -0.5,
        -0.5
      ],
      "type": "VEC4",
      "byteOffset": 0
    }
  ],
  "animations": [
    {
      "channels": [
        {
          "sampler": 0,
          "target": {
            "node": 5,
            "path": "translation"
          }
        },
        {
          "sampler": 1,
          "target": {
            "node": 5,
            "path": "rotation"
          }
        }
      ],
      "name": "Sphere|SphereAction",
      "samplers": [
        {
          "input": 20,
          "interpolation": "LINEAR",
          "output": 21
        },
        {
          "input": 22,
          "interpolation": "LINEAR",
          "output": 23
        }
      ]
    }
  ],
  "asset": {
    "extras": {
      "author": "raghaviyer (https://sketchfab.com/raghaviyer)",
      "license": "CC-BY-4.0 (http://creativecommons.org/licenses/by/4.0/)",
      "source": "https://sketchfab.com/3d-models/simple-sci-fi-drone-3d201d35eafc402088435c264560ced3",
      "title": "Simple Sci-fi drone"
    },
    "generator": "Sketchfab-6.30.0",
    "version": "2.0"
  },
  "bufferViews": [
    {
      "buffer": 0,
      "byteLength": 11472,
      "byteOffset": 0,
      "name": "floatBufferViews",
      "target": 34963
    },
    {
      "buffer": 0,
      "byteLength": 7184,
      "byteOffset": 11472,
      "byteStride": 8,
      "name": "floatBufferViews",
      "target": 34962
    },
    {
      "buffer": 0,
      "byteLength": 21552,
      "byteOffset": 18656,
      "byteStride": 12,
      "name": "floatBufferViews",
      "target": 34962
    },
    {
      "buffer": 0,
      "byteLength": 14368,
      "byteOffset": 40208,
      "byteStride": 16,
      "name": "floatBufferViews",
      "target": 34962
    },
    {
      "buffer": 0,
      "byteLength": 304,
      "byteOffset": 54576,
      "name": "floatBufferViews"
    },
    {
      "buffer": 0,
      "byteLength": 456,
      "byteOffset": 54880,
      "byteStride": 12,
      "name": "floatBufferViews"
    },
    {
      "buffer": 0,
      "byteLength": 608,
      "byteOffset": 55336,
      "byteStride": 16,
      "name": "floatBufferViews"
    }
  ],
  "buffers": [
    {
      "name": "scene",
      "byteLength": 55944,
      "uri": "data:application/octet-stream;base64,"
    }
  ],
  "materials": [
    {
      "doubleSided": true,
      "emissiveFactor": [
        0.009134058702220782,
        0.590618840919337,
        0.7912979403326302
      ],
      "name": "DroneGlowmat",
      "pbrMetallicRoughness": {
        "baseColorFactor": [
          0.009134058702220782,
          0.590618840919337,
          0.7912979403326302,
          1
        ],
        "metallicFactor": 0,
        "roughnessFactor": 0.9577051494623774
      },
      "alphaMode": "OPAQUE"
    },
    {
      "doubleSided": true,
      "emissiveFactor": [
        0,
        0,
        0
      ],
      "name": "Body",
      "pbrMetallicRoughness": {
        "baseColorFactor": [
          0.0027398010904408385,
          0.0025215868442995328,
          0.0025215868442995328,
          1
        ],
        "metallicFactor": 0.37366615853658536,
        "roughnessFactor": 0.13586128048780488
      },
      "alphaMode": "OPAQUE"
    },
    {
      "doubleSided": true,
      "emissiveFactor": [
        0,
        0,
        0
      ],
      "name": "DroneHole",
      "pbrMetallicRoughness": {
        "baseColorFactor": [
          0.009134058702220782,
          0.590618840919337,
          0.7912979403326302,
          1
        ],
        "metallicFactor": 0,
        "roughnessFactor": 0.9577051494623774
      },
      "alphaMode": "OPAQUE"
    },
    {
      "doubleSided": true,
      "emissiveFactor": [
        0,
        0,
        0
      ],
      "name": "DroneBoard",
      "pbrMetallicRoughness": {
        "baseColorFactor": [
          0.018704943955272956,
          0.01647886633695395,
          0.01647886633695395,
          1
        ],
        "metallicFactor": 0.4468368902439025,
        "roughnessFactor": 0.9577051494623774
      },
      "alphaMode": "OPAQUE"
    }
  ],
  "meshes": [
    {
      "name": "Sphere_DroneGlowmat_0",
      "primitives": [
        {
          "attributes": {
            "NORMAL": 1,
            "POSITION": 0,
            "TANGENT": 2,
            "TEXCOORD_0": 3
          },
          "indices": 4,
          "material": 0,
          "mode": 4
        }
      ]
    },
    {
      "name": "Sphere_Body_0",
      "primitives": [
        {
          "attributes": {
            "NORMAL": 6,
            "POSITION": 5,
            "TANGENT": 7,
            "TEXCOORD_0": 8
          },
          "indices": 9,
          "material": 1,
          "mode": 4
        }
      ]
    },
    {
      "name": "Sphere_DroneHole_0",
      "primitives": [
        {
          "attributes": {
            "NORMAL": 11,
            "POSITION": 10,
            "TANGENT": 12,
            "TEXCOORD_0": 13
          },
          "indices": 14,
          "material": 2,
          "mode": 4
        }
      ]
    },
    {
      "name": "Sphere_DroneBoard_0",
      "primitives": [
        {
          "attributes": {
            "NORMAL": 16,
            "POSITION": 15,
            "TANGENT": 17,
            "TEXCOORD_0": 18
          },
          "indices": 19,
          "material": 3,
          "mode": 4
        }
      ]
    }
  ],
  "nodes": [
    {
      "children": [
        1
      ],
      "name": "RootNode (gltf orientation matrix)",
      "rotation": [
        -0.7071067811865475,
        0,
        0,
        0.7071067811865476
      ],
      "translation": [
        0,
        0,
        0
      ],
      "scale": [
        1,
        1,
        1
      ]
    },
    {
      "children": [
        2
      ],
      "name": "RootNode (model correction matrix)"
    },
    {
      "children": [
        3
      ],
      "matrix": [
        1,
        0,
        0,
        0,
        0,
        0,
        1,
        0,
        0,
        -1,
        0,
        0,
        0,
        0,
        0,
        1
      ],
      "name": "f245ea84d6d44b08bedf930b67748404.fbx"
    },
    {
      "children": [
        4
      ],
      "name": ""
    },
    {
      "children": [
        5
      ],
      "name": "RootNode"
    },
    {
      "children": [
        6,
        7,
        8,
        9
      ],
      "name": "Sphere",
      "rotation": [
        -0.6613165140151978,
        0.25032079219818115,
        0.25032079219818115,
        0.661316454410553
      ],
      "scale": [
        100,
        100,
        100
      ],
      "translation": [
        0,
        0,
        0
      ]
    },
    {
      "mesh": 0,
      "name": "Sphere_DroneGlowmat_0"
    },
    {
      "mesh": 1,
      "name": "Sphere_Body_0"
    },
    {
      "mesh": 2,
      "name": "Sphere_DroneHole_0"
    },
    {
      "mesh": 3,
      "name": "Sphere_DroneBoard_0"
    }
  ],
  "scene": 0,
  "scenes": [
    {
      "name": "OSG_Scene",
      "nodes": [
        0
      ]
    }
  ]
}