<svg width="74" height="74" viewBox="0 0 74 74" fill="none" xmlns="http://www.w3.org/2000/svg">
<path fill-rule="evenodd" clip-rule="evenodd" d="M4 0C1.79086 0 0 1.79086 0 4V70C0 72.2091 1.79086 74 4 74H70C72.2091 74 74 72.2091 74 70V4C74 1.79086 72.2091 0 70 0H4ZM15.5625 55.3625C13.3534 55.3625 11.5625 57.1534 11.5625 59.3625C11.5625 61.5716 13.3534 63.3625 15.5625 63.3625H58.9C61.1091 63.3625 62.9 61.5716 62.9 59.3625C62.9 57.1534 61.1091 55.3625 58.9 55.3625H15.5625ZM27.2875 37C27.2875 41.3423 23.7673 44.8625 19.425 44.8625C15.0827 44.8625 11.5625 41.3423 11.5625 37C11.5625 32.6577 15.0827 29.1375 19.425 29.1375C23.7673 29.1375 27.2875 32.6577 27.2875 37ZM55.0375 44.8625C59.3798 44.8625 62.9 41.3423 62.9 37C62.9 32.6577 59.3798 29.1375 55.0375 29.1375C50.6952 29.1375 47.175 32.6577 47.175 37C47.175 41.3423 50.6952 44.8625 55.0375 44.8625Z" fill="#4F4F4F"/>
</svg>
