<svg width="934" height="934" viewBox="0 0 934 934" fill="none" xmlns="http://www.w3.org/2000/svg">
<path d="M357.84 33.2164C358.228 32.5691 359.166 32.5691 359.555 33.2164L594.818 425.321C595.217 425.988 594.737 426.836 593.96 426.836H123.434C122.657 426.836 122.177 425.988 122.577 425.321L357.84 33.2164Z" fill="#82DBC5"/>
<path d="M457.456 269.817C457.456 269.265 457.904 268.817 458.456 268.817H812C812.552 268.817 813 269.265 813 269.817V623.361C813 623.913 812.552 624.361 812 624.361H458.456C457.904 624.361 457.456 623.913 457.456 623.361V269.817Z" fill="#4F4F4F"/>
<circle cx="467.334" cy="660.274" r="188.546" fill="#EFAC35"/>
</svg>
