<?xml version="1.0" encoding="UTF-8" standalone="no"?>
<svg
   sodipodi:docname="tres_shapes_stack_white.svg"
   id="svg5369"
   version="1.1"
   height="140"
   width="100"
   xml:space="preserve"
   inkscape:version="1.2 (dc2aeda, 2022-05-15)"
   viewBox="0 0 25 35"
   xmlns:inkscape="http://www.inkscape.org/namespaces/inkscape"
   xmlns:sodipodi="http://sodipodi.sourceforge.net/DTD/sodipodi-0.dtd"
   xmlns="http://www.w3.org/2000/svg"
   xmlns:svg="http://www.w3.org/2000/svg"><defs
     id="defs5373" /><sodipodi:namedview
     id="namedview5371"
     pagecolor="#ffffff"
     bordercolor="#000000"
     borderopacity="0.25"
     inkscape:showpageshadow="2"
     inkscape:pageopacity="0.0"
     inkscape:pagecheckerboard="0"
     inkscape:deskcolor="#d1d1d1"
     showgrid="true"
     inkscape:zoom="3.115"
     inkscape:cx="47.993579"
     inkscape:cy="-38.041734"
     inkscape:window-width="1390"
     inkscape:window-height="977"
     inkscape:window-x="249"
     inkscape:window-y="60"
     inkscape:window-maximized="0"
     inkscape:current-layer="svg5369"><inkscape:grid
       type="xygrid"
       id="grid5505"
       originx="-1.25"
       originy="6.875e-09" /></sodipodi:namedview><path
     id="triangle"
     d="M 8.6679688,0 C 8.1188622,0 7.5694751,0.26702075 7.2480469,0.80273438 L 0.23632812,12.492188 A 1.6564285,1.6564285 0 0 0 1.65625,15 h 6.3476562 c 4.65e-5,-0.02408 -4.43e-5,-0.04818 0,-0.07227 0.00182,-0.986768 0.00141,-1.97256 -0.00391,-2.95898 -0.012215,-0.126658 -0.016072,-0.253295 -0.013672,-0.378906 0.0024,-0.125611 0.011109,-0.251358 0.027344,-0.375 0.016235,-0.123642 0.039069,-0.246437 0.068359,-0.367188 0.02929,-0.12075 0.065857,-0.238532 0.1074219,-0.355468 0.041565,-0.116937 0.087565,-0.231549 0.140625,-0.34375 C 8.3831379,10.036236 8.4420848,9.926856 8.5058594,9.8203125 8.569634,9.713769 8.6391811,9.6097291 8.7128906,9.5097656 8.7866001,9.4098021 8.8644013,9.3131646 8.9472656,9.2207031 9.03013,9.1282417 9.1177452,9.0391153 9.2089844,8.9550781 9.3002236,8.8710409 9.3953066,8.7914877 9.4941406,8.7167969 9.5929746,8.642106 9.6951324,8.5722348 9.8007812,8.5078125 9.9064301,8.4433902 10.01527,8.3852629 10.126953,8.3320312 c 0.111684,-0.053232 0.226812,-0.1014592 0.34375,-0.1425781 0.116939,-0.041119 0.236009,-0.075432 0.357422,-0.1035156 0.121413,-0.028084 0.244033,-0.050326 0.369141,-0.064453 0.125108,-0.014127 0.252836,-0.020284 0.380859,-0.019531 0.942719,-0.00114 1.885388,2.955e-4 2.828125,0 L 10.087891,0.80273438 C 9.7664629,0.26702075 9.2170753,0 8.6679688,0 Z"
     style="fill:#ffffff" /><path
     id="square"
     style="fill:#ffffff;fill-opacity:1"
     d="M 11.667969,10 C 10.744373,10 10,10.744373 10,11.667969 v 6.6875 c 0.08217,-0.0226 0.163344,-0.04596 0.246094,-0.06641 0.135969,-0.03359 0.272837,-0.06408 0.410156,-0.0918 0.137319,-0.02772 0.275644,-0.05244 0.414062,-0.07422 0.138419,-0.02178 0.276749,-0.04088 0.416016,-0.05664 0.139268,-0.01576 0.280057,-0.02938 0.419922,-0.03906 0.139865,-0.0097 0.279711,-0.016 0.419922,-0.01953 0.189929,-0.0054 0.378997,-0.0049 0.568359,0.002 0.189363,0.0068 0.378188,0.02032 0.566407,0.03906 0.188218,0.01874 0.376001,0.04387 0.5625,0.07422 0.186498,0.03035 0.372439,0.06577 0.55664,0.107422 0.184201,0.04165 0.367502,0.08798 0.548828,0.140625 0.181327,0.05265 0.361188,0.11049 0.539063,0.173828 0.177875,0.06334 0.353497,0.133304 0.527343,0.207031 0.173847,0.07373 0.346385,0.152516 0.515626,0.236328 0.16924,0.08381 0.335941,0.172033 0.5,0.265625 0.164058,0.09359 0.324123,0.191853 0.482421,0.294922 0.158299,0.103069 0.314835,0.211978 0.466797,0.324219 0.151962,0.112241 0.300265,0.228501 0.445313,0.349609 0.145048,0.121109 0.286271,0.245328 0.423828,0.375 0.137557,0.129672 0.270901,0.264413 0.400391,0.402344 0.129489,0.137931 0.254155,0.279896 0.375,0.425781 0.120844,0.145886 0.237986,0.295683 0.349609,0.449219 0.119818,0.159335 0.233573,0.321729 0.341797,0.488281 0.108223,0.166552 0.210061,0.336745 0.30664,0.509766 0.09658,0.173021 0.188553,0.350554 0.273438,0.529297 0.08488,0.178742 0.163186,0.359253 0.236328,0.542968 0.07314,0.183716 0.139823,0.370653 0.201172,0.558594 0.05354,0.164033 0.101958,0.329376 0.146484,0.496094 h 1.671875 C 24.255627,25 25,24.255627 25,23.332031 V 11.667969 C 25,10.744373 24.255627,10 23.332031,10 Z" /><path
     id="circle"
     style="fill:#ffffff"
     d="M 20.000001,27.5 A 7.500001,7.500001 0 0 1 12.5,35.000001 7.500001,7.500001 0 0 1 4.999999,27.5 7.500001,7.500001 0 0 1 12.5,19.999999 7.500001,7.500001 0 0 1 20.000001,27.5 Z"
     inkscape:label="circle" /></svg>
