<svg width="93" height="93" viewBox="0 0 93 93" fill="none" xmlns="http://www.w3.org/2000/svg">
<path d="M25.8966 53.3637C26.6776 52.5821 27.9445 52.5819 28.7257 53.3634L39.5958 64.2365C40.3765 65.0174 40.3766 66.2832 39.5961 67.0643L36.947 69.7153C36.1664 70.4964 36.1666 71.7624 36.9475 72.5432L39.6027 75.1984C40.3837 75.9795 40.3837 77.2458 39.6027 78.0268L36.9518 80.6777C36.1708 81.4587 34.9045 81.4587 34.1234 80.6777L27.3612 73.9155C26.5802 73.1344 25.3138 73.1344 24.5328 73.9155L16.3988 82.0494C15.6178 82.8305 14.3515 82.8305 13.5704 82.0494L10.9193 79.3983C10.1384 78.6174 10.1383 77.3513 10.9191 76.5702L19.0537 68.4326C19.8347 67.6514 19.8344 66.3851 19.0532 65.6042L12.2919 58.8456C11.5106 58.0646 11.5105 56.798 12.2916 56.0169L14.9427 53.3658C15.7235 52.585 16.9895 52.5848 17.7706 53.3653L20.4209 56.0138C21.2022 56.7946 22.4686 56.7941 23.2493 56.0128L25.8966 53.3637ZM11.6261 13.6278C11.6255 12.5222 12.5221 11.6258 13.6278 11.6267L24.5383 11.6359C25.0681 11.6364 25.5762 11.8471 25.9508 12.2218L69.7429 56.0175C70.5237 56.7985 71.7897 56.7987 72.5709 56.0181L75.226 53.3648C76.007 52.5845 77.2725 52.5845 78.0535 53.3648L80.7077 56.0172C81.4892 56.7981 81.4894 58.0648 80.7082 58.8461L73.9462 65.608C73.1653 66.389 73.1651 67.6551 73.946 68.4362L82.077 76.5702C82.8578 77.3513 82.8577 78.6174 82.0768 79.3983L79.4257 82.0494C78.6447 82.8305 77.3783 82.8305 76.5973 82.0494L68.4636 73.9157C67.6825 73.1346 66.4159 73.1347 65.6349 73.916L58.8761 80.6776C58.0953 81.4587 56.8291 81.4591 56.0479 80.6784L53.394 78.0263C52.6126 77.2456 52.6122 75.9792 53.393 75.1979L56.0452 72.5438C56.8258 71.7626 56.8256 70.4966 56.0447 69.7158L12.2181 25.893C11.8433 25.5182 11.6326 25.0099 11.6323 24.4798L11.6261 13.6278ZM67.6459 11.625L79.3778 11.6349C80.4813 11.6359 81.3755 12.5303 81.3761 13.6338L81.3823 24.459C81.3826 24.9899 81.1718 25.4992 80.7963 25.8745L67.0914 39.5761C66.3104 40.3569 65.0443 40.3569 64.2633 39.5761L53.39 28.7058C52.6087 27.9248 52.6087 26.6583 53.3898 25.8772L67.6392 11.6277C67.641 11.626 67.6434 11.625 67.6459 11.625V11.625Z" fill="#FBB03B"/>
</svg>
