<svg width="387" height="93" viewBox="0 0 387 93" fill="none" xmlns="http://www.w3.org/2000/svg">
<path d="M44.5703 12.7166C46.124 10.1273 49.8767 10.1273 51.4303 12.7166L92.3655 80.942C93.9652 83.6081 92.0447 87 88.9355 87H7.06507C3.95589 87 2.03544 83.6081 3.6351 80.942L44.5703 12.7166Z" fill="#82DBC5"/>
<rect x="153.7" y="12.3" width="74.7" height="74.7" rx="4" fill="#4F4F4F"/>
<path d="M319.897 53.3637C320.678 52.5821 321.944 52.5819 322.726 53.3634L333.596 64.2365C334.376 65.0174 334.377 66.2832 333.596 67.0643L330.947 69.7153C330.166 70.4964 330.167 71.7624 330.947 72.5432L333.603 75.1984C334.384 75.9795 334.384 77.2458 333.603 78.0268L330.952 80.6777C330.171 81.4587 328.904 81.4587 328.123 80.6777L321.361 73.9155C320.58 73.1344 319.314 73.1344 318.533 73.9155L310.399 82.0494C309.618 82.8305 308.351 82.8305 307.57 82.0494L304.919 79.3983C304.138 78.6174 304.138 77.3513 304.919 76.5702L313.054 68.4326C313.835 67.6514 313.834 66.3851 313.053 65.6042L306.292 58.8456C305.511 58.0646 305.51 56.798 306.292 56.0169L308.943 53.3658C309.724 52.585 310.989 52.5848 311.771 53.3653L314.421 56.0138C315.202 56.7946 316.469 56.7941 317.249 56.0128L319.897 53.3637ZM305.626 13.6278C305.626 12.5222 306.522 11.6258 307.628 11.6267L318.538 11.6359C319.068 11.6364 319.576 11.8471 319.951 12.2218L363.743 56.0175C364.524 56.7985 365.79 56.7987 366.571 56.0181L369.226 53.3648C370.007 52.5845 371.273 52.5845 372.053 53.3648L374.708 56.0172C375.489 56.7981 375.489 58.0648 374.708 58.8461L367.946 65.608C367.165 66.389 367.165 67.6551 367.946 68.4362L376.077 76.5702C376.858 77.3513 376.858 78.6174 376.077 79.3983L373.426 82.0494C372.645 82.8305 371.378 82.8305 370.597 82.0494L362.464 73.9157C361.682 73.1346 360.416 73.1347 359.635 73.916L352.876 80.6776C352.095 81.4587 350.829 81.4591 350.048 80.6784L347.394 78.0263C346.613 77.2456 346.612 75.9792 347.393 75.1979L350.045 72.5438C350.826 71.7626 350.826 70.4966 350.045 69.7158L306.218 25.893C305.843 25.5182 305.633 25.0099 305.632 24.4798L305.626 13.6278ZM361.646 11.625L373.378 11.6349C374.481 11.6359 375.376 12.5303 375.376 13.6338L375.382 24.459C375.383 24.9899 375.172 25.4992 374.796 25.8745L361.091 39.5761C360.31 40.3569 359.044 40.3569 358.263 39.5761L347.39 28.7058C346.609 27.9248 346.609 26.6583 347.39 25.8772L361.639 11.6277C361.641 11.626 361.643 11.625 361.646 11.625V11.625Z" fill="#FBB03B"/>
</svg>
