<svg width="186" height="157" viewBox="0 0 186 157" fill="none" xmlns="http://www.w3.org/2000/svg">
<path fill-rule="evenodd" clip-rule="evenodd" d="M89.5706 2.71644C91.1243 0.12708 94.877 0.127071 96.4306 2.71643L185.366 150.942C186.965 153.608 185.045 157 181.936 157H4.06538C0.956201 157 -0.964248 153.608 0.635411 150.942L89.5706 2.71644ZM108 76.9998C108 85.2841 101.284 91.9998 93 91.9998C84.7157 91.9998 78 85.2841 78 76.9998C78 68.7155 84.7157 61.9998 93 61.9998C101.284 61.9998 108 68.7155 108 76.9998ZM70 113C70 111.895 70.8954 111 72 111H113C114.105 111 115 111.895 115 113V130C115 130.213 114.967 130.419 114.905 130.611C114.968 131.068 115 131.532 115 132C115 140.284 104.926 147 92.5 147C80.0736 147 70 140.284 70 132C70 131.532 70.0322 131.068 70.0951 130.611C70.0333 130.419 70 130.213 70 130V113Z" fill="#82DBC5"/>
</svg>
