<svg width="359" height="80" viewBox="0 0 359 80" fill="none" xmlns="http://www.w3.org/2000/svg">
<path d="M44.5703 5.71662C46.124 3.12726 49.8767 3.12726 51.4303 5.71662L92.3655 73.942C93.9652 76.6081 92.0447 80 88.9355 80H7.06507C3.95589 80 2.03544 76.6081 3.6351 73.942L44.5703 5.71662Z" fill="#82DBC5"/>
<rect x="155" y="5.30005" width="74.7" height="74.7" rx="4" fill="#4F4F4F"/>
<path d="M357.787 71.0349L335.087 32.9804V11.92H338.031C338.812 11.92 339.56 11.6081 340.113 11.053C340.665 10.4979 340.975 9.74504 340.975 8.96C340.975 8.17496 340.665 7.42207 340.113 6.86696C339.56 6.31186 338.812 6 338.031 6H308.594C307.814 6 307.065 6.31186 306.513 6.86696C305.961 7.42207 305.651 8.17496 305.651 8.96C305.651 9.74504 305.961 10.4979 306.513 11.053C307.065 11.6081 307.814 11.92 308.594 11.92H311.538V32.9804L288.839 71.0349C288.303 71.9324 288.014 72.9566 288 74.0031C287.987 75.0496 288.25 76.081 288.762 76.9921C289.274 77.9033 290.017 78.6618 290.915 79.1902C291.813 79.7185 292.835 79.998 293.876 80H352.749C353.791 79.9999 354.814 79.7219 355.714 79.1943C356.614 78.6668 357.359 77.9085 357.872 76.997C358.385 76.0854 358.649 75.0533 358.636 74.0058C358.623 72.9584 358.334 71.9332 357.798 71.0349H357.787ZM324.641 55.1582C318.787 52.1797 313.216 50.5998 308.002 50.4185L317.006 35.3225C317.281 34.8636 317.426 34.3377 317.425 33.8018V11.92H329.2V33.8018C329.199 34.3377 329.344 34.8636 329.619 35.3225L343.683 58.91C339.282 59.7758 332.986 59.4058 324.641 55.1582Z" fill="#FBB03B"/>
</svg>
