<svg xmlns="http://www.w3.org/2000/svg" xml:space="preserve" width="107" height="1293" style="fill-rule:evenodd;clip-rule:evenodd;stroke-linecap:round;stroke-linejoin:round">
  <g id="shape-cecb00c8-e6c7-8042-8001-e06443884b22">
    <g id="square">
      <g id="shape-cecb00c8-e6c7-8042-8001-e0644388c4e0">
        <g id="shape-cecb00c8-e6c7-8042-8001-e06443897ed5">
          <g id="shape-cecb00c8-e6c7-8042-8001-e0644389ad4a">
            <path id="fills-cecb00c8-e6c7-8042-8001-e0644389ad4a" d="M100 1204a4 4 0 0 0-4.001-4H11.001A4 4 0 0 0 7 1204v85a4 4 0 0 0 4.001 4h84.998a4 4 0 0 0 4.001-4v-85Z" style="fill:#4f4f4f"/>
          </g>
        </g>
      </g>
    </g>
    <g id="lightning">
      <g id="shape-cecb00c8-e6c7-8042-8001-e0644389d68c">
        <g id="shape-cecb00c8-e6c7-8042-8001-e0644389d68d">
          <g id="shape-cecb00c8-e6c7-8042-8001-e064438a6859">
            <path id="fills-cecb00c8-e6c7-8042-8001-e064438a6859" d="m59.794 1050.84-26.61 48.82a1.49 1.49 0 0 0 .045 1.51c.142.23.342.42.582.55.24.13.511.2.786.2h12.316c.233 0 .464.05.675.14.212.1.4.24.55.41.305.34.435.81.351 1.26l-6.771 37.46c-.049.27-.022.55.078.8.099.26.269.49.49.66.455.36 1.062.45 1.601.24.346-.14.634-.39.812-.7l29.11-51.73c.382-.69.175-1.55-.477-1.99l-.64-.46a1.725 1.725 0 0 0-.96-.29l-13.198.27c-.235 0-.47-.05-.684-.14a1.46 1.46 0 0 1-.558-.41 1.488 1.488 0 0 1-.357-1.27l6.222-34.04c.048-.26.025-.53-.067-.79-.093-.25-.25-.47-.455-.65l-.356-.3a1.86 1.86 0 0 0-.634-.34 1.764 1.764 0 0 0-.723-.03c-.24.05-.467.14-.662.29a1.55 1.55 0 0 0-.466.53Z" style="fill:#4f4f4f;fill-rule:nonzero"/>
          </g>
        </g>
      </g>
    </g>
    <g id="wheel">
      <g id="shape-cecb00c8-e6c7-8042-8001-e064438a685b">
        <g id="shape-cecb00c8-e6c7-8042-8001-e064438aa039">
          <g id="shape-cecb00c8-e6c7-8042-8001-e064438b75df">
            <path id="fills-cecb00c8-e6c7-8042-8001-e064438b75df" d="m5.774 941.685 9.784.482a38.556 38.556 0 0 1 4.863-14.948 38.22 38.22 0 0 1 10.41-11.717l-5.345-8.278c-1.289-2.311-.621-5.247 1.766-6.594 2.385-1.3 5.201-.53 6.538 1.78l4.438 8.76a38.38 38.38 0 0 1 30.545 0l4.439-8.76c1.335-2.31 4.151-3.08 6.538-1.78 2.386 1.347 3.054 4.283 1.766 6.594l-5.345 8.278a38.204 38.204 0 0 1 10.409 11.717 38.54 38.54 0 0 1 4.863 14.948l9.783-.482c1.266 0 2.48.507 3.376 1.41a4.842 4.842 0 0 1 0 6.807 4.754 4.754 0 0 1-3.376 1.41l-9.783-.482a38.522 38.522 0 0 1-4.863 14.948 38.267 38.267 0 0 1-10.409 11.721l5.345 8.27c1.288 2.311.62 5.251-1.766 6.601-2.387 1.3-5.203.53-6.538-1.78l-4.439-8.761a38.41 38.41 0 0 1-15.273 3.17 38.409 38.409 0 0 1-15.272-3.17l-4.438 8.761c-1.337 2.31-4.153 3.08-6.538 1.78-2.387-1.35-3.055-4.29-1.766-6.601l5.345-8.27a38.259 38.259 0 0 1-10.41-11.721 38.54 38.54 0 0 1-4.863-14.948l-9.784.482a4.752 4.752 0 0 1-3.375-1.41 4.84 4.84 0 0 1 0-6.807 4.752 4.752 0 0 1 3.375-1.41Zm33.742 1.685c.622-2.936 2.196-5.535 4.44-7.509l-7.923-12.225a28.895 28.895 0 0 0-10.929 19.012l14.412.722ZM53.5 932.059c1.528 0 2.96.241 4.296.674l6.586-12.947A28.138 28.138 0 0 0 53.5 917.62c-3.866 0-7.541.77-10.881 2.166l6.586 12.947a13.86 13.86 0 0 1 4.295-.674Zm13.984 11.311 14.413-.722a28.891 28.891 0 0 0-10.929-19.012l-7.922 12.225c2.243 1.974 3.818 4.573 4.438 7.509Zm0 6.257c-.62 2.936-2.195 5.535-4.438 7.509l7.922 12.225a28.891 28.891 0 0 0 10.929-19.012l-14.413-.722ZM53.5 960.938a14.39 14.39 0 0 1-4.342-.674l-6.539 12.944a28.06 28.06 0 0 0 10.881 2.17c3.866 0 7.541-.77 10.882-2.17l-6.539-12.944a14.386 14.386 0 0 1-4.343.674Zm-13.984-11.311-14.412.722c1.05 7.701 5.058 14.487 10.929 19.012l7.923-12.225c-2.244-1.974-3.818-4.573-4.44-7.509Z" style="fill:#4f4f4f;fill-rule:nonzero"/>
          </g>
        </g>
      </g>
    </g>
    <g id="umbrella">
      <g id="shape-cecb00c8-e6c7-8042-8001-e064438bac38">
        <g id="shape-cecb00c8-e6c7-8042-8001-e064438bac39">
          <g id="shape-cecb00c8-e6c7-8042-8001-e064438bac3a">
            <g id="shape-cecb00c8-e6c7-8042-8001-e064438c0cc1">
              <path id="fills-cecb00c8-e6c7-8042-8001-e064438c0cc1" d="M86.379 766.938A46.14 46.14 0 0 0 58.08 753.54a1.686 1.686 0 0 1-1.429-1.167 3.28 3.28 0 0 0-6.302 0 1.68 1.68 0 0 1-1.429 1.167C25.166 755.891 7.049 775.848 7 799.72a3.4 3.4 0 0 0 1.504 2.879 3.317 3.317 0 0 0 4.166-.431c4.201-4.202 11.01-4.208 15.218-.013a3.312 3.312 0 0 0 4.692.031 12.99 12.99 0 0 1 16.916-1.218c.429.323.682.83.683 1.368v30.603c0 1.786-1.371 3.322-3.154 3.414a3.305 3.305 0 0 1-1.321-.203 3.31 3.31 0 0 1-1.899-1.805 3.33 3.33 0 0 1-.269-1.31 3.324 3.324 0 0 0-3.382-3.321c-1.868.033-3.3 1.683-3.259 3.549A9.978 9.978 0 0 0 46.728 843c5.581.07 10.093-4.553 10.093-10.133v-30.531c0-.538.253-1.045.684-1.368a12.991 12.991 0 0 1 16.897 1.2 3.323 3.323 0 0 0 4.695 0c4.208-4.204 11.025-4.204 15.233 0a3.322 3.322 0 0 0 4.056.5 3.41 3.41 0 0 0 1.614-2.95 46.207 46.207 0 0 0-13.621-32.78Z" style="fill:#4f4f4f;fill-rule:nonzero"/>
            </g>
          </g>
        </g>
      </g>
    </g>
    <g id="zombie">
      <g id="shape-cecb00c8-e6c7-8042-8001-e064438c7f12">
        <g id="shape-cecb00c8-e6c7-8042-8001-e064438c7f13">
          <g id="shape-cecb00c8-e6c7-8042-8001-e064438cadb5">
            <path id="fills-cecb00c8-e6c7-8042-8001-e064438cadb5" d="M53.5 693c25.681 0 46.5-20.819 46.5-46.5S79.181 600 53.5 600 7 620.819 7 646.5 27.819 693 53.5 693Zm8.618-24.344a4 4 0 0 1-4 4h-9.235a4 4 0 0 1-4-4v-6.185h.035a8.618 8.618 0 0 1 17.164 0h.036v6.185Zm3.006-26.657a4.5 4.5 0 0 1 4.501-4.5h9.599a4.5 4.5 0 1 1 0 9.001h-9.599a4.5 4.5 0 0 1-4.501-4.501Zm-32.259 8.57a8.428 8.428 0 1 0 0-16.857 8.428 8.428 0 0 0 0 16.857Z" style="fill:#4f4f4f"/>
          </g>
        </g>
      </g>
    </g>
    <g id="cross">
      <g id="shape-cecb00c8-e6c7-8042-8001-e064438ce13d">
        <g id="shape-cecb00c8-e6c7-8042-8001-e064438ce13e">
          <g id="shape-cecb00c8-e6c7-8042-8001-e064438ce13f">
            <g id="shape-cecb00c8-e6c7-8042-8001-e064438ce140">
              <path id="fills-cecb00c8-e6c7-8042-8001-e064438ce140" d="m86.5 450-66 66" style="fill:none;fill-rule:nonzero"/>
            </g>
          </g>
        </g>
        <g id="shape-cecb00c8-e6c7-8042-8001-e064438d1bb1">
          <g id="shape-cecb00c8-e6c7-8042-8001-e064438d1bb2">
            <g id="shape-cecb00c8-e6c7-8042-8001-e064438d1bb3">
              <path id="fills-cecb00c8-e6c7-8042-8001-e064438d1bb3" d="m86.5 450-66 66" style="fill:none;fill-rule:nonzero"/>
            </g>
          </g>
          <g id="shape-cecb00c8-e6c7-8042-8001-e064438d1bb4">
            <g id="shape-cecb00c8-e6c7-8042-8001-e064438d1bb5">
              <g id="shape-cecb00c8-e6c7-8042-8001-e064438d1bb6">
                <path id="fills-cecb00c8-e6c7-8042-8001-e064438d1bb6" d="m86.5 450-66 66" style="fill:none;fill-rule:nonzero"/>
                <path id="strokes-cecb00c8-e6c7-8042-8001-e064438d1bb6" d="m86.5 450-66 66" style="fill:none;fill-rule:nonzero;stroke:#4f4f4f;stroke-width:41px"/>
              </g>
            </g>
          </g>
        </g>
      </g>
      <g id="shape-cecb00c8-e6c7-8042-8001-e064438d475c">
        <g id="shape-cecb00c8-e6c7-8042-8001-e064438d475d">
          <g id="shape-cecb00c8-e6c7-8042-8001-e064438d475e">
            <g id="shape-cecb00c8-e6c7-8042-8001-e064438d475f">
              <path id="fills-cecb00c8-e6c7-8042-8001-e064438d475f" d="m86.5 517-66-66" style="fill:none;fill-rule:nonzero"/>
            </g>
          </g>
        </g>
        <g id="shape-cecb00c8-e6c7-8042-8001-e064438d4760">
          <g id="shape-cecb00c8-e6c7-8042-8001-e064438dac3d">
            <g id="shape-cecb00c8-e6c7-8042-8001-e064438dac3e">
              <path id="fills-cecb00c8-e6c7-8042-8001-e064438dac3e" d="m86.5 517-66-66" style="fill:none;fill-rule:nonzero"/>
            </g>
          </g>
          <g id="shape-cecb00c8-e6c7-8042-8001-e064438dac3f">
            <g id="shape-cecb00c8-e6c7-8042-8001-e064438dac40">
              <g id="shape-cecb00c8-e6c7-8042-8001-e064438dac41">
                <path id="fills-cecb00c8-e6c7-8042-8001-e064438dac41" d="m86.5 517-66-66" style="fill:none;fill-rule:nonzero"/>
                <path id="strokes-cecb00c8-e6c7-8042-8001-e064438dac41" d="m86.5 517-66-66" style="fill:none;fill-rule:nonzero;stroke:#4f4f4f;stroke-width:41px"/>
              </g>
            </g>
          </g>
        </g>
      </g>
    </g>
    <g id="skull">
      <g id="shape-cecb00c8-e6c7-8042-8001-e064438de3a4">
        <g id="shape-cecb00c8-e6c7-8042-8001-e064438de3a5">
          <g id="shape-cecb00c8-e6c7-8042-8001-e064438e1fc0">
            <path id="fills-cecb00c8-e6c7-8042-8001-e064438e1fc0" d="M81.4 374.401v13.949a4.651 4.651 0 0 1-4.65 4.65h-46.5a4.651 4.651 0 0 1-4.65-4.65v-13.949H11.65A4.651 4.651 0 0 1 7 369.75V346.5C7 320.819 27.818 300 53.5 300s46.5 20.819 46.5 46.5v23.25a4.652 4.652 0 0 1-4.65 4.651H81.4ZM32.575 355.8a6.966 6.966 0 0 0 4.932-2.043 6.972 6.972 0 0 0 0-9.863 6.972 6.972 0 0 0-4.932-2.044 6.976 6.976 0 0 0 0 13.95Zm41.85 0a6.983 6.983 0 0 0 6.445-4.305 6.983 6.983 0 0 0-1.513-7.601 6.975 6.975 0 1 0-4.932 11.906Z" style="fill:#4f4f4f;fill-rule:nonzero"/>
          </g>
        </g>
      </g>
    </g>
    <g id="triangle">
      <g id="shape-cecb00c8-e6c7-8042-8001-e064438e1fc2">
        <g id="shape-cecb00c8-e6c7-8042-8001-e064438e1fc3">
          <g id="shape-cecb00c8-e6c7-8042-8001-e064438e5256">
            <path id="fills-cecb00c8-e6c7-8042-8001-e064438e5256" d="M50.085 151.938c1.547-2.584 5.283-2.584 6.83 0l21.644 36.148 26.867 44.87c1.593 2.66-.319 6.044-3.415 6.044H4.989c-3.096 0-5.008-3.384-3.415-6.044l48.511-81.018Z" style="fill:#4f4f4f;fill-rule:nonzero"/>
          </g>
        </g>
      </g>
    </g>
    <g id="robot">
      <g id="shape-cecb00c8-e6c7-8042-8001-e064438e808a">
        <g id="shape-cecb00c8-e6c7-8042-8001-e064438e808b">
          <g id="shape-cecb00c8-e6c7-8042-8001-e064438ec86f">
            <path id="fills-cecb00c8-e6c7-8042-8001-e064438ec86f" d="M11.001 0A4 4 0 0 0 7 4.001v84.998A4 4 0 0 0 11.001 93h84.998A4 4 0 0 0 100 88.999V4.001A4 4 0 0 0 95.999 0H11.001Zm14.53 71.63a4 4 0 0 0 0 8.001H82.05a4 4 0 0 0 0-8.001H25.531ZM41.293 46.5c0 5.457-4.423 9.881-9.881 9.881-5.457 0-9.881-4.424-9.881-9.881 0-5.458 4.424-9.881 9.881-9.881a9.88 9.88 0 0 1 9.881 9.881Zm34.876 9.881c5.457 0 9.881-4.424 9.881-9.881 0-5.458-4.424-9.881-9.881-9.881a9.88 9.88 0 0 0-9.881 9.881c0 5.457 4.423 9.881 9.881 9.881Z" style="fill:#4f4f4f"/>
          </g>
        </g>
      </g>
    </g>
  </g>
</svg>
