<svg width="24" height="26" viewBox="0 0 24 26" fill="none" xmlns="http://www.w3.org/2000/svg">
<path d="M12.5 0C9.45108 0.00337925 6.52804 1.17844 4.37212 3.2674C2.21621 5.35636 1.00349 8.18862 1 11.1429C1 13.9286 2.50458 17.5337 5.0262 20.7768C7.56339 24.0442 10.3569 26 12.5 26C14.6431 26 17.4366 24.0488 19.9738 20.7768C22.4954 17.5268 24 13.9286 24 11.1429C23.9965 8.18862 22.7838 5.35636 20.6279 3.2674C18.472 1.17844 15.5489 0.00337925 12.5 0ZM4.83333 11.6071C4.83333 11.2377 4.98478 10.8835 5.25437 10.6222C5.52395 10.361 5.88958 10.2143 6.27083 10.2143C7.41458 10.2143 8.51148 10.6545 9.32023 11.4382C10.129 12.2218 10.5833 13.2846 10.5833 14.3929C10.5833 14.7623 10.4319 15.1165 10.1623 15.3778C9.89272 15.639 9.52708 15.7857 9.14583 15.7857C8.00209 15.7857 6.90519 15.3455 6.09644 14.5618C5.28768 13.7782 4.83333 12.7154 4.83333 11.6071ZM14.4167 21.3571H10.5833C10.3292 21.3571 10.0854 21.2593 9.90569 21.0852C9.72597 20.911 9.625 20.6748 9.625 20.4286C9.625 20.1823 9.72597 19.9461 9.90569 19.772C10.0854 19.5978 10.3292 19.5 10.5833 19.5H14.4167C14.6708 19.5 14.9146 19.5978 15.0943 19.772C15.274 19.9461 15.375 20.1823 15.375 20.4286C15.375 20.6748 15.274 20.911 15.0943 21.0852C14.9146 21.2593 14.6708 21.3571 14.4167 21.3571ZM15.8542 15.7857C15.4729 15.7857 15.1073 15.639 14.8377 15.3778C14.5681 15.1165 14.4167 14.7623 14.4167 14.3929C14.4167 13.2846 14.871 12.2218 15.6798 11.4382C16.4885 10.6545 17.5854 10.2143 18.7292 10.2143C19.1104 10.2143 19.476 10.361 19.7456 10.6222C20.0152 10.8835 20.1667 11.2377 20.1667 11.6071C20.1667 12.1559 20.0551 12.6992 19.8384 13.2062C19.6217 13.7132 19.304 14.1738 18.9036 14.5618C18.5031 14.9499 18.0277 15.2576 17.5045 15.4676C16.9813 15.6776 16.4205 15.7857 15.8542 15.7857Z" fill="#5672CD"/>
</svg>
