<svg width="127" height="29" viewBox="0 0 127 29" fill="none" xmlns="http://www.w3.org/2000/svg">
<path d="M15.5426 2.42915C15.931 1.78181 16.8692 1.78182 17.2576 2.42915L29.8914 23.4855C30.2913 24.152 29.8112 25 29.0339 25H3.76628C2.98899 25 2.50888 24.152 2.90879 23.4855L15.5426 2.42915Z" fill="#82DBC5" stroke="#82DBC5"/>
<path d="M105.5 0C102.451 0.00337925 99.528 1.17844 97.3721 3.2674C95.2162 5.35636 94.0035 8.18862 94 11.1429C94 13.9286 95.5046 17.5337 98.0262 20.7768C100.563 24.0442 103.357 26 105.5 26C107.643 26 110.437 24.0488 112.974 20.7768C115.495 17.5268 117 13.9286 117 11.1429C116.997 8.18862 115.784 5.35636 113.628 3.2674C111.472 1.17844 108.549 0.00337925 105.5 0ZM97.8333 11.6071C97.8333 11.2377 97.9848 10.8835 98.2544 10.6222C98.524 10.361 98.8896 10.2143 99.2708 10.2143C100.415 10.2143 101.511 10.6545 102.32 11.4382C103.129 12.2218 103.583 13.2846 103.583 14.3929C103.583 14.7623 103.432 15.1165 103.162 15.3778C102.893 15.639 102.527 15.7857 102.146 15.7857C101.002 15.7857 99.9052 15.3455 99.0964 14.5618C98.2877 13.7782 97.8333 12.7154 97.8333 11.6071ZM107.417 21.3571H103.583C103.329 21.3571 103.085 21.2593 102.906 21.0852C102.726 20.911 102.625 20.6748 102.625 20.4286C102.625 20.1823 102.726 19.9461 102.906 19.772C103.085 19.5978 103.329 19.5 103.583 19.5H107.417C107.671 19.5 107.915 19.5978 108.094 19.772C108.274 19.9461 108.375 20.1823 108.375 20.4286C108.375 20.6748 108.274 20.911 108.094 21.0852C107.915 21.2593 107.671 21.3571 107.417 21.3571ZM108.854 15.7857C108.473 15.7857 108.107 15.639 107.838 15.3778C107.568 15.1165 107.417 14.7623 107.417 14.3929C107.417 13.2846 107.871 12.2218 108.68 11.4382C109.489 10.6545 110.585 10.2143 111.729 10.2143C112.11 10.2143 112.476 10.361 112.746 10.6222C113.015 10.8835 113.167 11.2377 113.167 11.6071C113.167 12.1559 113.055 12.6992 112.838 13.2062C112.622 13.7132 112.304 14.1738 111.904 14.5618C111.503 14.9499 111.028 15.2576 110.504 15.4676C109.981 15.6776 109.42 15.7857 108.854 15.7857Z" fill="#5672CD"/>
<rect x="49" y="1" width="24" height="24" rx="2" fill="#F2F2F2"/>
</svg>
