<svg width="404" height="80" viewBox="0 0 404 80" fill="none" xmlns="http://www.w3.org/2000/svg">
<path d="M44.5703 5.71662C46.124 3.12726 49.8767 3.12726 51.4303 5.71662L92.3655 73.942C93.9652 76.6081 92.0447 80 88.9355 80H7.06507C3.95589 80 2.03544 76.6081 3.6351 73.942L44.5703 5.71662Z" fill="#82DBC5"/>
<rect x="172" y="2.64999" width="74.7" height="74.7" rx="4" fill="#4F4F4F"/>
<path fill-rule="evenodd" clip-rule="evenodd" d="M363.2 77L357.327 71.6768C336.47 52.8441 322.7 40.3831 322.7 25.1798C322.7 12.7188 332.501 3 344.975 3C352.022 3 358.785 6.26648 363.2 11.388C367.614 6.26648 374.378 3 381.425 3C393.899 3 403.7 12.7188 403.7 25.1798C403.7 40.3831 389.93 52.8441 369.072 71.6768L363.2 77ZM356.402 34.8563C356.402 37.6767 354.106 39.963 351.274 39.963C348.441 39.963 346.145 37.6767 346.145 34.8563C346.145 32.0359 348.441 29.7496 351.274 29.7496C354.106 29.7496 356.402 32.0359 356.402 34.8563ZM375.696 39.963C378.528 39.963 380.825 37.6767 380.825 34.8563C380.825 32.0359 378.528 29.7496 375.696 29.7496C372.863 29.7496 370.567 32.0359 370.567 34.8563C370.567 37.6767 372.863 39.963 375.696 39.963Z" fill="#FBB03B"/>
</svg>
