<svg width="1024" height="1024" viewBox="0 0 1024 1024" fill="none" xmlns="http://www.w3.org/2000/svg">
    <path
        d="M193.247 626.666C200.056 626.445 200.719 630.699 201.798 635.217C212.205 678.766 230.133 719.041 255.238 756.085C260.463 763.795 266.611 770.875 272.007 778.478C274.598 782.129 277.181 782.396 280.879 780.486C285.015 778.35 289.237 776.246 293.64 774.791C300.101 772.655 300.695 769.246 297.67 763.601C287.476 744.571 278.33 725.065 271.462 704.532C263.871 681.84 257.476 658.884 253.65 635.211C252.631 628.91 254.278 626.555 260.573 626.686C270.193 626.886 279.824 626.905 289.441 626.649C294.747 626.508 296.932 628.19 297.849 633.868C304.357 674.146 317.027 712.415 336.16 748.531C339.378 754.605 342.526 757.116 349.843 754.312C359.831 750.485 370.394 748.156 381.65 744.914C379.786 735.447 378.223 726.366 376.152 717.403C374.882 711.904 376.592 709.894 382.145 709.939C391.47 710.015 400.805 709.847 410.121 709.438C416.109 709.175 418.954 711.485 420.296 717.508C424.681 737.201 424.837 736.736 445.213 734.076C457.302 732.497 469.536 730.66 481.782 731.786C490.514 732.589 492.347 728.083 492.092 720.865C491.814 713.002 491.754 705.132 491.557 697.266C491.402 691.09 494.17 688.135 500.532 688.476C509.845 688.975 519.168 689.371 528.492 689.539C533.553 689.631 535.007 692.325 534.962 696.788C534.871 705.827 535.304 714.895 534.712 723.899C534.287 730.365 536.829 731.97 542.731 731.739C560.85 731.031 578.731 733.903 596.612 736.208C601.786 736.875 603.261 734.878 604.453 730.633C610.276 709.898 610.343 709.917 631.362 710.584C631.945 710.602 632.528 710.603 633.111 710.614C653.831 710.978 653.834 710.979 648.608 731.495C648.033 733.753 647.536 736.047 646.745 738.231C644.589 744.187 646.986 746.621 652.874 747.837C661.706 749.662 670.542 751.794 679.052 754.734C684.894 756.752 687.403 754.773 689.989 749.916C709.333 713.585 722.441 675.166 728.561 634.474C729.467 628.453 731.727 626.501 737.445 626.671C746.77 626.946 756.109 626.882 765.438 626.715C771.099 626.614 773.191 628.456 772.203 634.548C764.916 679.483 751.398 722.333 730.16 762.67C728.551 765.726 726.962 768.791 724.919 772.704C731.86 776.138 738.367 779.211 744.732 782.555C749.214 784.91 751.195 781.682 753.293 778.999C772.943 753.877 790.205 727.32 802.529 697.732C815.135 667.466 823.892 636.186 828.126 603.659C828.276 602.505 828.385 601.343 828.459 600.181C829.276 587.275 829.067 586.959 815.924 586.945C746.535 586.874 677.146 587.003 607.759 586.627C599.515 586.582 597.019 591.096 593.792 596.991C590.494 603.016 594.775 605.727 597.717 608.873C605.481 617.174 613.699 625.047 621.513 633.303C624.672 636.64 628.336 637.226 632.578 637.201C648.616 637.107 664.656 637.122 680.695 637.21C692.727 637.276 700.984 644.416 701.513 654.995C702.026 665.242 693.854 674.326 682.086 674.51C653.516 674.958 624.933 674.596 596.355 674.551C591.974 674.544 588.647 672.43 585.661 669.385C577.496 661.063 569.064 652.996 561.076 644.511C557.103 640.291 553.675 639.232 548.172 642.163C524.918 654.544 501.133 654.31 477.659 642.991C471.303 639.926 467.209 640.221 462.454 645.38C454.753 653.736 446.375 661.464 438.487 669.653C435.023 673.248 431.249 674.98 426.163 674.947C398.751 674.767 371.337 674.94 343.925 674.752C332.036 674.671 323.507 666.716 323.589 656.459C323.677 645.261 331.977 637.311 343.987 637.22C360.317 637.095 376.651 636.994 392.979 637.237C398.403 637.318 402.302 635.577 405.933 631.56C413.36 623.345 421.236 615.534 428.929 607.56C431.375 605.025 434.238 602.609 431.807 598.543C429.102 594.019 428.628 587.456 421.36 587.071C414.956 586.733 408.554 586.072 402.15 586.065C342.367 585.994 282.584 586.048 222.8 586.037C160.702 586.026 98.6037 586.06 36.5058 585.908C18.6809 585.864 8.13058 570.284 15.2396 554.928C18.5586 547.759 24.4869 543.979 32.1769 542.609C40.5814 541.11 49.0444 541.676 57.4876 541.66C84.8799 541.609 112.276 541.404 139.663 541.784C148.144 541.902 150.876 539.262 151.655 530.446C164.756 382.144 272.319 244.402 431.13 207.074C545.782 180.126 648.464 206.884 739.416 279.317C811.972 337.101 855.494 413.789 870.681 504.682C888.498 611.326 864.068 709.441 797.941 795.294C736.557 874.987 654.574 921.891 554.688 933.94C438.62 947.94 338.86 910.458 256.487 828.823C203.002 775.818 169.925 710.79 155.621 636.515C154.205 629.161 155.822 626.243 163.582 626.573C173.184 626.98 182.816 626.659 193.247 626.666ZM245.464 541.501C288.328 541.518 331.193 541.543 374.057 541.549C389.22 541.551 404.404 541.027 419.539 541.669C428.019 542.029 428.132 535.516 430.915 530.842C433.546 526.422 430.862 523.957 427.99 521.202C420.627 514.137 413.243 507.078 406.214 499.687C402.704 495.996 398.924 494.507 393.879 494.577C377.552 494.802 361.22 494.803 344.892 494.646C331.983 494.521 323.63 486.713 323.618 475.212C323.607 464.409 332.044 457.059 344.832 457C363.786 456.914 382.916 458.615 401.652 456.592C428.097 453.736 448.961 460.62 463.716 483.339C463.872 483.58 464.133 483.752 464.298 483.989C467.162 488.098 470.219 487.962 474.732 485.877C499.889 474.257 525.269 473.18 550.385 486.055C554.268 488.045 556.546 487.613 559.401 484.554C566.362 477.096 573.667 469.961 580.759 462.623C583.917 459.356 587.389 457.055 592.164 457.061C622.198 457.097 652.236 456.815 682.265 457.2C693.314 457.341 701.142 466.157 700.946 476.42C700.755 486.458 692.378 494.389 681.307 494.682C673.731 494.882 666.014 495.586 658.587 494.505C633.687 490.88 614.055 498.207 598.797 518.887C594.404 524.841 592.459 528.419 595.996 535.316C598.89 540.959 602.78 541.602 607.986 541.637C678.833 542.108 749.69 540.535 820.527 542.555C828.438 542.78 828.967 538.609 828.259 532.572C820.639 467.528 797.232 409.21 754.61 359.016C746.361 349.301 746.723 349.815 734.997 355.005C726.481 358.773 726.274 362.789 730.549 370.174C746.719 398.103 757.817 428.123 765.512 459.396C768.824 472.858 771.85 486.423 772.349 501.085C761.154 502.514 750.677 501.031 740.344 501.854C730.729 502.619 728.177 498.341 726.88 489.568C721.158 450.863 708.751 414.372 688.818 380.538C686.293 376.253 683.505 374.956 678.817 376.44C669.937 379.251 661.014 381.963 652.006 384.324C646.455 385.778 645.121 388.642 646.822 393.953C648.773 400.046 649.963 406.381 651.872 412.489C653.673 418.251 651.793 420.803 645.874 420.796C638.876 420.788 631.877 420.824 624.879 420.933C604.662 421.25 608.531 421.74 604.785 404.956C603.227 397.977 600.022 395.823 593.307 396.76C576.851 399.057 560.327 400.679 543.678 400.689C536.7 400.693 533.817 404.578 534.012 411.298C534.208 417.999 534.243 424.704 534.354 431.407C534.434 436.249 532.704 439.017 527.216 438.877C517.599 438.631 507.97 438.683 498.35 438.867C493.301 438.964 491.784 436.811 492.121 431.949C492.563 425.561 492.028 419.103 492.509 412.72C493.082 405.13 490.816 401.824 482.409 401.634C469.644 401.346 456.859 399.844 444.184 398.118C424.255 395.404 424.088 395.102 420.269 414.062C419.245 419.143 416.917 421.018 412.102 420.992C402.188 420.937 392.273 420.954 382.36 421.063C376.318 421.129 374.642 418.257 376.124 412.713C377.778 406.528 378.849 400.158 380.908 394.119C382.7 388.863 380.989 386.76 376.035 385.399C366.786 382.858 357.545 380.187 348.523 376.951C343.135 375.018 339.882 375.956 337.038 381.003C330.876 391.937 324.941 402.97 320.352 414.658C310.43 439.928 302.379 465.737 299.036 492.795C298.215 499.436 295.374 502.433 288.273 501.955C279.855 501.389 271.36 501.577 262.916 501.899C256.498 502.143 253.428 500.876 254.212 493.176C255.427 481.227 258.06 469.644 260.959 458.094C269.644 423.499 281.73 390.237 301.118 359.533C295.639 356.878 290.364 355.022 285.897 351.98C280.396 348.234 277.4 349.031 273.132 354.319C230.71 406.87 204.372 466.126 196.775 533.504C196.098 539.507 197.772 541.549 203.473 541.507C216.886 541.409 230.3 541.491 245.464 541.501ZM470.787 553.53C465.649 574.113 475.355 594.498 494.545 603.431C513.405 612.21 534.641 606.373 547.058 588.997C559.814 571.147 558.404 549.397 543.477 533.963C520.319 510.019 481.2 518.857 470.787 553.53ZM533.977 851.769C534.413 856.989 532.919 862.483 535.742 868.536C560.394 842.919 575.778 813.182 588.027 781.563C589.71 777.219 587.973 775.405 583.309 774.706C570.084 772.724 556.85 771.329 543.469 770.869C536.286 770.622 533.773 773.007 533.884 780.312C534.235 803.576 533.989 826.85 533.977 851.769ZM492.494 811.889C492.494 805.488 492.602 799.084 492.473 792.685C491.968 767.714 496.44 770.315 470.068 771.538C459.289 772.038 448.227 772.324 436.858 776.765C450.118 810.337 464.381 842.23 491.352 868.846C493.402 849.074 492.088 831.334 492.494 811.889ZM461.483 304.216C452.761 318.721 445.445 333.901 439.21 349.638C436.782 355.765 438.777 358.458 444.932 358.828C457.709 359.596 470.507 360.091 483.262 361.131C490.09 361.688 492.592 359.35 492.517 352.368C492.233 325.866 492.431 299.36 492.341 272.856C492.334 270.813 493.501 268.1 489.771 266.595C479.057 277.492 470.29 290.07 461.483 304.216ZM533.939 344.51C533.998 348.295 534.011 352.081 534.13 355.864C534.226 358.915 535.72 360.887 538.919 360.924C555.442 361.118 571.81 359.739 588.043 356.877C585.122 333.952 550.547 275.18 533.932 266.562C533.932 292.368 533.932 317.584 533.939 344.51ZM589.282 870.079C588.654 871.05 588.026 872.02 587.398 872.991C618.257 852.395 640.167 823.517 662.621 793.802C651.927 789.001 642.041 786.314 631.318 784.428C620.867 814.739 608.187 843.373 589.282 870.079ZM418.764 275.596C398.016 293.472 381.314 314.722 365.048 337.62C373.081 341.737 380.276 342.945 387.032 345.369C393.081 347.539 396.066 345.801 398.22 339.943C408.966 310.72 422.457 282.913 443.36 256.796C433.425 262.536 426.409 268.463 418.764 275.596ZM649.167 319.793C630.314 296.57 609.237 275.673 584.636 258.29C604.201 283.597 618.332 311.75 629.595 341.445C630.545 343.95 631.4 346.864 634.887 345.81C643.648 343.162 652.914 341.997 661.752 337.458C658.684 330.755 653.805 326.102 649.167 319.793ZM413.624 851.1C422.138 858.922 430.652 866.743 439.165 874.565C437.241 869.539 434.255 865.398 431.564 861.074C417.679 838.768 406.557 815.096 396.851 790.718C395.77 788.006 395.472 783.288 391.062 784.509C382.818 786.793 374.199 788.141 365.503 792.372C379.183 814.123 394.825 833.087 413.624 851.1ZM680.266 841.741C692.466 834.369 703.342 825.321 714.902 815.452C709.347 812.628 704.769 805.77 699.931 811.204C691.484 820.69 684.809 831.754 677.392 842.157C677.829 842.318 678.257 842.551 678.708 842.61C678.942 842.641 679.217 842.365 680.266 841.741ZM316.442 811.884C313.943 813.303 310.397 814.506 314.437 817.942C325.249 827.14 336.584 835.606 349.086 842.449C341.695 831.952 333.793 821.997 326.337 811.72C323.104 807.263 320.456 810.065 316.442 811.884ZM344.252 296.876C344.915 296.006 345.578 295.136 346.24 294.267C335.53 301.331 324.463 307.835 315.772 317.572C321.48 323.102 325.366 322.396 329.377 316.247C333.627 309.732 338.825 303.836 344.252 296.876ZM693.834 310.201C697.1 314.536 700.366 318.87 703.639 323.214C707.219 321.514 710.778 320.77 711.685 316.354C702.953 309.321 694.508 301.96 682.528 294.977C686.996 301.082 689.997 305.183 693.834 310.201Z"
        fill="#A4FFFF" />
    <path
        d="M164.401 288.024C150.93 306.062 139.147 324.446 128.351 343.492C121.983 354.727 113.237 359.426 103.63 357.428C87.1022 353.991 79.1768 338.08 87.2641 322.395C99.4528 298.755 114.772 277.022 131.42 256.346C170.866 207.355 216.3 165.004 270.991 133.282C311.822 109.599 355.473 92.7409 400.93 80.3405C410.324 77.778 419.06 78.5445 426.085 85.6732C438.623 98.3978 433.79 116.836 416.394 122.083C397.429 127.803 378.382 133.252 359.962 140.58C281.526 171.781 216.129 220.34 164.401 288.024Z"
        fill="#A4FFFF" />
    <path
        d="M658.192 138.598C641.24 133.034 624.853 127.901 608.597 122.381C594.414 117.565 588.96 105.904 594.315 92.7909C598.552 82.416 607.922 77.2695 618.984 79.9464C668.011 91.811 714.271 110.72 757.656 136.322C833.124 180.856 891.452 242.392 935.728 317.675C941.763 327.937 944.738 337.881 936.661 348.454C927.92 359.897 913.263 360.942 903.219 350.687C898.047 345.405 894.894 338.756 891.239 332.485C859.811 278.567 818.651 233.476 767.926 197.238C734.12 173.087 697.761 153.505 658.192 138.598Z"
        fill="#A4FFFF" />
    <path
        d="M118.639 655.76C125.196 677.202 114.168 697.027 93.3691 702.28C74.3918 707.073 54.047 693.809 49.91 673.946C46.1202 655.75 61.0432 635.682 80.4176 632.92C96.0646 630.689 109.5 638.553 118.639 655.76Z"
        fill="#A4FFFF" />
    <path
        d="M60.1411 489.729C48.0843 474.994 46.1301 461.263 53.7138 447.362C60.3608 435.178 73.9334 428.458 88.3396 430.22C104.165 432.155 115.878 442.279 119.924 457.52C123.163 469.722 117.705 484.551 107.085 492.399C94.7288 501.531 79.6755 502.507 66.8775 494.877C64.6454 493.546 62.6872 491.756 60.1411 489.729Z"
        fill="#A4FFFF" />
    <path
        d="M971.045 481.736C962.253 495.078 950.39 501.456 935.129 499.413C920.526 497.459 911.059 488.504 906.435 474.647C901.981 461.297 907.416 445.256 918.981 436.609C930.338 428.118 948.474 427.7 960.004 435.664C972.471 444.273 978.38 459.962 974.283 473.884C973.549 476.378 972.343 478.733 971.045 481.736Z"
        fill="#A4FFFF" />
    <path
        d="M957.791 638.077C972.927 649.587 978.394 663.128 974.288 677.909C970.747 690.655 956.544 701.85 942.472 702.984C928.898 704.079 914.7 695.981 908.206 683.062C901.607 669.936 904.016 657.458 912.442 646.18C921.1 634.592 935.202 630.375 949.158 634.445C951.932 635.254 954.544 636.616 957.791 638.077Z"
        fill="#A4FFFF" />
    <path
        d="M919.807 571.052C917.781 552.99 926.318 542.942 943.6 542.669C958.17 542.439 972.749 542.435 987.32 542.641C1000.96 542.833 1011 552.214 1011.15 564.415C1011.29 576.181 1000.71 585.825 987.259 585.957C972.395 586.103 957.528 585.913 942.666 586.123C931.821 586.276 924.259 581.666 919.807 571.052Z"
        fill="#A4FFFF" />
    <path
        d="M132.368 797.478C139.334 807.417 139.593 816.873 132.963 826.387C127.214 834.635 117.024 838.953 107.848 836.863C96.7939 834.345 90.0404 827.488 87.6884 816.388C84.0381 799.162 101.501 783.633 118.857 788.684C123.994 790.18 128.489 792.785 132.368 797.478Z"
        fill="#A4FFFF" />
    <path
        d="M167.419 903.84C177.915 893.424 188.443 891.83 199.269 898.53C209.101 904.616 213.366 917.096 209.438 928.289C205.55 939.368 194.961 945.57 182.603 944.854C167.915 944.004 153.582 922.842 167.419 903.84Z"
        fill="#A4FFFF" />
    <path
        d="M852.828 940.218C835.49 949.348 817.492 942.201 814.501 925.602C812.198 912.819 818.399 900.573 829.41 896.157C840.554 891.69 852.981 896.431 860.052 907.849C866.296 917.931 863.815 929.838 852.828 940.218Z"
        fill="#A4FFFF" />
    <path
        d="M537.338 137.766C537.109 153.666 528.648 163.207 514.004 164.869C502.787 166.143 491.841 158.42 489.164 147.343C485.966 134.108 492.479 121.435 504.769 116.982C519.182 111.76 532.871 120.19 537.338 137.766Z"
        fill="#A4FFFF" />
    <path
        d="M888.369 817.147C887.785 795.821 903.913 783.043 921.573 790.013C931.782 794.043 937.626 803.205 936.859 813.981C936.079 824.953 928.023 833.861 916.745 836.222C905.924 838.487 896.365 834.103 891.123 824.327C890.032 822.292 889.365 820.029 888.369 817.147Z"
        fill="#A4FFFF" />
</svg>