<svg width="71" height="74" viewBox="0 0 71 74" fill="none" xmlns="http://www.w3.org/2000/svg">
<path d="M69.7868 65.0349L47.0874 26.9804V5.92H50.031C50.8117 5.92 51.5605 5.60814 52.1125 5.05304C52.6646 4.49793 52.9747 3.74504 52.9747 2.96C52.9747 2.17496 52.6646 1.42207 52.1125 0.866964C51.5605 0.311856 50.8117 0 50.031 0H20.5943C19.8136 0 19.0649 0.311856 18.5128 0.866964C17.9608 1.42207 17.6506 2.17496 17.6506 2.96C17.6506 3.74504 17.9608 4.49793 18.5128 5.05304C19.0649 5.60814 19.8136 5.92 20.5943 5.92H23.538V26.9804L0.838569 65.0349C0.303204 65.9324 0.0140236 66.9566 0.000497324 68.0031C-0.013029 69.0496 0.249582 70.081 0.761569 70.9921C1.27356 71.9033 2.01662 72.6618 2.91504 73.1902C3.81346 73.7185 4.83513 73.998 5.87593 74H64.7494C65.7911 73.9999 66.8142 73.7219 67.7142 73.1943C68.6141 72.6668 69.3588 71.9085 69.8721 70.997C70.3854 70.0854 70.6489 69.0533 70.6359 68.0058C70.6228 66.9584 70.3336 65.9332 69.7978 65.0349H69.7868ZM36.641 49.1582C30.7868 46.1797 25.2159 44.5998 20.0019 44.4185L29.0058 29.3225C29.2812 28.8636 29.4262 28.3377 29.4253 27.8018V5.92H41.2V27.8018C41.1991 28.3377 41.3442 28.8636 41.6195 29.3225L55.6829 52.91C51.2821 53.7758 44.9863 53.4058 36.641 49.1582Z" fill="#FBB03B"/>
</svg>
