<svg width="157" height="25" viewBox="0 0 157 25" fill="none" xmlns="http://www.w3.org/2000/svg">
<ellipse cx="61.1803" cy="12.5491" rx="6.99203" ry="6.72545" fill="white"/>
<rect x="28.5508" y="5.82361" width="13.9841" height="13.4509" rx="2" fill="white"/>
<rect x="28.5508" y="5.82361" width="13.9841" height="13.4509" rx="2" fill="white"/>
<rect x="28.5508" y="5.82361" width="13.9841" height="13.4509" rx="2" fill="white"/>
<path d="M8.70731 7.1838C9.09884 6.55614 10.0127 6.55614 10.4042 7.1838L16.9923 17.7453C17.4078 18.4113 16.9289 19.2745 16.1438 19.2745H2.96772C2.18268 19.2745 1.70377 18.4113 2.11926 17.7453L8.70731 7.1838Z" fill="white" stroke="white"/>
<path d="M85.0052 8.39205V6.36364H94.562V8.39205H90.9995V18H88.5677V8.39205H85.0052ZM95.1842 18V9.27273H97.5308V10.7955H97.6217C97.7808 10.2538 98.0478 9.8447 98.4228 9.56818C98.7978 9.28788 99.2296 9.14773 99.7183 9.14773C99.8395 9.14773 99.9702 9.1553 100.11 9.17045C100.25 9.18561 100.374 9.20644 100.48 9.23295V11.3807C100.366 11.3466 100.209 11.3163 100.008 11.2898C99.8073 11.2633 99.6236 11.25 99.4569 11.25C99.1008 11.25 98.7827 11.3277 98.5024 11.483C98.2258 11.6345 98.0061 11.8466 97.8433 12.1193C97.6842 12.392 97.6046 12.7064 97.6046 13.0625V18H95.1842ZM105.302 18.1705C104.404 18.1705 103.632 17.9886 102.984 17.625C102.34 17.2576 101.844 16.7386 101.495 16.0682C101.147 15.3939 100.973 14.5966 100.973 13.6761C100.973 12.7784 101.147 11.9905 101.495 11.3125C101.844 10.6345 102.334 10.1061 102.967 9.72727C103.603 9.34848 104.349 9.15909 105.205 9.15909C105.781 9.15909 106.317 9.25189 106.813 9.4375C107.313 9.61932 107.749 9.89394 108.12 10.2614C108.495 10.6288 108.787 11.0909 108.995 11.6477C109.204 12.2008 109.308 12.8485 109.308 13.5909V14.2557H101.938V12.7557H107.029C107.029 12.4072 106.954 12.0985 106.802 11.8295C106.651 11.5606 106.44 11.3504 106.171 11.1989C105.906 11.0436 105.598 10.9659 105.245 10.9659C104.878 10.9659 104.552 11.0511 104.268 11.2216C103.988 11.3883 103.768 11.6136 103.609 11.8977C103.45 12.178 103.368 12.4905 103.365 12.8352V14.2614C103.365 14.6932 103.444 15.0663 103.603 15.3807C103.766 15.6951 103.995 15.9375 104.291 16.108C104.586 16.2784 104.937 16.3636 105.342 16.3636C105.611 16.3636 105.857 16.3258 106.08 16.25C106.304 16.1742 106.495 16.0606 106.654 15.9091C106.813 15.7576 106.935 15.572 107.018 15.3523L109.257 15.5C109.143 16.0379 108.91 16.5076 108.558 16.9091C108.209 17.3068 107.759 17.6174 107.205 17.8409C106.656 18.0606 106.022 18.1705 105.302 18.1705ZM118.149 11.7614L115.933 11.8977C115.895 11.7083 115.813 11.5379 115.688 11.3864C115.563 11.2311 115.399 11.108 115.194 11.017C114.993 10.9223 114.753 10.875 114.473 10.875C114.098 10.875 113.781 10.9545 113.524 11.1136C113.266 11.2689 113.137 11.4773 113.137 11.7386C113.137 11.947 113.221 12.1231 113.387 12.267C113.554 12.411 113.84 12.5265 114.245 12.6136L115.825 12.9318C116.673 13.1061 117.306 13.3864 117.723 13.7727C118.139 14.1591 118.348 14.6667 118.348 15.2955C118.348 15.8674 118.179 16.3693 117.842 16.8011C117.509 17.233 117.05 17.5701 116.467 17.8125C115.887 18.0511 115.219 18.1705 114.461 18.1705C113.306 18.1705 112.385 17.9299 111.7 17.4489C111.018 16.964 110.618 16.3049 110.501 15.4716L112.882 15.3466C112.954 15.6989 113.128 15.9678 113.404 16.1534C113.681 16.3352 114.035 16.4261 114.467 16.4261C114.891 16.4261 115.232 16.3447 115.49 16.1818C115.751 16.0152 115.884 15.8011 115.887 15.5398C115.884 15.3201 115.791 15.1402 115.609 15C115.427 14.8561 115.147 14.7462 114.768 14.6705L113.257 14.3693C112.404 14.1989 111.77 13.9034 111.353 13.483C110.94 13.0625 110.734 12.5265 110.734 11.875C110.734 11.3144 110.885 10.8314 111.188 10.4261C111.495 10.0208 111.925 9.70833 112.478 9.48864C113.035 9.26894 113.687 9.15909 114.433 9.15909C115.535 9.15909 116.402 9.39205 117.035 9.85795C117.671 10.3239 118.043 10.9583 118.149 11.7614Z" fill="white"/>
<path d="M85.0052 8.39205V6.36364H94.562V8.39205H90.9995V18H88.5677V8.39205H85.0052ZM95.1842 18V9.27273H97.5308V10.7955H97.6217C97.7808 10.2538 98.0478 9.8447 98.4228 9.56818C98.7978 9.28788 99.2296 9.14773 99.7183 9.14773C99.8395 9.14773 99.9702 9.1553 100.11 9.17045C100.25 9.18561 100.374 9.20644 100.48 9.23295V11.3807C100.366 11.3466 100.209 11.3163 100.008 11.2898C99.8073 11.2633 99.6236 11.25 99.4569 11.25C99.1008 11.25 98.7827 11.3277 98.5024 11.483C98.2258 11.6345 98.0061 11.8466 97.8433 12.1193C97.6842 12.392 97.6046 12.7064 97.6046 13.0625V18H95.1842ZM105.302 18.1705C104.404 18.1705 103.632 17.9886 102.984 17.625C102.34 17.2576 101.844 16.7386 101.495 16.0682C101.147 15.3939 100.973 14.5966 100.973 13.6761C100.973 12.7784 101.147 11.9905 101.495 11.3125C101.844 10.6345 102.334 10.1061 102.967 9.72727C103.603 9.34848 104.349 9.15909 105.205 9.15909C105.781 9.15909 106.317 9.25189 106.813 9.4375C107.313 9.61932 107.749 9.89394 108.12 10.2614C108.495 10.6288 108.787 11.0909 108.995 11.6477C109.204 12.2008 109.308 12.8485 109.308 13.5909V14.2557H101.938V12.7557H107.029C107.029 12.4072 106.954 12.0985 106.802 11.8295C106.651 11.5606 106.44 11.3504 106.171 11.1989C105.906 11.0436 105.598 10.9659 105.245 10.9659C104.878 10.9659 104.552 11.0511 104.268 11.2216C103.988 11.3883 103.768 11.6136 103.609 11.8977C103.45 12.178 103.368 12.4905 103.365 12.8352V14.2614C103.365 14.6932 103.444 15.0663 103.603 15.3807C103.766 15.6951 103.995 15.9375 104.291 16.108C104.586 16.2784 104.937 16.3636 105.342 16.3636C105.611 16.3636 105.857 16.3258 106.08 16.25C106.304 16.1742 106.495 16.0606 106.654 15.9091C106.813 15.7576 106.935 15.572 107.018 15.3523L109.257 15.5C109.143 16.0379 108.91 16.5076 108.558 16.9091C108.209 17.3068 107.759 17.6174 107.205 17.8409C106.656 18.0606 106.022 18.1705 105.302 18.1705ZM118.149 11.7614L115.933 11.8977C115.895 11.7083 115.813 11.5379 115.688 11.3864C115.563 11.2311 115.399 11.108 115.194 11.017C114.993 10.9223 114.753 10.875 114.473 10.875C114.098 10.875 113.781 10.9545 113.524 11.1136C113.266 11.2689 113.137 11.4773 113.137 11.7386C113.137 11.947 113.221 12.1231 113.387 12.267C113.554 12.411 113.84 12.5265 114.245 12.6136L115.825 12.9318C116.673 13.1061 117.306 13.3864 117.723 13.7727C118.139 14.1591 118.348 14.6667 118.348 15.2955C118.348 15.8674 118.179 16.3693 117.842 16.8011C117.509 17.233 117.05 17.5701 116.467 17.8125C115.887 18.0511 115.219 18.1705 114.461 18.1705C113.306 18.1705 112.385 17.9299 111.7 17.4489C111.018 16.964 110.618 16.3049 110.501 15.4716L112.882 15.3466C112.954 15.6989 113.128 15.9678 113.404 16.1534C113.681 16.3352 114.035 16.4261 114.467 16.4261C114.891 16.4261 115.232 16.3447 115.49 16.1818C115.751 16.0152 115.884 15.8011 115.887 15.5398C115.884 15.3201 115.791 15.1402 115.609 15C115.427 14.8561 115.147 14.7462 114.768 14.6705L113.257 14.3693C112.404 14.1989 111.77 13.9034 111.353 13.483C110.94 13.0625 110.734 12.5265 110.734 11.875C110.734 11.3144 110.885 10.8314 111.188 10.4261C111.495 10.0208 111.925 9.70833 112.478 9.48864C113.035 9.26894 113.687 9.15909 114.433 9.15909C115.535 9.15909 116.402 9.39205 117.035 9.85795C117.671 10.3239 118.043 10.9583 118.149 11.7614Z" fill="white"/>
<path d="M85.0052 8.39205V6.36364H94.562V8.39205H90.9995V18H88.5677V8.39205H85.0052ZM95.1842 18V9.27273H97.5308V10.7955H97.6217C97.7808 10.2538 98.0478 9.8447 98.4228 9.56818C98.7978 9.28788 99.2296 9.14773 99.7183 9.14773C99.8395 9.14773 99.9702 9.1553 100.11 9.17045C100.25 9.18561 100.374 9.20644 100.48 9.23295V11.3807C100.366 11.3466 100.209 11.3163 100.008 11.2898C99.8073 11.2633 99.6236 11.25 99.4569 11.25C99.1008 11.25 98.7827 11.3277 98.5024 11.483C98.2258 11.6345 98.0061 11.8466 97.8433 12.1193C97.6842 12.392 97.6046 12.7064 97.6046 13.0625V18H95.1842ZM105.302 18.1705C104.404 18.1705 103.632 17.9886 102.984 17.625C102.34 17.2576 101.844 16.7386 101.495 16.0682C101.147 15.3939 100.973 14.5966 100.973 13.6761C100.973 12.7784 101.147 11.9905 101.495 11.3125C101.844 10.6345 102.334 10.1061 102.967 9.72727C103.603 9.34848 104.349 9.15909 105.205 9.15909C105.781 9.15909 106.317 9.25189 106.813 9.4375C107.313 9.61932 107.749 9.89394 108.12 10.2614C108.495 10.6288 108.787 11.0909 108.995 11.6477C109.204 12.2008 109.308 12.8485 109.308 13.5909V14.2557H101.938V12.7557H107.029C107.029 12.4072 106.954 12.0985 106.802 11.8295C106.651 11.5606 106.44 11.3504 106.171 11.1989C105.906 11.0436 105.598 10.9659 105.245 10.9659C104.878 10.9659 104.552 11.0511 104.268 11.2216C103.988 11.3883 103.768 11.6136 103.609 11.8977C103.45 12.178 103.368 12.4905 103.365 12.8352V14.2614C103.365 14.6932 103.444 15.0663 103.603 15.3807C103.766 15.6951 103.995 15.9375 104.291 16.108C104.586 16.2784 104.937 16.3636 105.342 16.3636C105.611 16.3636 105.857 16.3258 106.08 16.25C106.304 16.1742 106.495 16.0606 106.654 15.9091C106.813 15.7576 106.935 15.572 107.018 15.3523L109.257 15.5C109.143 16.0379 108.91 16.5076 108.558 16.9091C108.209 17.3068 107.759 17.6174 107.205 17.8409C106.656 18.0606 106.022 18.1705 105.302 18.1705ZM118.149 11.7614L115.933 11.8977C115.895 11.7083 115.813 11.5379 115.688 11.3864C115.563 11.2311 115.399 11.108 115.194 11.017C114.993 10.9223 114.753 10.875 114.473 10.875C114.098 10.875 113.781 10.9545 113.524 11.1136C113.266 11.2689 113.137 11.4773 113.137 11.7386C113.137 11.947 113.221 12.1231 113.387 12.267C113.554 12.411 113.84 12.5265 114.245 12.6136L115.825 12.9318C116.673 13.1061 117.306 13.3864 117.723 13.7727C118.139 14.1591 118.348 14.6667 118.348 15.2955C118.348 15.8674 118.179 16.3693 117.842 16.8011C117.509 17.233 117.05 17.5701 116.467 17.8125C115.887 18.0511 115.219 18.1705 114.461 18.1705C113.306 18.1705 112.385 17.9299 111.7 17.4489C111.018 16.964 110.618 16.3049 110.501 15.4716L112.882 15.3466C112.954 15.6989 113.128 15.9678 113.404 16.1534C113.681 16.3352 114.035 16.4261 114.467 16.4261C114.891 16.4261 115.232 16.3447 115.49 16.1818C115.751 16.0152 115.884 15.8011 115.887 15.5398C115.884 15.3201 115.791 15.1402 115.609 15C115.427 14.8561 115.147 14.7462 114.768 14.6705L113.257 14.3693C112.404 14.1989 111.77 13.9034 111.353 13.483C110.94 13.0625 110.734 12.5265 110.734 11.875C110.734 11.3144 110.885 10.8314 111.188 10.4261C111.495 10.0208 111.925 9.70833 112.478 9.48864C113.035 9.26894 113.687 9.15909 114.433 9.15909C115.535 9.15909 116.402 9.39205 117.035 9.85795C117.671 10.3239 118.043 10.9583 118.149 11.7614Z" fill="white"/>
<path d="M124.576 6.36364H127.008V14.4773C127.008 15.2273 126.839 15.8788 126.502 16.4318C126.169 16.9848 125.705 17.411 125.11 17.7102C124.516 18.0095 123.824 18.1591 123.036 18.1591C122.336 18.1591 121.699 18.036 121.127 17.7898C120.559 17.5398 120.108 17.161 119.775 16.6534C119.442 16.142 119.277 15.5 119.281 14.7273H121.73C121.737 15.0341 121.8 15.2973 121.917 15.517C122.038 15.733 122.203 15.8996 122.411 16.017C122.624 16.1307 122.874 16.1875 123.161 16.1875C123.464 16.1875 123.72 16.1231 123.928 15.9943C124.141 15.8617 124.302 15.6686 124.411 15.4148C124.521 15.161 124.576 14.8485 124.576 14.4773V6.36364ZM135.355 9.71023C135.309 9.25189 135.114 8.89583 134.769 8.64205C134.425 8.38826 133.957 8.26136 133.366 8.26136C132.964 8.26136 132.625 8.31818 132.349 8.43182C132.072 8.54167 131.86 8.69508 131.713 8.89205C131.569 9.08902 131.497 9.3125 131.497 9.5625C131.489 9.77083 131.533 9.95265 131.627 10.108C131.726 10.2633 131.86 10.3977 132.031 10.5114C132.201 10.6212 132.398 10.7178 132.622 10.8011C132.845 10.8807 133.084 10.9489 133.338 11.0057L134.383 11.2557C134.891 11.3693 135.357 11.5208 135.781 11.7102C136.205 11.8996 136.572 12.1326 136.883 12.4091C137.194 12.6856 137.434 13.0114 137.605 13.3864C137.779 13.7614 137.868 14.1913 137.872 14.6761C137.868 15.3883 137.686 16.0057 137.326 16.5284C136.97 17.0473 136.455 17.4508 135.781 17.7386C135.11 18.0227 134.302 18.1648 133.355 18.1648C132.415 18.1648 131.597 18.0208 130.9 17.733C130.207 17.4451 129.665 17.0189 129.275 16.4545C128.889 15.8864 128.686 15.1837 128.667 14.3466H131.048C131.074 14.7367 131.186 15.0625 131.383 15.3239C131.584 15.5814 131.851 15.7765 132.184 15.9091C132.521 16.0379 132.902 16.1023 133.326 16.1023C133.743 16.1023 134.105 16.0417 134.411 15.9205C134.722 15.7992 134.963 15.6307 135.133 15.4148C135.303 15.1989 135.389 14.9508 135.389 14.6705C135.389 14.4091 135.311 14.1894 135.156 14.0114C135.004 13.8333 134.781 13.6818 134.485 13.5568C134.194 13.4318 133.836 13.3182 133.411 13.2159L132.144 12.8977C131.163 12.6591 130.389 12.286 129.821 11.7784C129.252 11.2708 128.97 10.5871 128.974 9.72727C128.97 9.02273 129.158 8.4072 129.536 7.88068C129.919 7.35417 130.444 6.94318 131.11 6.64773C131.777 6.35227 132.535 6.20455 133.383 6.20455C134.247 6.20455 135 6.35227 135.644 6.64773C136.292 6.94318 136.796 7.35417 137.156 7.88068C137.516 8.4072 137.701 9.01705 137.713 9.71023H135.355Z" fill="white"/>
</svg>
