<svg width="82" height="74" viewBox="0 0 82 74" fill="none" xmlns="http://www.w3.org/2000/svg">
<path fill-rule="evenodd" clip-rule="evenodd" d="M41.2 74L35.3275 68.6768C14.47 49.8441 0.699951 37.3831 0.699951 22.1798C0.699951 9.7188 10.501 0 22.975 0C30.022 0 36.7855 3.26648 41.2 8.38801C45.6145 3.26648 52.378 0 59.425 0C71.899 0 81.7 9.7188 81.7 22.1798C81.7 37.3831 67.93 49.8441 47.0725 68.6768L41.2 74ZM34.4025 31.8563C34.4025 34.6767 32.1063 36.963 29.2738 36.963C26.4413 36.963 24.1452 34.6767 24.1452 31.8563C24.1452 29.0359 26.4413 26.7496 29.2738 26.7496C32.1063 26.7496 34.4025 29.0359 34.4025 31.8563ZM53.6959 36.963C56.5284 36.963 58.8246 34.6767 58.8246 31.8563C58.8246 29.0359 56.5284 26.7496 53.6959 26.7496C50.8635 26.7496 48.5673 29.0359 48.5673 31.8563C48.5673 34.6767 50.8635 36.963 53.6959 36.963Z" fill="#FBB03B"/>
</svg>
