<svg width="127" height="29" viewBox="0 0 127 29" fill="none" xmlns="http://www.w3.org/2000/svg">
<path d="M112.042 1C116.086 1.00025 119.264 4.15215 119.264 8.19336C119.264 13.1241 114.799 17.1655 108.036 23.2734L106.132 25L104.228 23.2734C97.4647 17.1657 93 13.1241 93 8.19336C93.0001 4.15199 96.178 1 100.223 1C102.508 1 104.7 2.05967 106.132 3.7207C107.563 2.05967 109.757 1 112.042 1ZM102.265 9.6748C101.346 9.6748 100.602 10.4163 100.602 11.3311C100.602 12.2457 101.346 12.9873 102.265 12.9873C103.183 12.9873 103.928 12.2456 103.928 11.3311C103.928 10.4164 103.183 9.67486 102.265 9.6748ZM110.185 9.6748C109.266 9.67483 108.521 10.4164 108.521 11.3311C108.522 12.2456 109.266 12.9873 110.185 12.9873C111.103 12.9873 111.848 12.2457 111.848 11.3311C111.848 10.4163 111.103 9.6748 110.185 9.6748Z" fill="#FBB03B"/>
<rect x="49" y="1" width="24" height="24" rx="2" fill="#4F4F4F"/>
<rect x="49" y="1" width="24" height="24" rx="2" fill="#4F4F4F" fill-opacity="0.2"/>
<rect x="49" y="1" width="24" height="24" rx="2" fill="#4F4F4F" fill-opacity="0.2"/>
<path d="M15.5426 2.42915C15.931 1.78181 16.8692 1.78182 17.2576 2.42915L29.8914 23.4855C30.2913 24.152 29.8112 25 29.0339 25H3.76628C2.98899 25 2.50888 24.152 2.90879 23.4855L15.5426 2.42915Z" fill="#82DBC5" stroke="#82DBC5"/>
</svg>
