<svg width="423" height="423" viewBox="0 0 423 423" fill="none" xmlns="http://www.w3.org/2000/svg">
<path fill-rule="evenodd" clip-rule="evenodd" d="M4.49316 0.820312C2.28402 0.820312 0.493164 2.61116 0.493164 4.8203V418.503C0.493164 420.712 2.28402 422.503 4.49315 422.503H418.176C420.385 422.503 422.176 420.712 422.176 418.503V4.82031C422.176 2.61117 420.385 0.820312 418.176 0.820312H4.49316ZM70.3811 353.886C68.172 353.886 66.3811 355.677 66.3811 357.886C66.3811 360.095 68.172 361.886 70.3811 361.886H354.924C357.133 361.886 358.924 360.095 358.924 357.886C358.924 355.677 357.133 353.886 354.924 353.886H70.3811ZM155.989 211.662C155.989 236.406 135.929 256.466 111.185 256.466C86.4404 256.466 66.3811 236.406 66.3811 211.662C66.3811 186.917 86.4404 166.858 111.185 166.858C135.929 166.858 155.989 186.917 155.989 211.662ZM314.12 256.466C338.864 256.466 358.924 236.406 358.924 211.662C358.924 186.917 338.864 166.858 314.12 166.858C289.375 166.858 269.316 186.917 269.316 211.662C269.316 236.406 289.375 256.466 314.12 256.466Z" fill="#4F4F4F"/>
<path fill-rule="evenodd" clip-rule="evenodd" d="M4.49316 0.820312C2.28402 0.820312 0.493164 2.61116 0.493164 4.8203V418.503C0.493164 420.712 2.28402 422.503 4.49315 422.503H418.176C420.385 422.503 422.176 420.712 422.176 418.503V4.82031C422.176 2.61117 420.385 0.820312 418.176 0.820312H4.49316ZM70.3811 353.886C68.172 353.886 66.3811 355.677 66.3811 357.886C66.3811 360.095 68.172 361.886 70.3811 361.886H354.924C357.133 361.886 358.924 360.095 358.924 357.886C358.924 355.677 357.133 353.886 354.924 353.886H70.3811ZM155.989 211.662C155.989 236.406 135.929 256.466 111.185 256.466C86.4404 256.466 66.3811 236.406 66.3811 211.662C66.3811 186.917 86.4404 166.858 111.185 166.858C135.929 166.858 155.989 186.917 155.989 211.662ZM314.12 256.466C338.864 256.466 358.924 236.406 358.924 211.662C358.924 186.917 338.864 166.858 314.12 166.858C289.375 166.858 269.316 186.917 269.316 211.662C269.316 236.406 289.375 256.466 314.12 256.466Z" fill="black" fill-opacity="0.2"/>
<path fill-rule="evenodd" clip-rule="evenodd" d="M4.49316 0.820312C2.28402 0.820312 0.493164 2.61116 0.493164 4.8203V418.503C0.493164 420.712 2.28402 422.503 4.49315 422.503H418.176C420.385 422.503 422.176 420.712 422.176 418.503V4.82031C422.176 2.61117 420.385 0.820312 418.176 0.820312H4.49316ZM70.3811 353.886C68.172 353.886 66.3811 355.677 66.3811 357.886C66.3811 360.095 68.172 361.886 70.3811 361.886H354.924C357.133 361.886 358.924 360.095 358.924 357.886C358.924 355.677 357.133 353.886 354.924 353.886H70.3811ZM155.989 211.662C155.989 236.406 135.929 256.466 111.185 256.466C86.4404 256.466 66.3811 236.406 66.3811 211.662C66.3811 186.917 86.4404 166.858 111.185 166.858C135.929 166.858 155.989 186.917 155.989 211.662ZM314.12 256.466C338.864 256.466 358.924 236.406 358.924 211.662C358.924 186.917 338.864 166.858 314.12 166.858C289.375 166.858 269.316 186.917 269.316 211.662C269.316 236.406 289.375 256.466 314.12 256.466Z" fill="black" fill-opacity="0.2"/>
</svg>
