<svg width="27" height="24" viewBox="0 0 27 24" fill="none" xmlns="http://www.w3.org/2000/svg">
<path fill-rule="evenodd" clip-rule="evenodd" d="M13.1321 24L11.2279 22.2736C4.46491 16.1657 0 12.1243 0 7.19346C0 3.15204 3.17796 0 7.22264 0C9.50762 0 11.7007 1.0594 13.1321 2.72044C14.5635 1.0594 16.7565 0 19.0415 0C23.0862 0 26.2642 3.15204 26.2642 7.19346C26.2642 12.1243 21.7992 16.1657 15.0362 22.2736L13.1321 24ZM10.9275 10.3308C10.9275 11.2455 10.183 11.987 9.26455 11.987C8.34613 11.987 7.6016 11.2455 7.6016 10.3308C7.6016 9.41609 8.34613 8.67456 9.26455 8.67456C10.183 8.67456 10.9275 9.41609 10.9275 10.3308ZM17.1846 11.987C18.103 11.987 18.8476 11.2455 18.8476 10.3308C18.8476 9.41609 18.103 8.67456 17.1846 8.67456C16.2662 8.67456 15.5217 9.41609 15.5217 10.3308C15.5217 11.2455 16.2662 11.987 17.1846 11.987Z" fill="currentColor"/>
</svg>
