<svg width="24" height="24" viewBox="0 0 24 24" fill="none" xmlns="http://www.w3.org/2000/svg">
<path fill-rule="evenodd" clip-rule="evenodd" d="M24 2.00019C24 0.895625 23.1046 0.00019455 22 0.00019455H2C0.895431 0.00019455 0 0.895625 0 2.00019V22.0002C0 23.1048 0.89543 24.0002 2 24.0002H22C23.1046 24.0002 24 23.1048 24 22.0002V2.00019ZM4.75 18.55C4.19772 18.55 3.75 18.9977 3.75 19.55C3.75 20.1023 4.19772 20.55 4.75 20.55H19.4C19.9523 20.55 20.4 20.1023 20.4 19.55C20.4 18.9977 19.9523 18.55 19.4 18.55H4.75ZM8.85 12.0004C8.85 13.4087 7.70833 14.5504 6.3 14.5504C4.89167 14.5504 3.75 13.4087 3.75 12.0004C3.75 10.5921 4.89167 9.45039 6.3 9.45039C7.70833 9.45039 8.85 10.5921 8.85 12.0004ZM17.8498 14.5504C19.2581 14.5504 20.3998 13.4087 20.3998 12.0004C20.3998 10.5921 19.2581 9.45039 17.8498 9.45039C16.4415 9.45039 15.2998 10.5921 15.2998 12.0004C15.2998 13.4087 16.4415 14.5504 17.8498 14.5504Z" fill="currentColor"/>
<path fill-rule="evenodd" clip-rule="evenodd" d="M24 2.00019C24 0.895625 23.1046 0.00019455 22 0.00019455H2C0.895431 0.00019455 0 0.895625 0 2.00019V22.0002C0 23.1048 0.89543 24.0002 2 24.0002H22C23.1046 24.0002 24 23.1048 24 22.0002V2.00019ZM4.75 18.55C4.19772 18.55 3.75 18.9977 3.75 19.55C3.75 20.1023 4.19772 20.55 4.75 20.55H19.4C19.9523 20.55 20.4 20.1023 20.4 19.55C20.4 18.9977 19.9523 18.55 19.4 18.55H4.75ZM8.85 12.0004C8.85 13.4087 7.70833 14.5504 6.3 14.5504C4.89167 14.5504 3.75 13.4087 3.75 12.0004C3.75 10.5921 4.89167 9.45039 6.3 9.45039C7.70833 9.45039 8.85 10.5921 8.85 12.0004ZM17.8498 14.5504C19.2581 14.5504 20.3998 13.4087 20.3998 12.0004C20.3998 10.5921 19.2581 9.45039 17.8498 9.45039C16.4415 9.45039 15.2998 10.5921 15.2998 12.0004C15.2998 13.4087 16.4415 14.5504 17.8498 14.5504Z" fill="currentColor" fill-opacity="0.2"/>
<path fill-rule="evenodd" clip-rule="evenodd" d="M24 2.00019C24 0.895625 23.1046 0.00019455 22 0.00019455H2C0.895431 0.00019455 0 0.895625 0 2.00019V22.0002C0 23.1048 0.89543 24.0002 2 24.0002H22C23.1046 24.0002 24 23.1048 24 22.0002V2.00019ZM4.75 18.55C4.19772 18.55 3.75 18.9977 3.75 19.55C3.75 20.1023 4.19772 20.55 4.75 20.55H19.4C19.9523 20.55 20.4 20.1023 20.4 19.55C20.4 18.9977 19.9523 18.55 19.4 18.55H4.75ZM8.85 12.0004C8.85 13.4087 7.70833 14.5504 6.3 14.5504C4.89167 14.5504 3.75 13.4087 3.75 12.0004C3.75 10.5921 4.89167 9.45039 6.3 9.45039C7.70833 9.45039 8.85 10.5921 8.85 12.0004ZM17.8498 14.5504C19.2581 14.5504 20.3998 13.4087 20.3998 12.0004C20.3998 10.5921 19.2581 9.45039 17.8498 9.45039C16.4415 9.45039 15.2998 10.5921 15.2998 12.0004C15.2998 13.4087 16.4415 14.5504 17.8498 14.5504Z" fill="currentColor" fill-opacity="0.2"/>
</svg>
