<svg width="23" height="24" viewBox="0 0 23 24" fill="none" xmlns="http://www.w3.org/2000/svg">
<path d="M18.4 19.2V22.8C18.4 23.1183 18.2788 23.4235 18.0632 23.6485C17.8475 23.8736 17.555 24 17.25 24H5.75C5.445 24 5.15249 23.8736 4.93683 23.6485C4.72116 23.4235 4.6 23.1183 4.6 22.8V19.2H1.15C0.845001 19.2 0.552494 19.0736 0.336827 18.8485C0.12116 18.6235 0 18.3183 0 18V12C0 5.3724 5.14855 0 11.5 0C17.8514 0 23 5.3724 23 12V18C23 18.3183 22.8788 18.6235 22.6632 18.8485C22.4475 19.0736 22.155 19.2 21.85 19.2H18.4ZM6.325 14.4C6.55153 14.4 6.77584 14.3534 6.98513 14.263C7.19442 14.1725 7.38458 14.0399 7.54476 13.8728C7.70494 13.7056 7.832 13.5072 7.91869 13.2888C8.00538 13.0704 8.05 12.8364 8.05 12.6C8.05 12.3636 8.00538 12.1296 7.91869 11.9112C7.832 11.6928 7.70494 11.4944 7.54476 11.3272C7.38458 11.1601 7.19442 11.0275 6.98513 10.937C6.77584 10.8466 6.55153 10.8 6.325 10.8C5.8675 10.8 5.42874 10.9896 5.10524 11.3272C4.78174 11.6648 4.6 12.1226 4.6 12.6C4.6 13.0774 4.78174 13.5352 5.10524 13.8728C5.42874 14.2104 5.8675 14.4 6.325 14.4ZM16.675 14.4C16.9015 14.4 17.1258 14.3534 17.3351 14.263C17.5444 14.1725 17.7346 14.0399 17.8948 13.8728C18.0549 13.7056 18.182 13.5072 18.2687 13.2888C18.3554 13.0704 18.4 12.8364 18.4 12.6C18.4 12.3636 18.3554 12.1296 18.2687 11.9112C18.182 11.6928 18.0549 11.4944 17.8948 11.3272C17.7346 11.1601 17.5444 11.0275 17.3351 10.937C17.1258 10.8466 16.9015 10.8 16.675 10.8C16.2175 10.8 15.7787 10.9896 15.4552 11.3272C15.1317 11.6648 14.95 12.1226 14.95 12.6C14.95 13.0774 15.1317 13.5352 15.4552 13.8728C15.7787 14.2104 16.2175 14.4 16.675 14.4Z" fill="currentColor"/>
</svg>
